STARTFONT 2.1
COMMENT
COMMENT Converted from OpenType font "PoetsenOne-Regular.ttf" by "otf2bdf 3.0".
COMMENT
FONT -FreeType-PoetsenOne-Medium-R-Normal--83-600-100-100-P-422-ISO10646-1
SIZE 60 100 100
FONTBOUNDINGBOX 110 99 -14 -17
STARTPROPERTIES 19
FOUNDRY "FreeType"
FAMILY_NAME "PoetsenOne"
WEIGHT_NAME "Medium"
SLANT "R"
SETWIDTH_NAME "Normal"
ADD_STYLE_NAME ""
PIXEL_SIZE 83
POINT_SIZE 600
RESOLUTION_X 100
RESOLUTION_Y 100
SPACING "P"
AVERAGE_WIDTH 422
CHARSET_REGISTRY "ISO10646"
CHARSET_ENCODING "1"
FONT_ASCENT 83
FONT_DESCENT 16
COPYRIGHT "Copyright (c) 2012, Pablo Impallari (www.impallari.com|impallari@gmail.com) and Rodrigo Fuenzalida (www.rfuenzalida.com), with Reserved Font Name Poetsen."
_OTF_FONTFILE "PoetsenOne-Regular.ttf"
_OTF_PSNAME "PoetsenOne-Regular"
ENDPROPERTIES
CHARS 441
STARTCHAR 0020
ENCODING 32
SWIDTH 216 0
DWIDTH 18 0
BBX 0 0 0 0
BITMAP
ENDCHAR
STARTCHAR 0021
ENCODING 33
SWIDTH 288 0
DWIDTH 24 0
BBX 21 63 2 -1
BITMAP
03FF00
03FFE0
03FFF0
03FFF0
03FFF8
07FFF8
07FFF8
07FFF8
07FFF8
07FFF8
07FFF0
07FFF0
07FFF0
07FFF0
07FFF0
07FFF0
07FFF0
07FFE0
07FFE0
0FFFE0
0FFFE0
0FFFE0
0FFFC0
0FFFC0
0FFFC0
0FFFC0
0FFFC0
0FFFC0
0FFF80
0FFF80
0FFF80
0FFF80
0FFF80
0FFF00
0FFF00
0FFF00
0FFF00
0FFF00
07FE00
07FE00
01FE00
000000
000000
000000
000000
000000
000000
07F000
1FF800
3FFC00
3FFE00
7FFE00
7FFE00
7FFE00
FFFE00
FFFE00
FFFE00
FFFC00
7FFC00
7FFC00
7FF800
3FF000
0FC000
ENDCHAR
STARTCHAR 0022
ENCODING 34
SWIDTH 420 0
DWIDTH 35 0
BBX 28 24 5 38
BITMAP
7FC03FC0
7FE07FF0
7FF07FF0
7FF07FF0
7FF07FF0
7FF07FF0
7FF07FF0
7FF07FF0
7FF07FF0
7FE07FF0
7FE07FE0
7FE07FE0
FFE07FE0
FFE07FE0
FFE07FE0
FFC0FFE0
FFC0FFC0
FFC0FFC0
FFC0FFC0
FFC0FFC0
FF80FFC0
FF80FF80
7F807F80
3F803F80
ENDCHAR
STARTCHAR 0023
ENCODING 35
SWIDTH 684 0
DWIDTH 57 0
BBX 54 60 2 0
BITMAP
00008000080000
0003F8001FC000
0003FE001FE000
0003FE001FF000
0003FF001FF800
0003FF003FF800
0003FF003FF800
0007FF003FF800
0007FF003FF800
0007FF003FF800
0007FF003FF800
0007FF003FF800
0007FF003FF800
0007FF003FF000
0007FF007FF000
0007FE007FF000
000FFE007FF000
03FFFFFFFFFFFC
0FFFFFFFFFFFFC
0FFFFFFFFFFFFC
1FFFFFFFFFFFFC
1FFFFFFFFFFFFC
1FFFFFFFFFFFF8
3FFFFFFFFFFFF8
3FFFFFFFFFFFF0
3FFFFFFFFFFFC0
001FFC00FFE000
001FFC00FFE000
001FFC00FFE000
001FFC00FFC000
001FFC01FFC000
001FF801FFC000
003FF801FFC000
003FF801FFC000
003FF801FFC000
003FF801FFC000
0FFFFFFFFFFFE0
3FFFFFFFFFFFE0
7FFFFFFFFFFFE0
7FFFFFFFFFFFE0
FFFFFFFFFFFFE0
FFFFFFFFFFFFE0
FFFFFFFFFFFFC0
FFFFFFFFFFFF80
FFFFFFFFFFFF00
007FF003FF0000
007FF007FF0000
007FE007FF0000
00FFE007FF0000
00FFE007FF0000
00FFE007FF0000
00FFE007FF0000
00FFE007FF0000
00FFE007FE0000
00FFE007FE0000
00FFC007FE0000
007FC007FE0000
007FC003FE0000
003FC001FE0000
000FC0007C0000
ENDCHAR
STARTCHAR 0024
ENCODING 36
SWIDTH 528 0
DWIDTH 44 0
BBX 40 77 2 -9
BITMAP
00000F8000
00000FC000
00001FE000
00001FF000
00001FF000
00001FF000
00001FF000
00001FF000
00007FFE00
0003FFFFC0
000FFFFFE0
003FFFFFF8
007FFFFFF8
00FFFFFFFC
01FFFFFFFE
03FFFFFFFE
07FFFFFFFE
0FFFFFFFFF
0FFFFFFFFF
1FFFFFFFFF
1FFFE07FFF
1FFFC03FFF
3FFF801FFF
3FFF001FFE
3FFF001FFE
3FFE001FFC
3FFE001FFC
3FFF000FF8
3FFF000FE0
3FFF800000
3FFFC00000
3FFFF00000
1FFFFC0000
1FFFFF0000
1FFFFFC000
0FFFFFF800
0FFFFFFC00
07FFFFFF00
03FFFFFF80
01FFFFFFC0
00FFFFFFE0
007FFFFFF0
001FFFFFF0
0007FFFFF8
0001FFFFFC
00003FFFFC
00000FFFFC
000007FFFC
000003FFFC
380001FFFE
7C0001FFFE
7E0001FFFE
FF8001FFFE
FFC001FFFC
FFF003FFFC
FFFFFFFFFC
FFFFFFFFFC
FFFFFFFFFC
FFFFFFFFF8
FFFFFFFFF8
FFFFFFFFF0
7FFFFFFFE0
3FFFFFFFE0
1FFFFFFFC0
0FFFFFFF80
03FFFFFE00
00FFFFFC00
001FFFE000
0003FE0000
0003FE0000
0003FE0000
0003FE0000
0003FE0000
0001FE0000
0001FE0000
00007E0000
0000080000
ENDCHAR
STARTCHAR 0025
ENCODING 37
SWIDTH 780 0
DWIDTH 65 0
BBX 58 61 4 -1
BITMAP
007FC00000000000
01FFF000003F0000
07FFFC00007F0000
0FFFFC0000FF0000
1FFFFE0000FF0000
3FFFFE0001FF0000
7FFFFF0001FF0000
7FE1FF0003FE0000
7FC1FF0007FE0000
FF80FF0007FC0000
FF80FF000FFC0000
FF00FF001FF80000
FF00FF001FF00000
FF00FF003FF00000
FF00FF003FE00000
FF01FF007FE00000
FF01FF00FFC00000
FF81FF00FF800000
FF83FE01FF800000
FFC7FE03FF000000
FFFFFC03FE000000
7FFFFC07FE000000
7FFFF80FFC000000
3FFFF00FFC000000
1FFFE01FF8000000
0FFF801FF0000000
03FE003FF0000000
0000007FE0000000
0000007FC0000000
000000FFC0000000
000000FF80000000
000001FF80000000
000003FF00000000
000003FE001FE000
000007FE00FFF800
00000FFC03FFFE00
00000FF807FFFF00
00001FF80FFFFF00
00001FF01FFFFF80
00003FF01FFFFF80
00007FE03FF0FF80
00007FC03FE07FC0
0000FFC03FE07FC0
0001FF807FC07FC0
0001FF007FC07FC0
0003FF007FC07FC0
0003FE007FC07FC0
0007FE007FC07FC0
000FFC007F807F80
000FF8007FC07F80
001FF8007FC0FF80
001FF0007FC0FF80
003FE0007FC1FF00
007FE0007FE3FF00
007FC0003FFFFF00
007FC0003FFFFE00
00FF80001FFFFC00
00FF00001FFFF800
00FF00000FFFF000
00FE000007FFE000
007C000000FF0000
ENDCHAR
STARTCHAR 0026
ENCODING 38
SWIDTH 672 0
DWIDTH 56 0
BBX 54 61 2 -1
BITMAP
000003FF800000
00003FFFF80000
0001FFFFFE0000
0007FFFFFF0000
000FFFFFFF8000
001FFFFFFFC000
003FFFFFFFE000
007FFFFFFFE000
00FFFFFFFFE000
01FFFFFFFFF000
01FFFFFFFFF000
03FFFFFFFFF000
03FFFE0FFFF000
03FFFC03FFE000
07FFF803FFE000
07FFF001FFE000
07FFE001FFC000
07FFE001FF8000
07FFE001FF0000
07FFE000F00000
07FFE000000000
03FFE000000000
03FFE000000000
01FFF000000000
01FFF800000000
00FFFC00000000
00FFFFFFFFFFFC
007FFFFFFFFFFC
003FFFFFFFFFFC
00FFFFFFFFFFFC
01FFFFFFFFFFFC
03FFFFFFFFFFFC
07FFFFFFFFFFF8
0FFFFFFFFFFFF8
1FFFFFFFFFFFE0
3FFFE0007FFE00
3FFFC0007FFC00
7FFF80007FFC00
7FFF00007FFC00
7FFF0000FFFC00
FFFF0000FFFC00
FFFE0000FFFC00
FFFE0001FFF800
FFFF0001FFF800
FFFF0003FFF800
FFFF0003FFF000
FFFF8007FFF000
FFFFC00FFFF000
FFFFF03FFFE000
7FFFFFFFFFE000
7FFFFFFFFFC000
7FFFFFFFFF8000
3FFFFFFFFF8000
3FFFFFFFFF0000
1FFFFFFFFE0000
0FFFFFFFFC0000
07FFFFFFF00000
03FFFFFFE00000
00FFFFFF800000
003FFFFC000000
0003FFC0000000
ENDCHAR
STARTCHAR 0027
ENCODING 39
SWIDTH 216 0
DWIDTH 18 0
BBX 12 24 5 38
BITMAP
7FC0
7FE0
7FF0
7FF0
7FF0
7FF0
7FF0
7FF0
7FF0
7FE0
7FE0
7FE0
FFE0
FFE0
FFE0
FFC0
FFC0
FFC0
FFC0
FFC0
FF80
FF80
7F80
3F80
ENDCHAR
STARTCHAR 0028
ENCODING 40
SWIDTH 408 0
DWIDTH 34 0
BBX 34 78 2 -16
BITMAP
000007FC00
00003FFF00
0000FFFF80
0001FFFF80
0003FFFFC0
000FFFFF80
000FFFFF80
001FFFFF80
003FFFFF80
007FFFFF80
00FFFFFF00
00FFFFFF00
01FFFFFF00
01FFFE0E00
03FFF80000
03FFF00000
07FFF00000
07FFE00000
07FFE00000
0FFFC00000
0FFFC00000
0FFF800000
1FFF800000
1FFF800000
1FFF800000
1FFF000000
3FFF000000
3FFF000000
3FFF000000
3FFF000000
3FFE000000
7FFE000000
7FFE000000
7FFE000000
7FFE000000
7FFE000000
7FFE000000
7FFE000000
7FFE000000
7FFE000000
7FFE000000
7FFC000000
7FFC000000
FFFC000000
FFFC000000
FFFC000000
FFFC000000
FFFC000000
FFFC000000
7FFC000000
7FFC000000
7FFC000000
7FFC000000
7FFE000000
7FFE000000
7FFE000000
7FFE000000
7FFE000000
7FFE000000
7FFE000000
3FFE000000
3FFF000000
3FFF000000
3FFF800000
3FFFC38000
1FFFFF8000
1FFFFF8000
1FFFFF8000
0FFFFF8000
0FFFFF8000
07FFFF8000
07FFFF8000
03FFFF8000
01FFFF8000
00FFFF0000
007FFE0000
003FFC0000
0007F00000
ENDCHAR
STARTCHAR 0029
ENCODING 41
SWIDTH 420 0
DWIDTH 35 0
BBX 34 78 -2 -16
BITMAP
0007F80000
001FFE0000
003FFF8000
007FFFC000
007FFFE000
007FFFF000
00FFFFF800
00FFFFF800
00FFFFFC00
00FFFFFC00
00FFFFFE00
00FFFFFE00
00FFFFFE00
0060FFFF00
00007FFF00
00007FFF00
00003FFF00
00003FFF80
00003FFF80
00003FFF80
00001FFF80
00001FFF80
00001FFF80
00001FFFC0
00001FFFC0
00001FFFC0
00001FFFC0
00001FFFC0
00001FFFC0
00001FFFC0
00001FFFC0
00001FFFC0
00001FFFC0
00001FFFC0
00001FFFC0
00001FFFC0
00001FFFC0
00001FFFC0
00001FFFC0
00001FFFC0
00001FFFC0
00001FFF80
00001FFF80
00001FFF80
00003FFF80
00003FFF80
00003FFF80
00003FFF80
00003FFF00
00003FFF00
00003FFF00
00007FFF00
00007FFF00
00007FFE00
00007FFE00
0000FFFE00
0000FFFC00
0000FFFC00
0001FFFC00
0001FFF800
0003FFF800
0003FFF800
0007FFF000
000FFFF000
3C1FFFE000
3FFFFFE000
3FFFFFC000
7FFFFF8000
7FFFFF8000
7FFFFF0000
FFFFFE0000
FFFFFC0000
FFFFF80000
FFFFF00000
FFFFE00000
7FFF800000
7FFE000000
1FF0000000
ENDCHAR
STARTCHAR 002A
ENCODING 42
SWIDTH 468 0
DWIDTH 39 0
BBX 33 34 4 29
BITMAP
00007F0000
0000FF8000
0001FF8000
0003FFC000
0703FF8000
0F83FF8000
1FC3FF8000
3FE3FF0000
3FE3FE0000
3FF3FE0000
7FFBFC1C00
7FFFF87E00
7FFFFBFF00
7FFFFFFF80
3FFFFFFF80
1FFFFFFF80
03FFFFFF80
003FFFFF80
007FFFFF80
01FFF7FF80
0FFFF87F00
1FFFFC0000
7FFFFE0000
7FFDFF0000
FFF9FF8000
7FF9FF8000
7FF1FFC000
3FE1FFC000
1FE1FFC000
0781FF8000
0001FF0000
0001FE0000
0000FC0000
0000F00000
ENDCHAR
STARTCHAR 002B
ENCODING 43
SWIDTH 480 0
DWIDTH 40 0
BBX 36 39 2 9
BITMAP
0003F00000
0003FC0000
0003FE0000
0003FF0000
0003FF0000
0003FF0000
0003FF0000
0007FF0000
0007FF0000
0007FF0000
0007FF0000
0007FF0000
0007FF0000
0007FF0000
1FFFFFFFF0
3FFFFFFFF0
7FFFFFFFF0
7FFFFFFFF0
FFFFFFFFF0
FFFFFFFFF0
FFFFFFFFE0
FFFFFFFFE0
FFFFFFFFC0
FFFFFFFF80
000FFE0000
000FFE0000
000FFE0000
000FFE0000
000FFE0000
000FFE0000
000FFC0000
000FFC0000
000FFC0000
000FFC0000
000FFC0000
000FFC0000
0007FC0000
0003FC0000
0000FC0000
ENDCHAR
STARTCHAR 002C
ENCODING 44
SWIDTH 264 0
DWIDTH 22 0
BBX 15 31 2 -16
BITMAP
07E0
1FF8
3FF8
7FFC
7FFC
FFFC
FFFE
FFFE
FFFE
FFFE
FFFE
FFFE
FFFE
7FFC
7FFC
1FFC
03FC
03FC
07F8
07F8
0FF8
1FF8
3FF0
7FF0
FFE0
FFE0
FFC0
FF80
FF00
7E00
1000
ENDCHAR
STARTCHAR 002D
ENCODING 45
SWIDTH 456 0
DWIDTH 38 0
BBX 30 11 4 18
BITMAP
1FFFFFFC
7FFFFFFC
7FFFFFFC
7FFFFFFC
FFFFFFFC
FFFFFFFC
FFFFFFFC
FFFFFFF8
FFFFFFF8
FFFFFFF0
FFFFFFE0
ENDCHAR
STARTCHAR 002E
ENCODING 46
SWIDTH 252 0
DWIDTH 21 0
BBX 14 16 2 -1
BITMAP
07E0
1FF8
3FF8
7FFC
7FFC
FFFC
FFFC
FFFC
FFFC
FFFC
FFFC
FFF8
FFF8
7FF0
3FE0
1FC0
ENDCHAR
STARTCHAR 002F
ENCODING 47
SWIDTH 324 0
DWIDTH 27 0
BBX 25 61 1 -1
BITMAP
00001000
00007F00
0000FF80
0000FF80
0001FF80
0001FF80
0001FF80
0003FF80
0003FF80
0003FF80
0003FF80
0007FF00
0007FF00
0007FF00
000FFE00
000FFE00
000FFE00
001FFE00
001FFC00
001FFC00
003FFC00
003FF800
003FF800
007FF800
007FF000
007FF000
00FFF000
00FFF000
00FFE000
00FFE000
01FFE000
01FFC000
01FFC000
03FFC000
03FF8000
03FF8000
07FF8000
07FF0000
07FF0000
0FFF0000
0FFF0000
0FFE0000
0FFE0000
1FFE0000
1FFC0000
1FFC0000
3FFC0000
3FF80000
3FF80000
3FF80000
7FF00000
7FF00000
7FF00000
7FE00000
7FE00000
FFE00000
FFE00000
FFC00000
7FC00000
7F800000
3F800000
ENDCHAR
STARTCHAR 0030
ENCODING 48
SWIDTH 660 0
DWIDTH 55 0
BBX 48 61 4 -1
BITMAP
000007FF8000
00007FFFF000
0001FFFFFC00
0007FFFFFF00
000FFFFFFF80
003FFFFFFFC0
007FFFFFFFE0
00FFFFFFFFE0
01FFFFFFFFF0
03FFFFFFFFF8
03FFFFFFFFF8
07FFFFFFFFF8
0FFFFFFFFFFC
0FFFFE0FFFFC
1FFFF807FFFC
1FFFF003FFFE
1FFFE001FFFE
3FFFC001FFFE
3FFFC001FFFE
3FFF8000FFFE
7FFF8000FFFE
7FFF8000FFFE
7FFF0000FFFE
7FFF0000FFFE
FFFF0000FFFF
FFFF0000FFFF
FFFE0000FFFF
FFFE0000FFFF
FFFE0000FFFE
FFFE0000FFFE
FFFE0000FFFE
FFFE0000FFFE
FFFE0000FFFE
FFFE0000FFFE
FFFE0001FFFE
FFFE0001FFFE
FFFE0001FFFE
FFFE0001FFFC
FFFE0001FFFC
FFFE0003FFFC
FFFF0003FFFC
FFFF0003FFF8
FFFF0007FFF8
FFFF0007FFF8
FFFF800FFFF0
7FFF801FFFF0
7FFFC03FFFE0
7FFFF07FFFE0
3FFFFFFFFFE0
3FFFFFFFFFC0
3FFFFFFFFF80
1FFFFFFFFF80
1FFFFFFFFF00
0FFFFFFFFE00
07FFFFFFFC00
03FFFFFFF800
01FFFFFFF000
00FFFFFFC000
003FFFFF0000
000FFFFC0000
0001FFE00000
ENDCHAR
STARTCHAR 0031
ENCODING 49
SWIDTH 384 0
DWIDTH 32 0
BBX 26 60 2 0
BITMAP
001FF800
003FFE00
00FFFF00
01FFFF80
07FFFF80
0FFFFFC0
3FFFFFC0
7FFFFFC0
FFFFFFC0
FFFFFFC0
FFFFFFC0
7FFFFFC0
7FFFFFC0
3FFFFFC0
3FFFFFC0
1FDFFF80
073FFF80
003FFF80
003FFF80
003FFF80
003FFF80
003FFF80
003FFF80
003FFF80
003FFF80
003FFF80
003FFF80
003FFF80
007FFF80
007FFF80
007FFF00
007FFF00
007FFF00
007FFF00
007FFF00
007FFF00
007FFF00
007FFF00
007FFF00
007FFF00
007FFF00
007FFF00
00FFFF00
00FFFF00
00FFFF00
00FFFE00
00FFFE00
00FFFE00
00FFFE00
00FFFE00
00FFFE00
00FFFE00
00FFFE00
00FFFE00
00FFFE00
00FFFE00
007FFE00
007FFE00
003FFE00
000FFC00
ENDCHAR
STARTCHAR 0032
ENCODING 50
SWIDTH 576 0
DWIDTH 48 0
BBX 43 60 2 0
BITMAP
00001FFC0000
0001FFFFC000
000FFFFFF000
003FFFFFFC00
007FFFFFFE00
00FFFFFFFF00
01FFFFFFFF80
03FFFFFFFF80
07FFFFFFFFC0
07FFFFFFFFC0
0FFFFFFFFFE0
0FFFFFFFFFE0
0FFFF07FFFE0
1FFFC01FFFE0
1FFFC01FFFE0
1FFF800FFFE0
1FFF800FFFE0
1FFF000FFFE0
1FFF000FFFE0
0FFF000FFFE0
0FFE001FFFE0
07FE001FFFE0
07FE003FFFC0
01FE003FFFC0
003C007FFFC0
000000FFFF80
000001FFFF80
000003FFFF00
000007FFFF00
00000FFFFE00
00001FFFFC00
00003FFFFC00
00007FFFF800
0000FFFFF000
0001FFFFE000
0007FFFFE000
000FFFFFC000
001FFFFF8000
003FFFFF0000
00FFFFFE0000
01FFFFFC0000
03FFFFF00000
07FFFFE00000
0FFFFFC00000
1FFFFF800000
3FFFFF000000
7FFFFC000000
FFFFF8000000
FFFFF0000000
FFFFFFFFFF80
FFFFFFFFFFC0
FFFFFFFFFF80
FFFFFFFFFF80
FFFFFFFFFF80
FFFFFFFFFF80
FFFFFFFFFF80
FFFFFFFFFF80
7FFFFFFFFF80
3FFFFFFFFF00
1FFFFFFFFC00
ENDCHAR
STARTCHAR 0033
ENCODING 51
SWIDTH 564 0
DWIDTH 47 0
BBX 42 61 1 -1
BITMAP
00003FFC0000
0003FFFFC000
000FFFFFF000
003FFFFFF800
00FFFFFFFE00
01FFFFFFFF00
01FFFFFFFF00
03FFFFFFFF80
03FFFFFFFF80
03FFFFFFFFC0
07FFFFFFFFC0
03FFFFFFFFC0
03FFF03FFFC0
03FFC01FFFC0
01FF800FFFC0
00FF000FFFC0
0017000FFFC0
0000000FFFC0
0000000FFFC0
0000000FFFC0
0000000FFF80
0000001FFF80
0000003FFF00
0000007FFE00
000FFFFFFE00
003FFFFFF800
007FFFFFF000
007FFFFFE000
007FFFFFF000
00FFFFFFFC00
00FFFFFFFE00
00FFFFFFFF00
00FFFFFFFF80
00FFFFFFFF80
000000FFFF80
0000007FFFC0
0000003FFFC0
0000003FFFC0
0000001FFFC0
0000001FFFC0
0000001FFFC0
0000003FFFC0
0000003FFFC0
03E0003FFFC0
1FF0007FFF80
3FF000FFFF80
7FF801FFFF80
FFFE07FFFF00
FFFFFFFFFF00
FFFFFFFFFE00
FFFFFFFFFE00
FFFFFFFFFC00
FFFFFFFFF800
FFFFFFFFF000
FFFFFFFFE000
7FFFFFFFC000
3FFFFFFF0000
1FFFFFFE0000
0FFFFFF80000
03FFFFC00000
007FFC000000
ENDCHAR
STARTCHAR 0034
ENCODING 52
SWIDTH 600 0
DWIDTH 50 0
BBX 43 60 2 0
BITMAP
00FF8007FE00
00FFE007FF80
00FFF007FFC0
00FFF007FFE0
00FFF807FFE0
00FFF807FFE0
01FFF807FFE0
01FFF807FFE0
01FFF807FFE0
01FFF807FFE0
01FFF807FFE0
01FFF807FFE0
03FFF807FFE0
03FFF00FFFE0
03FFF00FFFE0
03FFF00FFFE0
07FFF00FFFE0
07FFF00FFFE0
07FFE00FFFE0
07FFE00FFFE0
0FFFE00FFFE0
0FFFE00FFFE0
0FFFC00FFFE0
1FFFC00FFFE0
1FFFC00FFFE0
1FFFC00FFFE0
1FFFC00FFFE0
3FFF801FFFC0
3FFF801FFFC0
3FFF801FFFC0
7FFF001FFFC0
7FFF001FFFC0
7FFF001FFFC0
7FFFFFFFFFC0
FFFFFFFFFFC0
FFFFFFFFFFC0
FFFFFFFFFFC0
FFFFFFFFFFC0
FFFFFFFFFFC0
FFFFFFFFFFC0
FFFFFFFFFFC0
FFFFFFFFFFC0
7FFFFFFFFF80
1FFFFFFFFF80
0000003FFF80
0000003FFF80
0000003FFF80
0000003FFF80
0000003FFF80
0000003FFF80
0000003FFF80
0000003FFF80
0000003FFF80
0000003FFF80
0000003FFF80
0000003FFF80
0000003FFF00
0000001FFF00
0000000FFF00
00000003FF00
ENDCHAR
STARTCHAR 0035
ENCODING 53
SWIDTH 564 0
DWIDTH 47 0
BBX 41 60 2 -1
BITMAP
01FFFFFFFF80
01FFFFFFFF80
01FFFFFFFF80
03FFFFFFFF80
03FFFFFFFF80
03FFFFFFFF80
03FFFFFFFF80
03FFFFFFFF80
03FFFFFFFF00
03FFFFFFFE00
07FFFFFFFC00
07FFE0000000
07FFE0000000
07FFE0000000
07FFE0000000
07FFE0000000
07FFE0000000
07FFE0000000
0FFFE0000000
0FFFC0000000
0FFFC0000000
0FFFC0000000
0FFFCFFF0000
0FFFFFFFC000
0FFFFFFFE000
0FFFFFFFF800
0FFFFFFFFC00
0FFFFFFFFC00
0FFFFFFFFE00
0FFFFFFFFF00
0FFFFFFFFF00
0FFFE07FFF00
0FFFC03FFF80
07FF801FFF80
01FF801FFF80
0000001FFF80
0000001FFF80
0000001FFF80
0000001FFF80
0000001FFF80
0000001FFF80
0000001FFF80
03E0003FFF80
1FE0003FFF80
3FF0007FFF80
7FF800FFFF00
FFFE03FFFF00
FFFFFFFFFF00
FFFFFFFFFE00
FFFFFFFFFE00
FFFFFFFFFC00
FFFFFFFFF800
FFFFFFFFF000
7FFFFFFFF000
3FFFFFFFC000
3FFFFFFF8000
0FFFFFFF0000
03FFFFFC0000
00FFFFF00000
000FFF000000
ENDCHAR
STARTCHAR 0036
ENCODING 54
SWIDTH 612 0
DWIDTH 51 0
BBX 44 61 4 -1
BITMAP
000007FF8000
00007FFFF800
0001FFFFFE00
0007FFFFFF00
000FFFFFFFC0
003FFFFFFFC0
007FFFFFFFE0
00FFFFFFFFE0
01FFFFFFFFF0
03FFFFFFFFF0
03FFFFFFFFF0
07FFFFFFFFF0
07FFFFFFFFE0
0FFFFE03FFE0
0FFFF801FFC0
1FFFF000FFC0
1FFFE000FF00
3FFFC000F800
3FFFC0000000
3FFF80000000
7FFF80000000
7FFF00000000
7FFF007F0000
7FFF03FFF000
7FFF0FFFFC00
FFFE1FFFFE00
FFFE3FFFFF00
FFFE7FFFFF80
FFFEFFFFFFC0
FFFFFFFFFFC0
FFFFFFFFFFE0
FFFFFFFFFFE0
FFFFF87FFFE0
FFFFE01FFFF0
FFFFC00FFFF0
FFFF800FFFF0
FFFF000FFFF0
FFFF0007FFF0
FFFF000FFFF0
FFFF000FFFF0
FFFE000FFFF0
FFFE000FFFF0
FFFE000FFFF0
FFFE001FFFE0
FFFF001FFFE0
FFFF003FFFE0
FFFF807FFFE0
7FFFC1FFFFC0
7FFFFFFFFFC0
7FFFFFFFFF80
3FFFFFFFFF80
3FFFFFFFFF00
1FFFFFFFFE00
1FFFFFFFFC00
0FFFFFFFFC00
07FFFFFFF000
03FFFFFFE000
01FFFFFF8000
00FFFFFF0000
003FFFF80000
0003FF800000
ENDCHAR
STARTCHAR 0037
ENCODING 55
SWIDTH 492 0
DWIDTH 41 0
BBX 39 59 3 0
BITMAP
0FFFFFFFFE
3FFFFFFFFE
3FFFFFFFFE
7FFFFFFFFE
7FFFFFFFFE
7FFFFFFFFE
7FFFFFFFFE
7FFFFFFFFC
7FFFFFFFFC
7FFFFFFFFC
7FFFFFFFF8
000007FFF8
000007FFF0
00000FFFF0
00000FFFE0
00001FFFE0
00001FFFC0
00003FFFC0
00003FFF80
00007FFF80
00007FFF00
0000FFFF00
0000FFFE00
0001FFFE00
0001FFFC00
0003FFFC00
0003FFF800
0007FFF800
0007FFF000
000FFFF000
000FFFE000
001FFFE000
003FFFC000
003FFFC000
007FFF8000
007FFF8000
00FFFF0000
00FFFF0000
01FFFE0000
01FFFE0000
03FFFC0000
03FFFC0000
07FFF80000
07FFF80000
0FFFF00000
0FFFF00000
1FFFF00000
1FFFE00000
3FFFE00000
3FFFC00000
7FFFC00000
7FFF800000
7FFF800000
FFFF000000
FFFF000000
7FFE000000
7FFE000000
1FFE000000
07FC000000
ENDCHAR
STARTCHAR 0038
ENCODING 56
SWIDTH 600 0
DWIDTH 50 0
BBX 43 61 3 -1
BITMAP
00001FFE0000
0001FFFFC000
0007FFFFF000
001FFFFFFC00
003FFFFFFE00
00FFFFFFFF00
01FFFFFFFF80
01FFFFFFFF80
03FFFFFFFFC0
07FFFFFFFFC0
07FFFFFFFFC0
0FFFFC3FFFE0
0FFFF80FFFE0
0FFFF00FFFE0
1FFFE007FFE0
1FFFE007FFE0
1FFFE007FFE0
1FFFC007FFE0
1FFFC007FFC0
1FFFC00FFFC0
1FFFC00FFFC0
1FFFE01FFF80
1FFFE01FFF80
0FFFF07FFF00
0FFFFFFFFE00
07FFFFFFFC00
07FFFFFFF000
03FFFFFFFC00
00FFFFFFFE00
00FFFFFFFF00
03FFFFFFFF80
07FFFFFFFFC0
0FFFF07FFFC0
1FFFC01FFFE0
1FFF801FFFE0
3FFF801FFFE0
7FFF000FFFE0
7FFF000FFFE0
7FFF000FFFE0
FFFF001FFFE0
FFFF001FFFE0
FFFF001FFFE0
FFFF001FFFE0
FFFF001FFFE0
FFFF003FFFE0
FFFF007FFFC0
FFFF807FFFC0
FFFFC1FFFF80
FFFFFFFFFF80
FFFFFFFFFF00
7FFFFFFFFF00
7FFFFFFFFE00
3FFFFFFFFC00
3FFFFFFFFC00
1FFFFFFFF800
0FFFFFFFF000
07FFFFFFC000
03FFFFFF8000
00FFFFFE0000
003FFFF80000
0003FF800000
ENDCHAR
STARTCHAR 0039
ENCODING 57
SWIDTH 600 0
DWIDTH 50 0
BBX 44 61 3 -1
BITMAP
00003FFC0000
0001FFFF8000
000FFFFFE000
001FFFFFF800
007FFFFFFC00
00FFFFFFFE00
01FFFFFFFF00
03FFFFFFFF80
07FFFFFFFF80
0FFFFFFFFFC0
0FFFFFFFFFC0
1FFFFFFFFFE0
1FFFFFFFFFE0
3FFFF83FFFE0
3FFFE01FFFE0
3FFFC00FFFF0
7FFFC00FFFF0
7FFF8007FFF0
7FFF8007FFF0
7FFF8007FFF0
7FFF0007FFF0
7FFF000FFFF0
7FFF000FFFF0
7FFF000FFFF0
7FFF801FFFF0
7FFF801FFFF0
7FFFC03FFFF0
7FFFE0FFFFF0
3FFFFFFFFFF0
3FFFFFFFFFF0
1FFFFFFFFFF0
1FFFFFFFFFF0
0FFFFFF3FFF0
07FFFFE7FFF0
03FFFFC7FFF0
01FFFF87FFF0
007FFE07FFE0
000FF007FFE0
0000000FFFE0
0000000FFFE0
0000000FFFC0
0000001FFFC0
0000001FFFC0
01F0003FFF80
0FF0007FFF80
1FF000FFFF00
3FF803FFFF00
7FF80FFFFF00
7FFFFFFFFE00
FFFFFFFFFC00
FFFFFFFFFC00
FFFFFFFFF800
FFFFFFFFF000
7FFFFFFFE000
7FFFFFFFC000
7FFFFFFF8000
3FFFFFFE0000
1FFFFFFC0000
0FFFFFF00000
03FFFFC00000
007FF8000000
ENDCHAR
STARTCHAR 003A
ENCODING 58
SWIDTH 276 0
DWIDTH 23 0
BBX 16 41 3 -1
BITMAP
01F8
07FE
0FFE
1FFF
1FFF
3FFF
3FFF
3FFF
3FFF
3FFF
3FFF
3FFE
3FFE
1FFC
0FF8
07F0
0000
0000
0000
0000
0000
0000
0000
0000
0000
07E0
1FF8
3FF8
7FFC
7FFC
FFFC
FFFC
FFFC
FFFC
FFFC
FFFC
FFF8
FFF8
7FF0
7FE0
1F80
ENDCHAR
STARTCHAR 003B
ENCODING 59
SWIDTH 276 0
DWIDTH 23 0
BBX 16 56 3 -16
BITMAP
01F8
07FE
0FFE
1FFF
1FFF
3FFF
3FFF
3FFF
3FFF
3FFF
3FFF
3FFE
3FFE
1FFC
1FF8
07E0
0000
0000
0000
0000
0000
0000
0000
0000
0000
07E0
1FF8
3FFC
7FFC
7FFC
FFFE
FFFE
FFFE
FFFE
FFFE
FFFE
FFFE
FFFE
7FFE
7FFC
1FFC
03FC
03FC
07FC
07F8
0FF8
1FF8
3FF0
7FF0
FFE0
FFE0
FFC0
FF80
FF00
7E00
1000
ENDCHAR
STARTCHAR 003C
ENCODING 60
SWIDTH 432 0
DWIDTH 36 0
BBX 31 39 2 10
BITMAP
00000004
0000003E
000000FE
000003FE
00000FFE
00003FFE
0000FFFE
0003FFFE
000FFFFC
001FFFFC
007FFFFC
01FFFFF8
07FFFFE0
0FFFFFC0
3FFFFF00
7FFFFC00
7FFFE000
7FFF8000
7FFC0000
7FF00000
FFF00000
FFFC0000
FFFF0000
FFFFC000
7FFFF000
3FFFFC00
1FFFFF00
0FFFFFC0
03FFFFF0
01FFFFF8
00FFFFF8
003FFFF8
001FFFF0
0007FFF0
0001FFF0
0000FFF0
00003FE0
00000FE0
000003C0
ENDCHAR
STARTCHAR 003D
ENCODING 61
SWIDTH 540 0
DWIDTH 45 0
BBX 37 33 4 8
BITMAP
03FFFFFFF8
0FFFFFFFF8
0FFFFFFFF8
1FFFFFFFF8
1FFFFFFFF8
1FFFFFFFF8
1FFFFFFFF8
1FFFFFFFF0
1FFFFFFFF0
1FFFFFFFF0
1FFFFFFFC0
0000000000
0000000000
0000000000
0000000000
0000000000
0000000000
0000000000
0000000000
0000000000
0000000000
0000000000
1FFFFFFFC0
7FFFFFFFC0
7FFFFFFFC0
FFFFFFFFC0
FFFFFFFFC0
FFFFFFFFC0
FFFFFFFFC0
FFFFFFFF80
FFFFFFFF80
FFFFFFFF00
FFFFFFFE00
ENDCHAR
STARTCHAR 003E
ENCODING 62
SWIDTH 432 0
DWIDTH 36 0
BBX 31 39 3 10
BITMAP
02000000
07C00000
0FF00000
0FFC0000
1FFF0000
1FFF8000
1FFFE000
1FFFF000
1FFFFC00
3FFFFE00
1FFFFF80
0FFFFFC0
03FFFFE0
00FFFFF8
003FFFFC
000FFFFE
0003FFFE
0000FFFE
00003FFE
00001FFE
00003FFE
0000FFFE
0007FFFC
001FFFFC
00FFFFF8
03FFFFF0
0FFFFFE0
1FFFFF80
3FFFFE00
7FFFFC00
7FFFF000
7FFFC000
FFFF0000
FFFC0000
FFF00000
FFC00000
FF000000
FC000000
E0000000
ENDCHAR
STARTCHAR 003F
ENCODING 63
SWIDTH 528 0
DWIDTH 44 0
BBX 39 64 4 -1
BITMAP
0001FFE000
001FFFFC00
007FFFFF00
01FFFFFFC0
07FFFFFFE0
0FFFFFFFF0
1FFFFFFFF8
3FFFFFFFF8
7FFFFFFFFC
7FFFFFFFFC
FFFFFFFFFC
FFFF87FFFE
FFFE01FFFE
FFFC00FFFE
FFF800FFFE
FFF8007FFE
FFF0007FFE
FFF0007FFE
FFF000FFFE
7FF000FFFC
3FE001FFFC
1FE001FFFC
000003FFF8
000007FFF0
00000FFFF0
00001FFFE0
00003FFFC0
00007FFF80
0000FFFF00
0001FFFE00
0003FFFC00
0007FFF800
000FFFF000
000FFFE000
001FFFC000
001FFF8000
001FFF0000
001FFF0000
001FFE0000
001FFC0000
000FFC0000
0007F80000
0000000000
0000000000
0000000000
0000000000
0000000000
0000000000
000FE00000
003FF00000
007FF80000
007FF80000
00FFFC0000
00FFFC0000
00FFFC0000
01FFFC0000
01FFFC0000
01FFFC0000
01FFF80000
00FFF80000
00FFF80000
00FFF00000
007FE00000
001F800000
ENDCHAR
STARTCHAR 0040
ENCODING 64
SWIDTH 792 0
DWIDTH 66 0
BBX 62 61 2 -9
BITMAP
0000000FFFC00000
000001FFFFFC0000
00000FFFFFFF8000
00007FFFFFFFE000
0001FFFFFFFFF800
0003FFFFFFFFFC00
000FFFFFFFFFFE00
001FFFFFFFFFFF00
003FFFFFFFFFFF80
007FFFF000FFFFC0
00FFFF80000FFFE0
01FFFC000003FFE0
03FFF0000001FFF0
03FFE01FC000FFF0
07FFC0FFF3F87FF0
07FF83FFF3FC3FF8
0FFF07FFFBFC1FF8
0FFE0FFFFFFC1FF8
1FFC0FFFFFFC1FF8
1FFC1FFFFFFC0FFC
3FF83FFFFFFC0FFC
3FF83FFC1FFC0FFC
3FF07FF80FFC0FFC
7FF07FF00FFC0FFC
7FF07FE00FFC07FC
7FE07FE00FF807FC
7FE0FFE00FF807FC
7FE0FFC00FF807FC
7FE0FFC00FF80FFC
7FE0FFC00FF80FFC
FFE0FFC00FF80FFC
FFE0FFC00FF80FF8
FFC0FFC01FF80FF8
FFC0FFC01FF80FF8
FFC0FFC01FF01FF8
FFE0FFC03FF81FF0
7FE0FFE07FF83FF0
7FE0FFF0FFF87FE0
7FE07FFFFFFFFFE0
7FE07FFFFFFFFFC0
7FE07FFFFFFFFF80
7FF03FFFDFFFFF00
7FF03FFF9FFFFE00
3FF01FFF0FFFFC00
3FF80FFE07FFF000
3FF803F800FF8000
1FFC000000000000
1FFE000000000000
0FFF000000000000
0FFFC00000000000
07FFF0000F000000
07FFFE007F000000
03FFFFFFFF000000
01FFFFFFFF000000
00FFFFFFFF000000
007FFFFFFE000000
003FFFFFFE000000
000FFFFFFC000000
0003FFFFF8000000
00007FFFF0000000
000007FF80000000
ENDCHAR
STARTCHAR 0041
ENCODING 65
SWIDTH 612 0
DWIDTH 51 0
BBX 50 60 0 0
BITMAP
000003FE000000
00000FFFC00000
00001FFFE00000
00001FFFF00000
00003FFFF80000
00003FFFF80000
00007FFFFC0000
00007FFFFC0000
0000FFFFFC0000
0000FFFFFE0000
0001FFFFFE0000
0001FFFFFE0000
0001FFFFFE0000
0003FFDFFE0000
0003FFDFFF0000
0007FFDFFF0000
0007FFDFFF0000
0007FF9FFF0000
000FFF9FFF8000
000FFF9FFF8000
001FFF0FFF8000
001FFF0FFF8000
001FFF0FFFC000
003FFF0FFFC000
003FFE0FFFC000
007FFE0FFFC000
007FFE07FFE000
007FFE07FFE000
00FFFC07FFE000
00FFFC07FFE000
00FFFC07FFF000
01FFF807FFF000
01FFF803FFF000
03FFF803FFF000
03FFF803FFF800
03FFFFFFFFF800
07FFFFFFFFF800
07FFFFFFFFF800
07FFFFFFFFFC00
0FFFFFFFFFFC00
0FFFFFFFFFFC00
0FFFFFFFFFFC00
1FFFFFFFFFFE00
1FFFFFFFFFFE00
1FFFFFFFFFFE00
3FFFFFFFFFFE00
3FFFFFFFFFFE00
3FFF8000FFFF00
3FFF8000FFFF00
7FFF8000FFFF00
7FFF8000FFFF00
7FFF00007FFF80
7FFF00007FFF80
7FFF00007FFF80
FFFF00007FFF80
7FFE00003FFF80
7FFE00003FFFC0
3FFE00001FFFC0
1FFE00000FFFC0
07FC000001FF80
ENDCHAR
STARTCHAR 0042
ENCODING 66
SWIDTH 600 0
DWIDTH 50 0
BBX 43 61 4 -1
BITMAP
0FFFFFE00000
0FFFFFFF0000
1FFFFFFFE000
1FFFFFFFF800
1FFFFFFFFC00
1FFFFFFFFE00
1FFFFFFFFF00
1FFFFFFFFF80
1FFFFFFFFF80
1FFFFFFFFFC0
1FFFFFFFFFC0
1FFFC07FFFE0
1FFFC01FFFE0
1FFFC00FFFE0
1FFFC007FFE0
1FFFC007FFE0
1FFFC003FFE0
1FFFC003FFE0
1FFF8003FFE0
3FFF8007FFE0
3FFF8007FFC0
3FFF8007FFC0
3FFF801FFFC0
3FFFC07FFF80
3FFFFFFFFF80
3FFFFFFFFF00
3FFFFFFFFE00
3FFFFFFFFC00
3FFFFFFFF000
3FFFFFFFF000
3FFFFFFFFC00
3FFFFFFFFE00
7FFFFFFFFF00
7FFFFFFFFF80
7FFFFFFFFF80
7FFFC0FFFFC0
7FFF003FFFC0
7FFF001FFFC0
7FFF000FFFE0
7FFF000FFFE0
7FFF0007FFE0
7FFF0007FFE0
7FFF0007FFE0
7FFF0007FFE0
7FFF0007FFE0
7FFF000FFFE0
FFFF000FFFE0
FFFF001FFFC0
FFFE003FFFC0
FFFFC0FFFFC0
FFFFFFFFFF80
FFFFFFFFFF80
FFFFFFFFFF00
FFFFFFFFFE00
7FFFFFFFFC00
7FFFFFFFF800
7FFFFFFFF000
3FFFFFFFC000
1FFFFFFF0000
07FFFFF80000
007FFF000000
ENDCHAR
STARTCHAR 0043
ENCODING 67
SWIDTH 612 0
DWIDTH 51 0
BBX 47 61 3 -1
BITMAP
000003FFC000
00003FFFFC00
0000FFFFFF00
0003FFFFFFC0
0007FFFFFFE0
001FFFFFFFF0
003FFFFFFFF8
007FFFFFFFF8
00FFFFFFFFFC
01FFFFFFFFFC
01FFFFFFFFFE
03FFFFFFFFFE
07FFFFFFFFFE
07FFFF03FFFE
0FFFFC01FFFE
0FFFF800FFFE
0FFFF000FFFE
1FFFE000FFFE
1FFFE000FFFE
3FFFC000FFFE
3FFFC000FFFC
3FFFC0007FFC
3FFF80007FF8
7FFF80007FE0
7FFF80007F80
7FFF00000000
7FFF00000000
7FFF00000000
7FFF00000000
FFFF00000000
FFFF00000000
FFFF00000000
FFFF00000000
FFFF00000000
FFFF00000000
FFFF00000000
FFFF00000000
FFFF00000000
FFFF00000000
FFFF00000000
7FFF00000000
7FFF80000000
7FFF800001E0
7FFF800003E0
7FFFC0000FE0
3FFFE0001FE0
3FFFF0007FE0
3FFFFC03FFE0
1FFFFFFFFFE0
1FFFFFFFFFC0
0FFFFFFFFFC0
0FFFFFFFFFC0
07FFFFFFFFC0
03FFFFFFFF80
01FFFFFFFF00
00FFFFFFFE00
007FFFFFFC00
003FFFFFF800
000FFFFFE000
0003FFFF8000
00003FF80000
ENDCHAR
STARTCHAR 0044
ENCODING 68
SWIDTH 660 0
DWIDTH 55 0
BBX 48 61 4 -1
BITMAP
000FFFFE0000
0FFFFFFFE000
0FFFFFFFFC00
0FFFFFFFFF00
1FFFFFFFFF80
1FFFFFFFFFE0
1FFFFFFFFFF0
1FFFFFFFFFF0
1FFFFFFFFFF8
1FFFFFFFFFFC
1FFFFFFFFFFC
1FFFFFFFFFFC
1FFFFFFFFFFE
1FFF801FFFFE
1FFF8007FFFE
1FFF8003FFFF
1FFF8001FFFF
1FFF8000FFFF
1FFF8000FFFF
1FFF8000FFFF
1FFF80007FFF
3FFF80007FFF
3FFF80007FFF
3FFF80007FFF
3FFF80007FFF
3FFF80007FFF
3FFF80007FFF
3FFF80007FFF
3FFF80007FFF
3FFF00007FFF
3FFF00007FFF
3FFF00007FFF
3FFF00007FFF
3FFF00007FFF
7FFF00007FFF
7FFF00007FFF
7FFF0000FFFE
7FFF0000FFFE
7FFF0000FFFE
7FFF0001FFFE
7FFF0001FFFC
7FFF0003FFFC
7FFF0003FFFC
7FFF0007FFFC
7FFE000FFFF8
7FFE001FFFF8
7FFE003FFFF0
FFFE01FFFFF0
FFFFFFFFFFE0
FFFFFFFFFFC0
FFFFFFFFFFC0
FFFFFFFFFF80
FFFFFFFFFF00
FFFFFFFFFE00
FFFFFFFFFC00
7FFFFFFFF800
7FFFFFFFE000
7FFFFFFFC000
3FFFFFFF0000
0FFFFFF80000
03FFFF800000
ENDCHAR
STARTCHAR 0045
ENCODING 69
SWIDTH 504 0
DWIDTH 42 0
BBX 36 59 4 0
BITMAP
0FFFFFFFF0
0FFFFFFFF0
0FFFFFFFF0
0FFFFFFFE0
0FFFFFFFE0
1FFFFFFFE0
1FFFFFFFE0
1FFFFFFFE0
1FFFFFFFE0
1FFFFFFFC0
1FFFFFFF00
1FFF800000
1FFF800000
1FFF800000
1FFF800000
1FFF800000
1FFF800000
1FFF800000
1FFF800000
3FFF800000
3FFF800000
3FFF800000
3FFF800000
3FFFFFFC00
3FFFFFFC00
3FFFFFFC00
3FFFFFFC00
3FFFFFFC00
3FFFFFF800
3FFFFFF800
3FFFFFF800
3FFFFFF800
7FFFFFF000
7FFFFFE000
7FFF000000
7FFF000000
7FFF000000
7FFF000000
7FFF000000
7FFF000000
7FFF000000
7FFE000000
7FFE000000
7FFE000000
7FFE000000
7FFE000000
FFFE000000
FFFE000000
FFFFFFFFC0
FFFFFFFFE0
FFFFFFFFE0
FFFFFFFFC0
FFFFFFFFC0
FFFFFFFFC0
7FFFFFFFC0
7FFFFFFFC0
3FFFFFFFC0
1FFFFFFF80
07FFFFFE00
ENDCHAR
STARTCHAR 0046
ENCODING 70
SWIDTH 468 0
DWIDTH 39 0
BBX 36 59 4 0
BITMAP
0FFFFFFFF0
0FFFFFFFF0
0FFFFFFFF0
0FFFFFFFE0
0FFFFFFFE0
1FFFFFFFE0
1FFFFFFFE0
1FFFFFFFE0
1FFFFFFFE0
1FFFFFFFC0
1FFFFFFF00
1FFF800000
1FFF800000
1FFF800000
1FFF800000
1FFF800000
1FFF800000
1FFF800000
1FFF800000
3FFF800000
3FFF800000
3FFF800000
3FFF800000
3FFFFFFC00
3FFFFFFC00
3FFFFFFC00
3FFFFFFC00
3FFFFFFC00
3FFFFFF800
3FFFFFF800
3FFFFFF800
3FFFFFF800
7FFFFFF000
7FFFFFE000
7FFF000000
7FFF000000
7FFF000000
7FFF000000
7FFF000000
7FFF000000
7FFF000000
7FFE000000
7FFE000000
7FFE000000
7FFE000000
7FFE000000
FFFE000000
FFFE000000
FFFE000000
FFFE000000
FFFE000000
FFFE000000
FFFE000000
FFFE000000
7FFE000000
7FFE000000
3FFC000000
1FFC000000
07FC000000
ENDCHAR
STARTCHAR 0047
ENCODING 71
SWIDTH 636 0
DWIDTH 53 0
BBX 47 61 3 -1
BITMAP
000001FFE000
00001FFFFE00
0000FFFFFF80
0003FFFFFFE0
0007FFFFFFF0
001FFFFFFFF8
003FFFFFFFFC
007FFFFFFFFC
00FFFFFFFFFE
01FFFFFFFFFE
01FFFFFFFFFE
03FFFFFFFFFE
07FFFFFFFFFE
07FFFF83FFFE
0FFFFC00FFFE
0FFFF800FFFE
0FFFF000FFFE
1FFFF0007FFE
1FFFE0007FFC
3FFFC0007FF8
3FFFC0007FF0
3FFFC0007FC0
3FFF80001800
7FFF80000000
7FFF80000000
7FFF80000000
7FFF00000000
7FFF00000000
7FFF00000000
7FFF00000000
7FFF00000000
FFFF00007FC0
FFFF0000FFF0
FFFF0000FFF0
FFFF0000FFF8
FFFF0000FFF8
FFFF0000FFF8
FFFF0000FFF8
FFFF0001FFF8
7FFF0001FFF8
7FFF0001FFF8
7FFF8001FFF8
7FFF8001FFF8
7FFF8001FFF8
7FFFC003FFF8
7FFFC003FFF8
3FFFE007FFF8
3FFFF81FFFF8
3FFFFFFFFFF8
1FFFFFFFFFF8
1FFFFFFFFFF8
1FFFFFFFFFF8
0FFFFFFFFFF8
0FFFFFFFFFF8
07FFFFFFFFF8
03FFFFFBFFF0
01FFFFF9FFF0
00FFFFF1FFF0
007FFFE0FFF0
001FFF803FF0
0003FC000000
ENDCHAR
STARTCHAR 0048
ENCODING 72
SWIDTH 672 0
DWIDTH 56 0
BBX 48 60 4 0
BITMAP
0FFC00003FF0
0FFF00003FFC
0FFF80003FFE
0FFF80003FFE
0FFFC0007FFE
0FFFC0007FFF
1FFFC0007FFF
1FFFC0007FFF
1FFFC0007FFF
1FFFC0007FFF
1FFFC0007FFF
1FFFC0007FFF
1FFFC0007FFF
1FFFC0007FFF
1FFFC0007FFF
1FFFC0007FFF
1FFFC0007FFF
1FFFC0007FFF
1FFFC000FFFE
3FFFC000FFFE
3FFF8000FFFE
3FFF8000FFFE
3FFF8000FFFE
3FFF8000FFFE
3FFFFFFFFFFE
3FFFFFFFFFFE
3FFFFFFFFFFE
3FFFFFFFFFFE
3FFFFFFFFFFE
3FFFFFFFFFFE
3FFFFFFFFFFE
3FFFFFFFFFFE
3FFFFFFFFFFE
7FFFFFFFFFFC
7FFFFFFFFFFC
7FFFFFFFFFFC
7FFF0001FFFC
7FFF0001FFFC
7FFF0001FFFC
7FFF0001FFFC
7FFF0001FFFC
7FFF0001FFFC
7FFF0001FFFC
7FFF0001FFFC
7FFF0001FFFC
7FFF0003FFFC
7FFF0003FFFC
FFFF0003FFF8
FFFF0003FFF8
FFFE0003FFF8
FFFE0003FFF8
FFFE0003FFF8
FFFE0003FFF8
FFFE0003FFF8
FFFE0003FFF8
7FFE0003FFF8
7FFE0001FFF8
3FFE0001FFF8
1FFE0000FFF8
07FE00001FF0
ENDCHAR
STARTCHAR 0049
ENCODING 73
SWIDTH 312 0
DWIDTH 26 0
BBX 18 60 4 0
BITMAP
0FFC00
0FFF00
0FFF80
0FFF80
0FFFC0
0FFFC0
1FFFC0
1FFFC0
1FFFC0
1FFFC0
1FFFC0
1FFFC0
1FFFC0
1FFFC0
1FFFC0
1FFFC0
1FFFC0
1FFFC0
1FFFC0
3FFF80
3FFF80
3FFF80
3FFF80
3FFF80
3FFF80
3FFF80
3FFF80
3FFF80
3FFF80
3FFF80
3FFF80
3FFF80
3FFF80
7FFF80
7FFF00
7FFF00
7FFF00
7FFF00
7FFF00
7FFF00
7FFF00
7FFF00
7FFF00
7FFF00
7FFF00
7FFF00
7FFF00
FFFF00
FFFF00
FFFE00
FFFE00
FFFE00
FFFE00
FFFE00
FFFE00
7FFE00
7FFE00
3FFE00
1FFE00
07FE00
ENDCHAR
STARTCHAR 004A
ENCODING 74
SWIDTH 480 0
DWIDTH 40 0
BBX 37 61 -1 -1
BITMAP
0000007C00
000000FFE0
000000FFF8
000001FFF8
000001FFF8
000001FFF8
000001FFF8
000001FFF8
000001FFF8
000001FFF8
000001FFF8
000001FFF8
000001FFF8
000001FFF8
000001FFF8
000001FFF8
000001FFF8
000001FFF8
000001FFF8
000003FFF8
000003FFF8
000003FFF8
000003FFF8
000003FFF8
000003FFF8
000003FFF8
000003FFF8
000003FFF0
000003FFF0
000003FFF0
000003FFF0
000003FFF0
000007FFF0
000007FFF0
000007FFF0
000007FFF0
000007FFF0
000007FFE0
000007FFE0
00000FFFE0
00000FFFE0
00400FFFE0
07E00FFFE0
0FE01FFFC0
1FE01FFFC0
3FE03FFFC0
7FF03FFF80
7FF87FFF80
7FFFFFFF80
FFFFFFFF00
FFFFFFFF00
FFFFFFFE00
7FFFFFFE00
7FFFFFFC00
7FFFFFF800
3FFFFFF000
1FFFFFE000
0FFFFFC000
07FFFF8000
01FFFE0000
003FF00000
ENDCHAR
STARTCHAR 004B
ENCODING 75
SWIDTH 624 0
DWIDTH 52 0
BBX 46 61 4 -1
BITMAP
0FFC00000E00
0FFF00001F80
0FFF80003FC0
0FFF80007FC0
0FFFC000FFE0
1FFFC000FFF0
1FFFC001FFF0
1FFFC003FFF8
1FFFC007FFF8
1FFFC007FFFC
1FFFC00FFFFC
1FFFC01FFFF8
1FFFC03FFFF8
1FFFC03FFFF0
1FFFC07FFFF0
1FFFC0FFFFE0
1FFFC1FFFFC0
1FFFC1FFFF80
1FFFC3FFFF00
3FFF87FFFE00
3FFF8FFFFC00
3FFF9FFFF800
3FFF9FFFF000
3FFFBFFFE000
3FFFFFFFC000
3FFFFFFF0000
3FFFFFFE0000
3FFFFFFC0000
3FFFFFF80000
3FFFFFFC0000
3FFFFFFC0000
3FFFFFFE0000
3FFFFFFF0000
7FFFFFFF0000
7FFFFFFF8000
7FFFEFFFC000
7FFF8FFFC000
7FFF0FFFE000
7FFF07FFF000
7FFF07FFF000
7FFF07FFF800
7FFF07FFF800
7FFF03FFFC00
7FFF03FFFE00
7FFF03FFFE00
7FFF01FFFF00
FFFF01FFFF80
FFFF01FFFF80
FFFF00FFFFC0
FFFE00FFFFC0
FFFE007FFFE0
FFFE007FFFF0
FFFE003FFFF0
FFFE003FFFF8
FFFE001FFFFC
7FFE001FFFF8
7FFE000FFFF8
3FFE0007FFF0
1FFE0003FFE0
07FE0001FF80
000000007E00
ENDCHAR
STARTCHAR 004C
ENCODING 76
SWIDTH 444 0
DWIDTH 37 0
BBX 31 60 4 0
BITMAP
07C00000
0FFE0000
0FFF0000
0FFF8000
0FFF8000
0FFFC000
1FFFC000
1FFFC000
1FFFC000
1FFFC000
1FFFC000
1FFFC000
1FFFC000
1FFF8000
1FFF8000
1FFF8000
1FFF8000
1FFF8000
1FFF8000
3FFF8000
3FFF8000
3FFF8000
3FFF8000
3FFF8000
3FFF8000
3FFF8000
3FFF8000
3FFF8000
3FFF0000
3FFF0000
3FFF0000
3FFF0000
3FFF0000
7FFF0000
7FFF0000
7FFF0000
7FFF0000
7FFF0000
7FFF0000
7FFF0000
7FFF0000
7FFF0000
7FFE0000
7FFE0000
7FFE0000
7FFE0000
7FFE0000
FFFE0000
FFFE0000
FFFFFFFE
FFFFFFFE
FFFFFFFE
FFFFFFFE
FFFFFFFE
FFFFFFFE
7FFFFFFE
7FFFFFFE
3FFFFFFC
1FFFFFFC
07FFFFF0
ENDCHAR
STARTCHAR 004D
ENCODING 77
SWIDTH 900 0
DWIDTH 75 0
BBX 67 60 4 0
BITMAP
0FFFF800000FFFFE00
0FFFFE00000FFFFF80
0FFFFF00000FFFFFC0
0FFFFF80001FFFFFE0
0FFFFF80001FFFFFE0
0FFFFFC0001FFFFFE0
1FFFFFC0001FFFFFE0
1FFFFFE0003FFFFFE0
1FFFFFE0003FFFFFE0
1FFFFFE0003FFFFFE0
1FFFFFF0003FFFFFE0
1FFFFFF0007FFFFFE0
1FFFFFF0007FFFFFE0
1FFFFFF0007FFFFFE0
1FFFFFF0007FFFFFE0
1FFFFFF800FFFFFFE0
1FFFFFF800FFF7FFE0
1FFFFFF800FFF7FFE0
1FFFFFF800FFF7FFE0
1FFF7FF801FFE7FFE0
3FFF7FF801FFEFFFE0
3FFF7FFC01FFEFFFE0
3FFF7FFC03FFEFFFE0
3FFE3FFC03FFCFFFE0
3FFE3FFC03FFCFFFC0
3FFE3FFC03FFCFFFC0
3FFE3FFC07FF8FFFC0
3FFE3FFC07FF8FFFC0
3FFE3FFE07FF8FFFC0
3FFE1FFE07FF0FFFC0
3FFE1FFE0FFF0FFFC0
3FFE1FFE0FFF0FFFC0
3FFE1FFE0FFE1FFFC0
7FFE1FFE0FFE1FFFC0
7FFE0FFE1FFE1FFFC0
7FFE0FFF1FFC1FFFC0
7FFE0FFF1FFC1FFFC0
7FFE0FFF3FFC1FFFC0
7FFE0FFF3FF81FFFC0
7FFE07FF3FF81FFFC0
7FFE07FF3FF81FFF80
7FFE07FFFFF81FFF80
7FFE07FFFFF03FFF80
7FFE03FFFFF03FFF80
7FFE03FFFFF03FFF80
7FFE03FFFFE03FFF80
FFFE03FFFFE03FFF80
FFFE03FFFFC03FFF80
FFFE01FFFFC03FFF80
FFFE01FFFFC03FFF80
FFFE01FFFF803FFF80
FFFE01FFFF803FFF80
FFFE00FFFF803FFF80
FFFE00FFFF003FFF00
FFFE00FFFF003FFF00
7FFE00FFFF003FFF00
7FFE007FFE003FFF00
3FFE003FFE001FFF00
1FFE001FFE000FFF00
07FC0007F80003FF00
ENDCHAR
STARTCHAR 004E
ENCODING 78
SWIDTH 684 0
DWIDTH 57 0
BBX 49 60 4 0
BITMAP
0FFF00001FF800
0FFFC0001FFE00
0FFFE0001FFF00
0FFFF0001FFF00
0FFFF8001FFF80
0FFFF8001FFF80
1FFFFC001FFF80
1FFFFC001FFF80
1FFFFC001FFF80
1FFFFE001FFF80
1FFFFE001FFF80
1FFFFE001FFF80
1FFFFF001FFF80
1FFFFF001FFF80
1FFFFF801FFF80
1FFFFF801FFF80
1FFFFF801FFF80
1FFFFFC01FFF80
1FFFFFC01FFF80
1FFFFFE01FFF80
3FFFFFE01FFF80
3FFFFFE01FFF00
3FFFFFF01FFF00
3FFDFFF01FFF00
3FFDFFF81FFF00
3FFDFFF81FFF00
3FFCFFF81FFF00
3FFCFFFC1FFF00
3FFC7FFC1FFF00
3FFC7FFE1FFF00
3FFC3FFE1FFF00
3FFC3FFF1FFF00
3FFC1FFF1FFF00
7FFC1FFF1FFF00
7FFC0FFF9FFF00
7FFC0FFF9FFF00
7FFC07FFDFFE00
7FFC07FFDFFE00
7FFC07FFFFFE00
7FFC03FFFFFE00
7FFC03FFFFFE00
7FFC01FFFFFE00
7FFC01FFFFFE00
7FFC00FFFFFE00
7FFC00FFFFFE00
7FFE007FFFFE00
FFFE007FFFFE00
FFFE003FFFFE00
FFFE003FFFFE00
FFFE001FFFFC00
FFFE001FFFFC00
FFFE000FFFFC00
FFFE000FFFFC00
FFFE000FFFFC00
FFFE0007FFFC00
7FFE0007FFFC00
7FFE0003FFFC00
3FFE0001FFFC00
1FFE0000FFFC00
07FE00003FF800
ENDCHAR
STARTCHAR 004F
ENCODING 79
SWIDTH 708 0
DWIDTH 59 0
BBX 53 61 3 -1
BITMAP
000000FFF80000
00000FFFFF0000
00007FFFFFE000
0001FFFFFFF000
0003FFFFFFFC00
000FFFFFFFFE00
001FFFFFFFFF00
003FFFFFFFFF80
007FFFFFFFFF80
00FFFFFFFFFFC0
01FFFFFFFFFFC0
03FFFFFFFFFFE0
03FFFFFFFFFFE0
07FFFF80FFFFF0
07FFFE003FFFF0
0FFFFC001FFFF0
0FFFF8000FFFF0
1FFFF0000FFFF8
1FFFE00007FFF8
3FFFE00007FFF8
3FFFC00007FFF8
3FFFC00007FFF8
3FFF800003FFF8
7FFF800003FFF8
7FFF800003FFF8
7FFF800003FFF8
7FFF000003FFF8
7FFF000003FFF8
7FFF000003FFF8
7FFF000003FFF8
FFFF000003FFF8
FFFF000007FFF8
FFFF000007FFF8
FFFF000007FFF8
FFFF000007FFF8
FFFF000007FFF0
FFFF000007FFF0
FFFF00000FFFF0
FFFF00000FFFF0
7FFF00001FFFE0
7FFF80001FFFE0
7FFF80001FFFE0
7FFF80003FFFE0
7FFFC0007FFFC0
7FFFC0007FFFC0
3FFFE000FFFF80
3FFFF001FFFF80
3FFFFC07FFFF00
1FFFFFFFFFFF00
1FFFFFFFFFFE00
1FFFFFFFFFFC00
0FFFFFFFFFFC00
07FFFFFFFFF800
07FFFFFFFFF000
03FFFFFFFFE000
01FFFFFFFFC000
00FFFFFFFF0000
003FFFFFFE0000
000FFFFFF80000
0003FFFFC00000
00003FFC000000
ENDCHAR
STARTCHAR 0050
ENCODING 80
SWIDTH 588 0
DWIDTH 49 0
BBX 44 60 4 0
BITMAP
0FFFFFFC0000
0FFFFFFFC000
0FFFFFFFF000
0FFFFFFFFC00
0FFFFFFFFE00
1FFFFFFFFF00
1FFFFFFFFF80
1FFFFFFFFF80
1FFFFFFFFFC0
1FFFFFFFFFC0
1FFFFFFFFFE0
1FFFFFFFFFE0
1FFF803FFFE0
1FFF800FFFE0
1FFF8007FFF0
1FFF8007FFF0
1FFF8007FFF0
1FFF8003FFF0
1FFF8003FFF0
1FFF8003FFF0
1FFF8003FFF0
3FFF8003FFF0
3FFF8003FFF0
3FFF8007FFF0
3FFF8007FFE0
3FFF0007FFE0
3FFF0007FFE0
3FFF000FFFE0
3FFF000FFFE0
3FFF001FFFC0
3FFF003FFFC0
3FFF007FFF80
3FFF81FFFF80
7FFFFFFFFF00
7FFFFFFFFF00
7FFFFFFFFE00
7FFFFFFFFC00
7FFFFFFFFC00
7FFFFFFFF800
7FFFFFFFE000
7FFFFFFFC000
7FFFFFFF0000
7FFFFFFC0000
7FFEFFE00000
7FFE00000000
7FFE00000000
FFFE00000000
FFFE00000000
FFFE00000000
FFFE00000000
FFFE00000000
FFFE00000000
FFFC00000000
FFFC00000000
FFFC00000000
7FFC00000000
7FFC00000000
3FFC00000000
1FFC00000000
07FC00000000
ENDCHAR
STARTCHAR 0051
ENCODING 81
SWIDTH 684 0
DWIDTH 57 0
BBX 51 76 3 -16
BITMAP
000001FFE00000
00001FFFFC0000
0000FFFFFF8000
0003FFFFFFC000
0007FFFFFFF000
000FFFFFFFF800
003FFFFFFFFC00
007FFFFFFFFC00
00FFFFFFFFFE00
01FFFFFFFFFF00
01FFFFFFFFFF00
03FFFFFFFFFF80
07FFFFFFFFFF80
07FFFF03FFFF80
0FFFFC00FFFFC0
0FFFF8007FFFC0
1FFFF0003FFFC0
1FFFE0003FFFC0
1FFFE0003FFFC0
3FFFC0001FFFC0
3FFFC0001FFFE0
3FFFC0001FFFE0
3FFF80001FFFE0
7FFF80001FFFE0
7FFF80001FFFE0
7FFF00001FFFE0
7FFF00001FFFE0
7FFF00001FFFE0
7FFF00001FFFE0
FFFF00001FFFE0
FFFF00001FFFE0
FFFF00001FFFC0
FFFF00001FFFC0
FFFF00001FFFC0
FFFF00001FFFC0
FFFF00003FFFC0
FFFF00003FFFC0
FFFF00003FFFC0
FFFF00003FFF80
7FFF00007FFF80
7FFF00007FFF80
7FFF8000FFFF00
7FFF8000FFFF00
7FFFC001FFFF00
7FFFC001FFFE00
3FFFE003FFFE00
3FFFF007FFFC00
3FFFFC3FFFFC00
1FFFFFFFFFF800
1FFFFFFFFFF800
1FFFFFFFFFF000
0FFFFFFFFFE000
07FFFFFFFFC000
07FFFFFFFFC000
03FFFFFFFF8000
01FFFFFFFF0000
00FFFFFFFC0000
003FFFFFF80000
001FFFFFE00000
0003FFFF000000
00001FFF800000
00001FFFC00000
00000FFFE00000
00000FFFF00000
00000FFFFC0000
000007FFFE0000
000007FFFF0000
000007FFFF8000
000003FFFFC000
000003FFFFC000
000001FFFFC000
000000FFFF8000
0000007FFF8000
0000003FFE0000
0000001FFC0000
00000007F00000
ENDCHAR
STARTCHAR 0052
ENCODING 82
SWIDTH 612 0
DWIDTH 51 0
BBX 44 61 4 -1
BITMAP
0FFFFFFC0000
0FFFFFFFC000
0FFFFFFFF000
1FFFFFFFF800
1FFFFFFFFE00
1FFFFFFFFF00
1FFFFFFFFF00
1FFFFFFFFF80
1FFFFFFFFFC0
1FFFFFFFFFC0
1FFFFFFFFFE0
1FFFFFFFFFE0
1FFFC03FFFE0
1FFF800FFFE0
1FFF8007FFF0
1FFF8007FFF0
1FFF8007FFF0
1FFF8003FFF0
1FFF8003FFF0
3FFF8003FFF0
3FFF8003FFF0
3FFF8003FFF0
3FFF8007FFF0
3FFF8007FFF0
3FFF8007FFE0
3FFF800FFFE0
3FFF801FFFE0
3FFF803FFFC0
3FFF807FFFC0
3FFFFFFFFFC0
3FFFFFFFFF80
3FFFFFFFFF80
3FFFFFFFFF00
7FFFFFFFFE00
7FFFFFFFFC00
7FFFFFFFF800
7FFFFFFFF000
7FFFFFFFC000
7FFFFFFF8000
7FFFFFFFC000
7FFF07FFE000
7FFF07FFE000
7FFF07FFF000
7FFE07FFF800
7FFE03FFFC00
7FFE03FFFC00
FFFE03FFFE00
FFFE01FFFF00
FFFE01FFFF00
FFFE01FFFF80
FFFE00FFFFC0
FFFE00FFFFC0
FFFE00FFFFE0
FFFE007FFFF0
FFFE007FFFF0
7FFE003FFFF0
7FFE001FFFE0
3FFC001FFFC0
1FFC000FFF80
07FC0007FF00
00000001F800
ENDCHAR
STARTCHAR 0053
ENCODING 83
SWIDTH 540 0
DWIDTH 45 0
BBX 39 61 3 -1
BITMAP
00001FF800
0001FFFF80
000FFFFFC0
003FFFFFF0
007FFFFFF8
00FFFFFFF8
01FFFFFFFC
03FFFFFFFC
07FFFFFFFE
0FFFFFFFFE
0FFFFFFFFE
1FFFFFFFFE
1FFFFFFFFE
3FFFE0FFFE
3FFF807FFE
3FFF003FFE
3FFF001FFE
3FFE001FFC
3FFE001FFC
3FFE001FF8
3FFE001FF0
3FFF001FC0
3FFF800000
3FFFC00000
3FFFF00000
3FFFFC0000
1FFFFF0000
1FFFFFE000
0FFFFFF800
0FFFFFFC00
07FFFFFF00
03FFFFFF80
01FFFFFFC0
00FFFFFFE0
007FFFFFF0
001FFFFFF0
0003FFFFF8
0000FFFFF8
00003FFFFC
00000FFFFC
000003FFFC
000003FFFC
780001FFFC
FC0001FFFC
FF0001FFFC
FF8001FFFC
FFE003FFFC
FFF80FFFFC
FFFFFFFFFC
FFFFFFFFF8
FFFFFFFFF8
FFFFFFFFF8
FFFFFFFFF0
FFFFFFFFE0
7FFFFFFFE0
3FFFFFFFC0
1FFFFFFF80
07FFFFFF00
01FFFFFC00
007FFFF000
0007FF8000
ENDCHAR
STARTCHAR 0054
ENCODING 84
SWIDTH 540 0
DWIDTH 45 0
BBX 45 59 2 0
BITMAP
1FFFFFFFFFF8
3FFFFFFFFFF8
7FFFFFFFFFF8
7FFFFFFFFFF8
7FFFFFFFFFF0
7FFFFFFFFFF0
7FFFFFFFFFF0
7FFFFFFFFFF0
7FFFFFFFFFF0
FFFFFFFFFFE0
7FFFFFFFFFC0
0001FFF80000
0001FFF80000
0003FFF80000
0003FFF80000
0003FFF80000
0003FFF80000
0003FFF80000
0003FFF80000
0003FFF80000
0003FFF80000
0003FFF00000
0003FFF00000
0003FFF00000
0003FFF00000
0003FFF00000
0003FFF00000
0007FFF00000
0007FFF00000
0007FFF00000
0007FFF00000
0007FFF00000
0007FFF00000
0007FFF00000
0007FFF00000
0007FFE00000
0007FFE00000
0007FFE00000
0007FFE00000
0007FFE00000
000FFFE00000
000FFFE00000
000FFFE00000
000FFFE00000
000FFFE00000
000FFFE00000
000FFFE00000
000FFFE00000
000FFFE00000
000FFFE00000
000FFFC00000
000FFFC00000
000FFFC00000
000FFFC00000
000FFFC00000
0007FFC00000
0007FFC00000
0003FFC00000
0000FFC00000
ENDCHAR
STARTCHAR 0055
ENCODING 85
SWIDTH 660 0
DWIDTH 55 0
BBX 46 61 5 -1
BITMAP
0F8000003E00
1FFC00007FF0
3FFE0000FFF8
3FFF0000FFFC
3FFF0000FFFC
3FFF8000FFFC
3FFF8000FFFC
3FFF8000FFFC
3FFF8000FFFC
3FFF8000FFFC
3FFF8000FFFC
3FFF8000FFFC
3FFF8000FFFC
3FFF8000FFFC
3FFF8000FFFC
7FFF8000FFFC
7FFF8000FFFC
7FFF0000FFFC
7FFF0001FFFC
7FFF0001FFFC
7FFF0001FFFC
7FFF0001FFFC
7FFF0001FFFC
7FFF0001FFFC
7FFF0001FFFC
7FFF0001FFFC
7FFF0001FFFC
FFFF0001FFFC
FFFF0001FFF8
FFFF0001FFF8
FFFF0003FFF8
FFFF0003FFF8
FFFE0003FFF8
FFFE0003FFF8
FFFE0003FFF8
FFFE0003FFF8
FFFE0003FFF8
FFFE0003FFF0
FFFE0007FFF0
FFFE0007FFF0
FFFE0007FFF0
FFFE0007FFF0
FFFF000FFFE0
FFFF000FFFE0
FFFF001FFFE0
FFFF803FFFC0
FFFF807FFFC0
FFFFE0FFFFC0
7FFFFFFFFF80
7FFFFFFFFF80
7FFFFFFFFF00
3FFFFFFFFE00
3FFFFFFFFE00
1FFFFFFFFC00
0FFFFFFFF800
07FFFFFFF000
03FFFFFFE000
01FFFFFF8000
00FFFFFF0000
001FFFF80000
0003FF800000
ENDCHAR
STARTCHAR 0056
ENCODING 86
SWIDTH 624 0
DWIDTH 52 0
BBX 49 60 2 0
BITMAP
0400000001C000
FFF000000FFC00
FFFC00001FFE00
FFFE00001FFF80
FFFF00001FFF80
7FFF00001FFF80
7FFF80003FFF80
7FFF80003FFF80
7FFF80003FFF80
7FFFC0003FFF80
3FFFC0007FFF80
3FFFC0007FFF80
3FFFC0007FFF00
3FFFC0007FFF00
1FFFC000FFFF00
1FFFC000FFFF00
1FFFE000FFFE00
1FFFE000FFFE00
1FFFE001FFFE00
0FFFE001FFFC00
0FFFE001FFFC00
0FFFE001FFFC00
0FFFE003FFF800
07FFF003FFF800
07FFF003FFF800
07FFF003FFF000
07FFF007FFF000
07FFF007FFF000
03FFF007FFE000
03FFF807FFE000
03FFF80FFFE000
03FFF80FFFC000
01FFF80FFFC000
01FFF80FFF8000
01FFF81FFF8000
01FFF81FFF8000
00FFFC1FFF0000
00FFFC3FFF0000
00FFFC3FFF0000
00FFFC3FFE0000
007FFC3FFE0000
007FFC7FFC0000
007FFE7FFC0000
007FFE7FFC0000
007FFEFFF80000
003FFEFFF80000
003FFEFFF00000
003FFEFFF00000
003FFFFFF00000
001FFFFFE00000
001FFFFFE00000
001FFFFFC00000
001FFFFFC00000
000FFFFF800000
000FFFFF800000
0007FFFF800000
0007FFFF000000
0003FFFF000000
0001FFFE000000
0000FFFC000000
ENDCHAR
STARTCHAR 0057
ENCODING 87
SWIDTH 948 0
DWIDTH 79 0
BBX 75 60 3 0
BITMAP
08000000E0000000E000
FFF00007FFE0000FFE00
FFFC000FFFF8000FFF80
FFFE000FFFFC000FFFC0
FFFF000FFFFC000FFFC0
FFFF000FFFFE000FFFE0
FFFF800FFFFE001FFFE0
FFFF800FFFFF001FFFE0
7FFF801FFFFF001FFFE0
7FFF801FFFFF001FFFC0
7FFF801FFFFF001FFFC0
7FFF801FFFFF801FFFC0
7FFFC01FFFFF803FFFC0
3FFFC01FFFFF803FFFC0
3FFFC01FFBFF803FFF80
3FFFC01FFBFF803FFF80
3FFFC03FFBFF803FFF80
1FFFC03FFBFF803FFF80
1FFFC03FFBFFC03FFF80
1FFFC03FFBFFC07FFF00
1FFFC03FF3FFC07FFF00
0FFFC03FF3FFC07FFF00
0FFFE03FF3FFC07FFF00
0FFFE07FF1FFC07FFE00
0FFFE07FF1FFC07FFE00
07FFE07FF1FFC0FFFE00
07FFE07FF1FFC0FFFE00
07FFE07FE1FFC0FFFC00
07FFE07FE1FFE0FFFC00
07FFE07FE1FFE0FFFC00
03FFF0FFE1FFE0FFF800
03FFF0FFE1FFE1FFF800
03FFF0FFE0FFE1FFF800
03FFF0FFE0FFE1FFF800
01FFF0FFC0FFE1FFF000
01FFF0FFC0FFE1FFF000
01FFF1FFC0FFE1FFF000
01FFF1FFC0FFE3FFF000
00FFF1FFC0FFF3FFE000
00FFF9FFC0FFF3FFE000
00FFF9FFC0FFF3FFE000
00FFF9FF807FF3FFC000
007FFBFF807FF7FFC000
007FFBFF807FF7FFC000
007FFBFF807FF7FFC000
007FFBFF807FF7FF8000
003FFBFF807FF7FF8000
003FFFFF007FFFFF8000
003FFFFF007FFFFF0000
003FFFFF007FFFFF0000
001FFFFF003FFFFF0000
001FFFFF003FFFFE0000
001FFFFF003FFFFE0000
001FFFFE003FFFFE0000
000FFFFE003FFFFC0000
000FFFFE001FFFFC0000
0007FFFE001FFFFC0000
0007FFFC000FFFF80000
0003FFFC0007FFF80000
0000FFF80001FFF00000
ENDCHAR
STARTCHAR 0058
ENCODING 88
SWIDTH 636 0
DWIDTH 53 0
BBX 51 61 1 -1
BITMAP
00000000007000
1FFC000000FC00
3FFF800000FE00
1FFFE00001FF00
1FFFF00003FF00
0FFFF80003FF80
0FFFFC0007FFC0
07FFFC000FFFC0
03FFFE000FFFC0
03FFFE001FFFE0
01FFFF003FFFE0
01FFFF003FFFE0
00FFFF007FFFE0
00FFFF80FFFFE0
007FFF80FFFFC0
003FFFC1FFFF80
003FFFC3FFFF80
001FFFE3FFFF00
001FFFE7FFFE00
000FFFFFFFFC00
0007FFFFFFF800
0007FFFFFFF000
0003FFFFFFE000
0003FFFFFF8000
0001FFFFFF0000
0000FFFFFE0000
0000FFFFFC0000
00007FFFF00000
00007FFFE00000
00003FFFC00000
00003FFF800000
00007FFFC00000
0000FFFFC00000
0003FFFFE00000
0007FFFFF00000
000FFFFFF00000
003FFFFFF80000
007FFFFFF80000
00FFFFFFFC0000
01FFFFFFFE0000
03FFFFFFFE0000
07FFFEFFFF0000
0FFFFC7FFF8000
1FFFFC7FFF8000
3FFFF83FFFC000
3FFFF03FFFE000
7FFFF01FFFE000
7FFFE01FFFF000
FFFFC00FFFF000
FFFFC00FFFF800
FFFF8007FFFC00
7FFF8007FFFC00
7FFF0003FFFE00
7FFE0003FFFE00
3FFE0003FFFF00
3FFC0001FFFF00
1FF80000FFFF80
0FF800007FFF80
07F000003FFF80
03E0000003FF00
01C00000000000
ENDCHAR
STARTCHAR 0059
ENCODING 89
SWIDTH 612 0
DWIDTH 51 0
BBX 49 60 2 0
BITMAP
7FC000000FF000
FFF800001FFC00
FFFC00001FFF00
FFFE00003FFF80
FFFF00003FFF80
7FFF00003FFF80
7FFF80007FFF80
7FFF80007FFF80
3FFF80007FFF00
3FFFC000FFFF00
1FFFC000FFFF00
1FFFC000FFFE00
0FFFC001FFFE00
0FFFE001FFFC00
0FFFE001FFFC00
07FFE003FFF800
07FFF003FFF800
03FFF007FFF000
03FFF007FFF000
01FFF807FFE000
01FFF80FFFE000
01FFF80FFFC000
00FFF81FFFC000
00FFFC1FFF8000
007FFC3FFF8000
007FFC3FFF0000
003FFE7FFE0000
003FFE7FFE0000
001FFE7FFC0000
001FFFFFFC0000
001FFFFFF80000
000FFFFFF00000
000FFFFFF00000
0007FFFFE00000
0007FFFFC00000
0003FFFFC00000
0003FFFF800000
0001FFFF000000
0001FFFE000000
0001FFFC000000
0001FFFC000000
0003FFFC000000
0003FFFC000000
0003FFFC000000
0003FFF8000000
0003FFF8000000
0003FFF8000000
0003FFF8000000
0003FFF8000000
0003FFF8000000
0003FFF8000000
0003FFF8000000
0003FFF8000000
0003FFF8000000
0003FFF8000000
0003FFF8000000
0001FFF8000000
0001FFF8000000
0000FFF0000000
00003FF0000000
ENDCHAR
STARTCHAR 005A
ENCODING 90
SWIDTH 552 0
DWIDTH 46 0
BBX 44 59 1 0
BITMAP
01FFFFFFFFF0
03FFFFFFFFF0
07FFFFFFFFF0
07FFFFFFFFF0
07FFFFFFFFF0
07FFFFFFFFF0
07FFFFFFFFE0
07FFFFFFFFE0
07FFFFFFFFE0
07FFFFFFFFC0
07FFFFFFFFC0
000000FFFF80
000000FFFF80
000001FFFF00
000003FFFE00
000003FFFE00
000007FFFC00
000007FFF800
00000FFFF800
00000FFFF000
00001FFFF000
00003FFFE000
00003FFFC000
00007FFFC000
00007FFF8000
0000FFFF8000
0001FFFF0000
0001FFFE0000
0003FFFE0000
0003FFFC0000
0007FFFC0000
000FFFF80000
000FFFF00000
001FFFF00000
001FFFE00000
003FFFE00000
007FFFC00000
007FFF800000
00FFFF800000
01FFFF000000
01FFFE000000
03FFFE000000
07FFFC000000
07FFFC000000
0FFFF8000000
1FFFF0000000
1FFFF0000000
3FFFE0000000
3FFFFFFFFF80
7FFFFFFFFF80
7FFFFFFFFF80
FFFFFFFFFF80
FFFFFFFFFF80
FFFFFFFFFF80
FFFFFFFFFF80
FFFFFFFFFF80
FFFFFFFFFF00
FFFFFFFFFF00
FFFFFFFFFC00
ENDCHAR
STARTCHAR 005B
ENCODING 91
SWIDTH 396 0
DWIDTH 33 0
BBX 31 77 3 -15
BITMAP
07FFFFFE
0FFFFFFE
0FFFFFFE
0FFFFFFE
0FFFFFFE
0FFFFFFE
0FFFFFFC
0FFFFFFC
0FFFFFFC
0FFFFFF8
0FFFFFF0
0FFF8000
0FFF0000
0FFF0000
0FFF0000
0FFF0000
1FFF0000
1FFF0000
1FFF0000
1FFF0000
1FFF0000
1FFF0000
1FFF0000
1FFF0000
1FFF0000
1FFF0000
1FFF0000
1FFF0000
1FFE0000
1FFE0000
3FFE0000
3FFE0000
3FFE0000
3FFE0000
3FFE0000
3FFE0000
3FFE0000
3FFE0000
3FFE0000
3FFE0000
3FFE0000
3FFE0000
3FFE0000
7FFC0000
7FFC0000
7FFC0000
7FFC0000
7FFC0000
7FFC0000
7FFC0000
7FFC0000
7FFC0000
7FFC0000
7FFC0000
7FFC0000
7FFC0000
7FFC0000
FFFC0000
FFF80000
FFF80000
FFF80000
FFF80000
FFF80000
FFF80000
FFF80000
FFF80000
FFFFFFC0
FFFFFFC0
FFFFFFC0
FFFFFFC0
FFFFFFC0
FFFFFFC0
FFFFFFC0
FFFFFF80
7FFFFF80
3FFFFF00
1FFFFE00
ENDCHAR
STARTCHAR 005C
ENCODING 92
SWIDTH 324 0
DWIDTH 27 0
BBX 18 61 5 -1
BITMAP
020000
3F8000
7FC000
FFC000
FFC000
FFC000
FFC000
FFC000
FFE000
FFE000
FFE000
FFE000
FFE000
FFF000
7FF000
7FF000
7FF000
7FF000
7FF000
7FF800
3FF800
3FF800
3FF800
3FF800
3FFC00
3FFC00
1FFC00
1FFC00
1FFC00
1FFC00
1FFE00
0FFE00
0FFE00
0FFE00
0FFE00
0FFE00
0FFF00
07FF00
07FF00
07FF00
07FF00
07FF00
07FF80
03FF80
03FF80
03FF80
03FF80
03FF80
03FF80
01FFC0
01FFC0
01FFC0
01FFC0
01FFC0
01FFC0
01FFC0
00FFC0
00FFC0
00FF80
00FF80
007E00
ENDCHAR
STARTCHAR 005D
ENCODING 93
SWIDTH 396 0
DWIDTH 33 0
BBX 31 77 -1 -15
BITMAP
00FFFFE0
03FFFFF8
03FFFFFC
07FFFFFC
07FFFFFE
07FFFFFE
07FFFFFE
07FFFFFE
07FFFFFE
07FFFFFE
07FFFFFE
00003FFE
00003FFE
00003FFE
00003FFE
00007FFE
00007FFE
00007FFC
00007FFC
00007FFC
00007FFC
00007FFC
00007FFC
00007FFC
00007FFC
00007FFC
00007FFC
00007FFC
00007FFC
00007FFC
0000FFFC
0000FFF8
0000FFF8
0000FFF8
0000FFF8
0000FFF8
0000FFF8
0000FFF8
0000FFF8
0000FFF8
0000FFF8
0000FFF8
0000FFF8
0000FFF8
0000FFF0
0000FFF0
0001FFF0
0001FFF0
0001FFF0
0001FFF0
0001FFF0
0001FFF0
0001FFF0
0001FFF0
0001FFF0
0001FFF0
0001FFF0
0001FFF0
0001FFE0
0001FFE0
0001FFE0
0003FFE0
0003FFE0
0003FFE0
0003FFE0
0003FFE0
1FFFFFE0
7FFFFFE0
7FFFFFE0
7FFFFFE0
FFFFFFE0
FFFFFFE0
FFFFFFE0
FFFFFFC0
FFFFFFC0
FFFFFFC0
FFFFFFC0
ENDCHAR
STARTCHAR 005E
ENCODING 94
SWIDTH 456 0
DWIDTH 38 0
BBX 33 22 2 12
BITMAP
0001FC0000
0007FE0000
000FFF0000
001FFF0000
003FFF8000
003FFFC000
007FFFC000
00FFFFE000
01FFFFE000
03FFBFF000
07FFBFF800
07FF1FF800
0FFE1FFC00
1FFC0FFC00
3FF807FE00
7FF003FE00
7FE003FF00
FFC001FF80
FF8000FF80
FF00007F00
7E00003E00
3800001C00
ENDCHAR
STARTCHAR 005F
ENCODING 95
SWIDTH 528 0
DWIDTH 44 0
BBX 35 11 2 -13
BITMAP
1FFFFFFFE0
3FFFFFFFE0
7FFFFFFFE0
7FFFFFFFE0
FFFFFFFFE0
FFFFFFFFE0
FFFFFFFFE0
FFFFFFFFC0
FFFFFFFFC0
FFFFFFFF80
FFFFFFFF00
ENDCHAR
STARTCHAR 0060
ENCODING 96
SWIDTH 216 0
DWIDTH 18 0
BBX 16 18 1 52
BITMAP
01C0
0FE0
3FE0
7FF0
FFF0
FFF0
FFF8
7FF8
7FFC
3FFC
1FFC
0FFE
0FFE
07FF
03FF
01FE
00FC
0030
ENDCHAR
STARTCHAR 0061
ENCODING 97
SWIDTH 564 0
DWIDTH 47 0
BBX 44 48 1 -1
BITMAP
00007FF80000
0007FFFF8000
001FFFFFE000
007FFFFFF000
00FFFFFFF800
01FFFFFFFC00
03FFFFFFFE00
07FFFFFFFE00
07FFFFFFFF00
0FFFFFFFFF00
0FFFFFFFFF00
0FFFF0FFFF00
0FFF807FFF00
0FFF803FFF80
0FFF003FFF80
07FF001FFF80
07FE001FFF80
03FE001FFF00
007E001FFF00
0000003FFF00
00001FFFFF00
0007FFFFFF00
003FFFFFFF00
00FFFFFFFF00
03FFFFFFFF00
07FFFFFFFF00
0FFFFFFFFF00
1FFFF83FFE00
3FFFC03FFE00
3FFF007FFE00
7FFE007FFE00
7FFE007FFE00
FFFC00FFFE00
FFFC00FFFE00
FFFC01FFFF00
FFFE03FFFF80
FFFF8FFFFFF0
FFFFFFFFFFF0
FFFFFFFFFFF0
FFFFFFFFFFF0
FFFFFFFFFFF0
7FFFFFBFFFE0
7FFFFF3FFFE0
3FFFFE3FFFE0
3FFFFC1FFFC0
0FFFF80FFF80
07FFE007FF00
00FF8003FC00
ENDCHAR
STARTCHAR 0062
ENCODING 98
SWIDTH 600 0
DWIDTH 50 0
BBX 43 63 4 -1
BITMAP
1FE000000000
1FFC00000000
1FFE00000000
1FFE00000000
3FFF00000000
3FFF00000000
3FFF00000000
3FFF00000000
3FFF00000000
3FFF00000000
3FFF00000000
3FFF00000000
3FFF00000000
3FFF00000000
3FFF00000000
3FFF01FF0000
3FFF07FFC000
3FFF1FFFF000
7FFE3FFFF800
7FFE7FFFFC00
7FFEFFFFFE00
7FFEFFFFFF00
7FFFFFFFFF00
7FFFFFFFFF80
7FFFFFFFFF80
7FFFFFFFFFC0
7FFFF0FFFFC0
7FFFC03FFFC0
7FFF801FFFC0
7FFF001FFFE0
7FFE000FFFE0
7FFE000FFFE0
FFFE000FFFE0
FFFC000FFFE0
FFFC000FFFE0
FFFC000FFFE0
FFFC000FFFE0
FFFC000FFFE0
FFFC000FFFE0
FFF8000FFFE0
FFF8000FFFE0
FFF8000FFFC0
FFF8000FFFC0
FFFC000FFFC0
FFFC001FFFC0
FFFC001FFFC0
FFFC001FFF80
FFFC003FFF80
FFFE003FFF80
FFFE007FFF00
FFFF00FFFF00
FFFFC3FFFE00
7FFFFFFFFE00
7FFFFFFFFC00
3FFFFFFFFC00
3FFFFFFFF800
1FFFFFFFF000
1FFFFFFFE000
0FFFFFFFC000
03FFFFFF0000
01FFFFFC0000
007FFFF00000
0007FF000000
ENDCHAR
STARTCHAR 0063
ENCODING 99
SWIDTH 504 0
DWIDTH 42 0
BBX 39 48 2 -1
BITMAP
00003FF800
0003FFFF00
000FFFFFC0
003FFFFFE0
007FFFFFF0
00FFFFFFF8
01FFFFFFFC
03FFFFFFFC
07FFFFFFFC
07FFFFFFFE
0FFFFFFFFE
0FFFF0FFFE
1FFFC07FFE
1FFF807FFE
3FFF803FFE
3FFF003FFC
3FFF003FFC
7FFF003FF8
7FFE003FF0
7FFE003FE0
7FFE003F80
7FFE000000
7FFE000000
7FFE000000
FFFE000000
FFFE000000
FFFE000000
FFFE000000
FFFE000000
FFFE000000
7FFE000000
7FFE000000
7FFE000040
7FFF0001E0
7FFF0003E0
3FFF800FE0
3FFFF07FE0
3FFFFFFFE0
1FFFFFFFE0
1FFFFFFFC0
0FFFFFFFC0
07FFFFFF80
07FFFFFF80
03FFFFFF00
00FFFFFC00
007FFFF800
001FFFE000
0001FF0000
ENDCHAR
STARTCHAR 0064
ENCODING 100
SWIDTH 600 0
DWIDTH 50 0
BBX 46 63 2 -1
BITMAP
000000007F80
00000000FFE0
00000000FFF0
00000000FFF8
00000000FFF8
00000000FFFC
00000000FFFC
00000000FFFC
00000000FFFC
00000000FFFC
00000000FFFC
00000000FFF8
00000001FFF8
00000001FFF8
00000001FFF8
0000FF81FFF8
0007FFF1FFF8
001FFFF9FFF8
003FFFFDFFF8
007FFFFDFFF8
00FFFFFFFFF8
01FFFFFFFFF8
03FFFFFFFFF8
07FFFFFFFFF8
07FFFFFFFFF8
0FFFFFFFFFF0
0FFFF83FFFF0
1FFFF00FFFF0
1FFFC007FFF0
3FFFC007FFF0
3FFF8003FFF0
3FFF8003FFF0
3FFF0003FFF0
7FFF0003FFF0
7FFF0003FFF0
7FFF0003FFF0
7FFF0001FFF0
7FFF0001FFF0
7FFF0003FFF0
7FFF0003FFE0
FFFF0003FFE0
FFFF0003FFE0
FFFF0003FFE0
FFFF0003FFE0
7FFF0003FFE0
7FFF0007FFE0
7FFF0007FFE0
7FFF8007FFE0
7FFF800FFFE0
7FFFC01FFFE0
7FFFE03FFFE0
3FFFF0FFFFE0
3FFFFFFFFFC0
3FFFFFFFFFC0
1FFFFFFFFFC0
1FFFFFFFFFC0
0FFFFFF7FFC0
07FFFFF7FFC0
03FFFFE7FFC0
01FFFFC3FFC0
00FFFF81FFC0
003FFE007FC0
000FF8000000
ENDCHAR
STARTCHAR 0065
ENCODING 101
SWIDTH 528 0
DWIDTH 44 0
BBX 41 48 2 -1
BITMAP
00001FFC0000
0000FFFFC000
0007FFFFE000
000FFFFFF800
003FFFFFFC00
007FFFFFFE00
00FFFFFFFE00
01FFFFFFFF00
03FFFFFFFF00
07FFFFFFFF00
07FFFFFFFF00
0FFFF0FFFF80
0FFFE07FFF80
1FFFC03FFF80
1FFF803FFF00
3FFF803FFF00
3FFF003FFF00
3FFF003FFF00
3FFF007FFF00
7FFE00FFFE00
7FFE01FFFC00
7FFE0FFFFC00
7FFFFFFFF800
7FFFFFFFF000
7FFFFFFFC000
FFFFFFFF8000
FFFFFFFE0000
FFFFFFF00000
FFFFFF000000
FFFE00000000
FFFE00000000
FFFE00000000
7FFE00000000
7FFE00030000
7FFF0007C000
7FFF800FF000
3FFFC01FF000
3FFFF07FF800
3FFFFFFFF800
1FFFFFFFF800
0FFFFFFFF800
0FFFFFFFF000
07FFFFFFF000
03FFFFFFE000
00FFFFFFC000
007FFFFF0000
001FFFFC0000
0001FFC00000
ENDCHAR
STARTCHAR 0066
ENCODING 102
SWIDTH 444 0
DWIDTH 37 0
BBX 41 63 2 0
BITMAP
00000FFF0000
00007FFFE000
0001FFFFF800
0007FFFFFC00
000FFFFFFE00
001FFFFFFF00
003FFFFFFF80
003FFFFFFF80
007FFFFFFF80
007FFFFFFF80
00FFFFFFFF80
00FFFF1FFF80
01FFFE0FFF80
01FFFC07FF80
01FFF807FF00
01FFF807FF00
01FFF807FC00
03FFF007F000
03FFF0000000
03FFF0000000
03FFF0000000
03FFF0000000
03FFE0000000
1FFFFFFC0000
3FFFFFFC0000
7FFFFFFC0000
7FFFFFFC0000
7FFFFFFC0000
FFFFFFFC0000
FFFFFFFC0000
FFFFFFFC0000
FFFFFFF80000
FFFFFFF80000
FFFFFFE00000
07FFE0000000
07FFC0000000
07FFC0000000
07FFC0000000
07FFC0000000
07FFC0000000
0FFFC0000000
0FFFC0000000
0FFFC0000000
0FFFC0000000
0FFFC0000000
0FFFC0000000
0FFFC0000000
0FFFC0000000
0FFF80000000
0FFF80000000
0FFF80000000
0FFF80000000
0FFF80000000
0FFF80000000
0FFF80000000
0FFF80000000
0FFF80000000
0FFF80000000
0FFF80000000
0FFF80000000
07FF00000000
03FF00000000
00FF00000000
ENDCHAR
STARTCHAR 0067
ENCODING 103
SWIDTH 600 0
DWIDTH 50 0
BBX 43 63 3 -16
BITMAP
0001FF000000
001FFFC3FF00
003FFFE3FF80
00FFFFF3FFC0
01FFFFFBFFE0
03FFFFFFFFE0
07FFFFFFFFE0
0FFFFFFFFFE0
0FFFFFFFFFE0
1FFFFFFFFFE0
1FFFFFFFFFE0
3FFFF87FFFE0
3FFFE01FFFE0
7FFFC00FFFE0
7FFF800FFFE0
7FFF0007FFE0
7FFF0007FFE0
FFFE0007FFE0
FFFE0007FFE0
FFFE0007FFE0
FFFE0007FFE0
FFFE0007FFE0
FFFC0007FFE0
FFFC0007FFE0
FFFC0007FFE0
FFFC0007FFE0
FFFC0007FFC0
FFFE000FFFC0
FFFE000FFFC0
FFFE001FFFC0
FFFE003FFFC0
FFFF007FFFC0
FFFFC0FFFFC0
7FFFFFFFFFC0
7FFFFFFFFFC0
7FFFFFFFFFC0
3FFFFFFFFFC0
3FFFFFEFFF80
1FFFFFFFFF80
0FFFFFDFFF80
07FFFF9FFF80
03FFFF1FFF80
01FFFC1FFF80
003FF01FFF80
0000001FFF00
0000001FFF00
0000003FFF00
0700003FFF00
1F80007FFF00
7FC0007FFE00
7FE000FFFE00
FFF001FFFE00
FFFC07FFFC00
FFFFFFFFFC00
FFFFFFFFF800
FFFFFFFFF800
7FFFFFFFF000
7FFFFFFFE000
3FFFFFFFC000
0FFFFFFF0000
07FFFFFC0000
01FFFFF00000
001FFF000000
ENDCHAR
STARTCHAR 0068
ENCODING 104
SWIDTH 600 0
DWIDTH 50 0
BBX 43 62 3 0
BITMAP
0FF800000000
0FFE00000000
0FFF00000000
0FFF80000000
0FFF80000000
0FFF80000000
0FFFC0000000
0FFFC0000000
0FFFC0000000
0FFF80000000
1FFF80000000
1FFF80000000
1FFF80000000
1FFF80000000
1FFF80000000
1FFF807FE000
1FFF83FFFC00
1FFF87FFFE00
1FFF8FFFFF00
1FFF9FFFFF80
1FFFBFFFFFC0
1FFFFFFFFFC0
1FFFFFFFFFC0
1FFFFFFFFFE0
1FFFFFFFFFE0
3FFFFFFFFFE0
3FFFFC3FFFE0
3FFFF00FFFE0
3FFFE007FFE0
3FFFC007FFE0
3FFFC007FFE0
3FFF8003FFE0
3FFF8007FFE0
3FFF0007FFE0
3FFF0007FFE0
3FFF0007FFE0
3FFF0007FFE0
3FFE0007FFE0
7FFE0007FFE0
7FFE0007FFE0
7FFE0007FFE0
7FFE0007FFE0
7FFE0007FFE0
7FFE0007FFE0
7FFE0007FFC0
7FFE000FFFC0
7FFE000FFFC0
7FFE000FFFC0
7FFE000FFFC0
7FFC000FFFC0
FFFC000FFFC0
FFFC000FFFC0
FFFC000FFFC0
FFFC000FFFC0
FFFC000FFFC0
FFFC000FFFC0
FFFC000FFF80
7FFC000FFF80
7FFC000FFF80
3FFC0007FF80
1FFC0003FF80
07F80000FF80
ENDCHAR
STARTCHAR 0069
ENCODING 105
SWIDTH 276 0
DWIDTH 23 0
BBX 19 63 3 0
BITMAP
00FE00
03FF80
07FFC0
0FFFC0
0FFFE0
1FFFE0
1FFFE0
1FFFC0
1FFFC0
1FFFC0
0FFF80
07FF00
03FC00
000000
000000
000000
000000
0FF000
1FFC00
1FFE00
1FFF00
1FFF00
1FFF00
1FFF00
1FFF00
1FFF00
3FFF00
3FFF00
3FFF00
3FFF00
3FFF00
3FFF00
3FFF00
3FFF00
3FFF00
3FFF00
3FFF00
3FFF00
3FFF00
3FFF00
7FFE00
7FFE00
7FFE00
7FFE00
7FFE00
7FFE00
7FFE00
7FFE00
7FFE00
7FFE00
7FFE00
7FFE00
7FFC00
7FFC00
FFFC00
FFFC00
7FFC00
7FFC00
7FFC00
7FFC00
3FFC00
1FFC00
07F800
ENDCHAR
STARTCHAR 006A
ENCODING 106
SWIDTH 276 0
DWIDTH 23 0
BBX 33 80 -12 -16
BITMAP
000003F800
00000FFE00
00001FFF00
00003FFF00
00003FFF80
00007FFF80
00007FFF80
00007FFF00
00007FFF00
00007FFF00
00003FFE00
00001FFC00
00000FF000
0000000000
0000000000
0000000000
0000000000
0000000000
00003FE000
00003FF800
00003FFC00
00003FFE00
00003FFE00
00003FFE00
00003FFE00
00007FFE00
00007FFE00
00007FFE00
00007FFE00
00007FFE00
00007FFE00
00007FFE00
00007FFE00
00007FFE00
00007FFE00
00007FFE00
00007FFE00
00007FFC00
00007FFC00
00007FFC00
00007FFC00
0000FFFC00
0000FFFC00
0000FFFC00
0000FFFC00
0000FFFC00
0000FFFC00
0000FFFC00
0000FFFC00
0000FFFC00
0000FFFC00
0000FFF800
0000FFF800
0000FFF800
0000FFF800
0000FFF800
0000FFF800
0000FFF800
0001FFF800
0001FFF800
0001FFF800
0001FFF800
0001FFF800
0001FFF800
0001FFF000
0001FFF000
0001FFF000
07C3FFF000
3FC3FFF000
7FE3FFE000
FFFFFFE000
FFFFFFE000
FFFFFFC000
FFFFFFC000
FFFFFF8000
7FFFFF0000
7FFFFE0000
1FFFFC0000
07FFF80000
00FFC00000
ENDCHAR
STARTCHAR 006B
ENCODING 107
SWIDTH 540 0
DWIDTH 45 0
BBX 40 63 3 -1
BITMAP
0FF8000000
0FFE000000
0FFF000000
0FFF800000
0FFF800000
0FFF800000
0FFFC00000
0FFFC00000
0FFFC00000
0FFF800000
1FFF800000
1FFF800000
1FFF800000
1FFF800000
1FFF800000
1FFF800380
1FFF8007C0
1FFF800FE0
1FFF801FF0
1FFF803FF0
1FFF807FF8
1FFF80FFF8
1FFF81FFFC
1FFF83FFFC
1FFF0FFFFC
3FFF1FFFFC
3FFF3FFFFC
3FFF7FFFF8
3FFFFFFFF0
3FFFFFFFE0
3FFFFFFF80
3FFFFFFF00
3FFFFFFC00
3FFFFFF000
3FFFFFC000
3FFFFF0000
3FFFFE0000
3FFFFF0000
7FFFFF8000
7FFFFFC000
7FFFFFE000
7FFFFFE000
7FFFFFF000
7FFFFFF800
7FFEFFFC00
7FFEFFFE00
7FFE7FFF00
7FFE7FFF80
7FFE3FFFC0
7FFC3FFFE0
FFFC1FFFF0
FFFC0FFFF8
FFFC0FFFFC
FFFC07FFFE
FFFC03FFFE
FFFC03FFFF
7FFC01FFFF
7FFC00FFFE
7FFC007FFE
3FFC003FFC
1FFC001FF8
07F8000FF0
00000003E0
ENDCHAR
STARTCHAR 006C
ENCODING 108
SWIDTH 300 0
DWIDTH 25 0
BBX 20 63 3 -1
BITMAP
0FF800
0FFE00
0FFF00
0FFF80
0FFF80
0FFF80
0FFF80
0FFFC0
0FFF80
1FFF80
1FFF80
1FFF80
1FFF80
1FFF80
1FFF80
1FFF80
1FFF80
1FFF80
1FFF80
1FFF80
1FFF80
1FFF80
1FFF00
1FFF00
3FFF00
3FFF00
3FFF00
3FFF00
3FFF00
3FFF00
3FFF00
3FFF00
3FFF00
3FFF00
3FFF00
3FFE00
3FFE00
7FFE00
7FFE00
7FFE00
7FFE00
7FFE00
7FFE00
7FFE00
7FFE00
7FFE00
7FFE00
7FFE00
7FFE00
FFFE00
FFFE00
FFFF80
FFFFE0
FFFFF0
7FFFF0
7FFFE0
7FFFE0
7FFFE0
3FFFE0
3FFFC0
1FFF80
0FFF00
03FC00
ENDCHAR
STARTCHAR 006D
ENCODING 109
SWIDTH 900 0
DWIDTH 75 0
BBX 68 47 3 0
BITMAP
0000007FC0001FF000
1FF003FFF800FFFE00
1FFC0FFFFC03FFFF00
1FFE1FFFFE07FFFF80
1FFF3FFFFF0FFFFFC0
1FFF3FFFFF8FFFFFE0
1FFF7FFFFF9FFFFFE0
1FFF7FFFFFBFFFFFE0
3FFFFFFFFFFFFFFFF0
3FFFFFFFFFFFFFFFF0
3FFFFFFFFFFFFFFFF0
3FFFFC7FFFFF1FFFF0
3FFFF01FFFFC07FFF0
3FFFE01FFFF807FFF0
3FFFE00FFFF003FFF0
3FFFC00FFFF003FFF0
3FFFC00FFFE003FFF0
3FFF800FFFE003FFF0
3FFF800FFFE003FFF0
3FFF800FFFC003FFF0
3FFF000FFFC003FFE0
3FFF000FFFC003FFE0
7FFF000FFFC007FFE0
7FFF001FFF8007FFE0
7FFF001FFF8007FFE0
7FFE001FFF8007FFE0
7FFE001FFF8007FFE0
7FFE001FFF8007FFE0
7FFE001FFF8007FFE0
7FFE001FFF8007FFE0
7FFE001FFF8007FFE0
7FFE001FFF8007FFE0
7FFE001FFF0007FFE0
7FFE001FFF000FFFC0
7FFE003FFF000FFFC0
7FFE003FFF000FFFC0
FFFC003FFF000FFFC0
FFFC003FFF000FFFC0
FFFC003FFF000FFFC0
FFFC003FFF000FFFC0
FFFC003FFF000FFFC0
7FFC003FFF000FFFC0
7FFC001FFF000FFFC0
7FFC001FFF0007FFC0
3FFC001FFF0007FFC0
1FFC000FFF0003FFC0
07F80003FE0000FF80
ENDCHAR
STARTCHAR 006E
ENCODING 110
SWIDTH 612 0
DWIDTH 51 0
BBX 44 47 3 0
BITMAP
0000003FF000
1FF001FFFE00
1FFC07FFFF00
1FFE0FFFFF80
1FFF1FFFFFC0
1FFF3FFFFFE0
1FFF7FFFFFE0
1FFF7FFFFFE0
3FFFFFFFFFF0
3FFFFFFFFFF0
3FFFFFFFFFF0
3FFFFE1FFFF0
3FFFF807FFF0
3FFFF003FFF0
3FFFE003FFF0
3FFFC003FFF0
3FFFC003FFF0
3FFF8003FFF0
3FFF8003FFF0
3FFF8003FFF0
3FFF8003FFF0
3FFF0003FFF0
7FFF0003FFF0
7FFF0003FFF0
7FFF0003FFF0
7FFF0003FFF0
7FFE0003FFF0
7FFE0003FFF0
7FFE0003FFE0
7FFE0007FFE0
7FFE0007FFE0
7FFE0007FFE0
7FFE0007FFE0
7FFE0007FFE0
7FFE0007FFE0
7FFC0007FFE0
FFFC0007FFE0
FFFC0007FFE0
FFFC0007FFE0
FFFC0007FFE0
FFFC0007FFC0
7FFC0007FFC0
7FFC0007FFC0
7FFC0007FFC0
3FFC0003FFC0
1FFC0001FFC0
07F800007FC0
ENDCHAR
STARTCHAR 006F
ENCODING 111
SWIDTH 600 0
DWIDTH 50 0
BBX 45 48 2 -1
BITMAP
00001FFE0000
0001FFFFE000
0007FFFFF800
001FFFFFFC00
003FFFFFFF00
00FFFFFFFF80
01FFFFFFFF80
03FFFFFFFFC0
03FFFFFFFFE0
07FFFFFFFFE0
0FFFFFFFFFE0
0FFFF83FFFF0
1FFFE00FFFF0
1FFFC007FFF0
3FFF8003FFF0
3FFF8003FFF8
3FFF0003FFF8
7FFF0003FFF8
7FFE0001FFF8
7FFE0001FFF8
7FFE0001FFF8
7FFE0001FFF8
7FFE0001FFF8
7FFE0003FFF8
FFFE0003FFF8
FFFE0003FFF0
FFFE0003FFF0
FFFE0003FFF0
FFFE0003FFF0
FFFE0007FFF0
7FFE0007FFE0
7FFE000FFFE0
7FFE000FFFE0
7FFF001FFFC0
7FFF003FFFC0
7FFF807FFF80
3FFFE1FFFF80
3FFFFFFFFF00
3FFFFFFFFF00
1FFFFFFFFE00
1FFFFFFFFC00
0FFFFFFFF800
07FFFFFFF000
03FFFFFFE000
01FFFFFFC000
007FFFFF0000
001FFFFC0000
0003FFC00000
ENDCHAR
STARTCHAR 0070
ENCODING 112
SWIDTH 612 0
DWIDTH 51 0
BBX 46 63 2 -16
BITMAP
0000003FE000
0FF801FFFC00
0FFE07FFFE00
0FFF0FFFFF80
0FFF9FFFFFC0
0FFF9FFFFFC0
0FFFFFFFFFE0
0FFFFFFFFFE0
0FFFFFFFFFF0
0FFFFFFFFFF0
0FFFFFFFFFF8
0FFFFE7FFFF8
1FFFF00FFFF8
1FFFE007FFF8
1FFFC007FFF8
1FFFC003FFFC
1FFF8003FFFC
1FFF8003FFFC
1FFF8001FFFC
1FFF0001FFFC
1FFF0001FFFC
1FFF0001FFFC
1FFF0001FFFC
1FFF0001FFFC
1FFF0001FFFC
3FFF0001FFFC
3FFF0001FFF8
3FFF0003FFF8
3FFF0003FFF8
3FFF0003FFF8
3FFF0003FFF8
3FFF8007FFF0
3FFF8007FFF0
3FFF800FFFF0
3FFFC00FFFE0
3FFFE03FFFE0
3FFFF07FFFE0
3FFFFFFFFFC0
7FFFFFFFFFC0
7FFFFFFFFF80
7FFFFFFFFF00
7FFEFFFFFF00
7FFEFFFFFE00
7FFE7FFFFC00
7FFE3FFFF000
7FFE1FFFE000
7FFE0FFF8000
7FFE03FC0000
7FFE00000000
7FFE00000000
7FFE00000000
7FFC00000000
7FFC00000000
FFFC00000000
FFFC00000000
FFFC00000000
FFFC00000000
7FFC00000000
7FFC00000000
7FFC00000000
3FFC00000000
1FFC00000000
07F800000000
ENDCHAR
STARTCHAR 0071
ENCODING 113
SWIDTH 612 0
DWIDTH 51 0
BBX 44 63 3 -16
BITMAP
0001FF000000
000FFFC1FE00
003FFFE3FF80
00FFFFF3FFC0
01FFFFFBFFE0
03FFFFFBFFE0
07FFFFFFFFF0
0FFFFFFFFFF0
0FFFFFFFFFF0
1FFFFFFFFFF0
1FFFFFFFFFF0
3FFFF87FFFF0
3FFFE01FFFF0
3FFFC00FFFE0
7FFF800FFFE0
7FFF0007FFE0
7FFF0007FFE0
FFFE0007FFE0
FFFE0007FFE0
FFFE0007FFE0
FFFE0007FFE0
FFFE0007FFE0
FFFC0007FFE0
FFFC0007FFE0
FFFC0007FFE0
FFFC0007FFC0
FFFC0007FFC0
FFFC0007FFC0
FFFC000FFFC0
FFFC000FFFC0
FFFE000FFFC0
FFFE001FFFC0
FFFE001FFFC0
FFFE003FFFC0
FFFF003FFFC0
FFFF807FFFC0
7FFFE3FFFFC0
7FFFFFFFFFC0
7FFFFFFFFF80
3FFFFFFFFF80
3FFFFFFFFF80
1FFFFFFFFF80
1FFFFFDFFF80
0FFFFF9FFF80
07FFFF1FFF80
03FFFE1FFF80
00FFFC1FFF80
003FE01FFF80
0000001FFF80
0000001FFF80
0000001FFF80
0000001FFF80
0000001FFF80
0000001FFF00
0000003FFF00
0000003FFF00
0000003FFF00
0000001FFF00
0000001FFF00
0000001FFF00
0000000FFF00
00000007FF00
00000001FE00
ENDCHAR
STARTCHAR 0072
ENCODING 114
SWIDTH 480 0
DWIDTH 40 0
BBX 37 47 3 0
BITMAP
000000FE00
0FF003FF80
1FFC07FFC0
1FFE1FFFE0
1FFF3FFFF0
1FFF3FFFF0
1FFF7FFFF0
1FFFFFFFF8
1FFFFFFFF8
1FFFFFFFF8
3FFFFFFFF8
3FFFFFFFF8
3FFFE1FFF0
3FFFC1FFF0
3FFFC0FFF0
3FFF80FFF0
3FFF80FFE0
3FFF00FFC0
3FFF01FF80
3FFF01FF00
3FFF00FC00
3FFF000000
3FFF000000
7FFE000000
7FFE000000
7FFE000000
7FFE000000
7FFE000000
7FFE000000
7FFE000000
7FFE000000
7FFE000000
7FFE000000
7FFE000000
7FFE000000
7FFC000000
7FFC000000
7FFC000000
FFFC000000
FFFC000000
7FFC000000
7FFC000000
7FFC000000
7FFC000000
3FFC000000
1FFC000000
07F8000000
ENDCHAR
STARTCHAR 0073
ENCODING 115
SWIDTH 468 0
DWIDTH 39 0
BBX 35 48 1 -1
BITMAP
0000FFE000
0007FFFC00
003FFFFF00
007FFFFF80
00FFFFFFC0
03FFFFFFC0
03FFFFFFE0
07FFFFFFE0
0FFFFFFFE0
0FFFFFFFE0
1FFFFFFFE0
1FFF83FFE0
1FFF01FFE0
1FFE00FFE0
1FFE00FFC0
1FFE00FFC0
1FFE007F80
1FFF007C00
1FFF800000
1FFFE00000
1FFFF80000
0FFFFF0000
0FFFFFC000
07FFFFF000
03FFFFFC00
03FFFFFE00
00FFFFFF00
007FFFFF00
001FFFFF80
0007FFFFC0
0001FFFFC0
00003FFFC0
00001FFFC0
00000FFFC0
000007FFC0
1E0007FFC0
3F8007FFC0
7FE01FFFC0
FFFFFFFFC0
FFFFFFFF80
FFFFFFFF80
FFFFFFFF00
FFFFFFFF00
7FFFFFFE00
3FFFFFFC00
0FFFFFF000
03FFFFC000
001FFE0000
ENDCHAR
STARTCHAR 0074
ENCODING 116
SWIDTH 396 0
DWIDTH 33 0
BBX 30 60 2 -1
BITMAP
000E0000
001FC000
003FE000
003FF000
007FF000
007FF000
007FF000
00FFF800
00FFF000
00FFF000
01FFF000
01FFF000
01FFF000
1FFFFFFC
3FFFFFFC
7FFFFFFC
7FFFFFFC
7FFFFFFC
FFFFFFFC
FFFFFFFC
FFFFFFFC
FFFFFFF8
FFFFFFF8
FFFFFFE0
07FFE000
07FFE000
07FFE000
07FFE000
07FFE000
07FFE000
07FFE000
07FFE000
07FFE000
07FFC000
07FFC000
07FFC000
0FFFC000
0FFFC000
0FFFC000
0FFFC000
0FFFC000
0FFFC000
0FFFC000
0FFFC000
0FFFC000
0FFFC000
0FFFC000
0FFFC1C0
0FFFE7C0
0FFFFFC0
0FFFFFC0
0FFFFFC0
0FFFFFC0
0FFFFFC0
07FFFFC0
07FFFF80
03FFFF80
01FFFF00
00FFFC00
001FF000
ENDCHAR
STARTCHAR 0075
ENCODING 117
SWIDTH 600 0
DWIDTH 50 0
BBX 42 47 4 -1
BITMAP
3FE00007FC00
3FF80007FF00
3FFC0007FF80
3FFE000FFF80
3FFE000FFFC0
7FFE000FFFC0
7FFE000FFFC0
7FFE000FFFC0
7FFE000FFFC0
7FFE000FFFC0
7FFE000FFFC0
7FFE000FFFC0
7FFE000FFFC0
7FFE000FFFC0
7FFE000FFFC0
7FFE000FFFC0
7FFE000FFF80
7FFC001FFF80
7FFC001FFF80
FFFC001FFF80
FFFC001FFF80
FFFC001FFF80
FFFC001FFF80
FFFC001FFF80
FFFC003FFF80
FFFC003FFF80
FFFC003FFF80
FFFC003FFF80
FFFC007FFF80
FFFC007FFF00
FFFC007FFF00
FFFC00FFFF00
FFFC00FFFF00
FFFE01FFFF00
FFFE03FFFF00
FFFFCFFFFF00
FFFFFFFFFF00
FFFFFFFFFF00
FFFFFFFFFF00
7FFFFFFFFF00
7FFFFFBFFF00
3FFFFF3FFF00
1FFFFE1FFE00
0FFFFC1FFE00
07FFF80FFE00
03FFF003FE00
007F80000000
ENDCHAR
STARTCHAR 0076
ENCODING 118
SWIDTH 552 0
DWIDTH 46 0
BBX 45 46 1 0
BITMAP
7FE00003FF00
FFFC0007FFC0
FFFE0007FFF0
FFFF0007FFF0
7FFF8007FFF8
7FFF8007FFF8
7FFF800FFFF0
3FFFC00FFFF0
3FFFC00FFFF0
3FFFC00FFFF0
3FFFC01FFFE0
1FFFC01FFFE0
1FFFC01FFFE0
1FFFC01FFFC0
0FFFE03FFFC0
0FFFE03FFF80
0FFFE03FFF80
07FFE03FFF80
07FFE03FFF00
07FFE07FFF00
03FFE07FFE00
03FFE07FFE00
03FFF07FFE00
03FFF0FFFC00
01FFF0FFFC00
01FFF0FFF800
01FFF0FFF800
00FFF1FFF000
00FFF1FFF000
00FFF9FFF000
00FFF9FFE000
007FFBFFE000
007FFBFFC000
007FFBFFC000
003FFBFF8000
003FFFFF8000
003FFFFF0000
001FFFFF0000
001FFFFE0000
001FFFFE0000
001FFFFC0000
000FFFFC0000
000FFFF80000
0007FFF80000
0003FFF00000
0001FFE00000
ENDCHAR
STARTCHAR 0077
ENCODING 119
SWIDTH 840 0
DWIDTH 70 0
BBX 68 46 1 0
BITMAP
7FE0001FF80007FE00
FFFC003FFF0007FF80
FFFE003FFFC007FFE0
7FFF007FFFE00FFFE0
7FFF807FFFE00FFFF0
7FFF807FFFE00FFFF0
7FFF807FFFF00FFFF0
3FFF807FFFF00FFFE0
3FFF807FFFF00FFFE0
3FFF80FFFFF01FFFE0
3FFF80FFFFF01FFFE0
1FFFC0FFFFF81FFFC0
1FFFC0FFBFF81FFFC0
1FFFC0FFBFF81FFFC0
1FFFC0FFBFF81FFF80
0FFFC1FFBFF81FFF80
0FFFC1FFBFF83FFF80
0FFFC1FF3FF83FFF00
0FFFC1FF1FF83FFF00
07FFC1FF1FF83FFF00
07FFC3FF1FF83FFE00
07FFC3FF1FF83FFE00
07FFC3FF1FFC7FFC00
03FFC3FE1FFC7FFC00
03FFC3FE1FFC7FFC00
03FFC7FE1FFC7FF800
03FFC7FE1FFC7FF800
01FFE7FE0FFC7FF000
01FFE7FE0FFCFFF000
01FFE7FC0FFCFFF000
01FFEFFC0FFCFFE000
00FFEFFC0FFCFFE000
00FFEFFC0FFCFFC000
00FFEFFC0FFFFFC000
00FFEFFC07FFFFC000
007FFFF807FFFF8000
007FFFF807FFFF8000
007FFFF807FFFF0000
007FFFF807FFFF0000
003FFFF807FFFF0000
003FFFF003FFFE0000
001FFFF003FFFE0000
001FFFF003FFFC0000
000FFFF001FFFC0000
0007FFE000FFFC0000
0001FFE0003FF80000
ENDCHAR
STARTCHAR 0078
ENCODING 120
SWIDTH 552 0
DWIDTH 46 0
BBX 43 48 1 -1
BITMAP
000000001800
1FF800003C00
3FFE00007E00
3FFF8000FF00
1FFFC000FF00
1FFFE001FF80
0FFFE001FF80
0FFFF003FFC0
07FFF803FFC0
03FFF807FFC0
03FFFC0FFFC0
01FFFC0FFFC0
01FFFE1FFFC0
00FFFE1FFFC0
007FFF3FFF80
007FFF7FFF00
003FFFFFFF00
001FFFFFFE00
001FFFFFF800
000FFFFFF000
000FFFFFE000
0007FFFFC000
0007FFFF8000
0003FFFE0000
0003FFFC0000
0007FFFC0000
001FFFFE0000
003FFFFE0000
00FFFFFF0000
01FFFFFF8000
07FFFFFF8000
0FFFFFFFC000
1FFFEFFFE000
3FFFEFFFE000
7FFFC7FFF000
7FFF87FFF800
FFFF03FFF800
FFFE03FFFC00
FFFE01FFFE00
FFFC01FFFE00
FFF800FFFF00
FFF800FFFF80
7FF0007FFF80
7FE0003FFFC0
3FE0001FFFC0
1FC0000FFFE0
0F800001FFC0
030000000000
ENDCHAR
STARTCHAR 0079
ENCODING 121
SWIDTH 612 0
DWIDTH 51 0
BBX 44 63 3 -16
BITMAP
07000000F000
1FF80001FF80
1FFE0003FFC0
1FFE0003FFE0
1FFF0003FFE0
1FFF0003FFF0
3FFF0003FFF0
3FFF0003FFF0
3FFF0003FFF0
3FFF0003FFF0
3FFF0003FFF0
3FFF0003FFF0
3FFF0003FFF0
3FFF0007FFE0
3FFF0007FFE0
3FFF0007FFE0
3FFF0007FFE0
3FFF0007FFE0
3FFE0007FFE0
7FFE0007FFE0
7FFE0007FFE0
7FFE0007FFE0
7FFE000FFFE0
7FFE000FFFE0
7FFE000FFFE0
7FFE000FFFE0
7FFE001FFFE0
7FFE001FFFC0
7FFE003FFFC0
7FFE003FFFC0
7FFF007FFFC0
7FFF00FFFFC0
7FFFC3FFFFC0
7FFFFFFFFFC0
3FFFFFFFFFC0
3FFFFFFFFFC0
3FFFFFFFFFC0
1FFFFFEFFFC0
1FFFFFEFFFC0
0FFFFFCFFFC0
07FFFF8FFF80
03FFFF0FFF80
00FFFC1FFF80
003FE01FFF80
0000001FFF80
0000001FFF80
0000001FFF80
0780003FFF80
3FC0003FFF80
7FC0007FFF00
FFE000FFFF00
FFF001FFFF00
FFFC07FFFE00
FFFFFFFFFE00
FFFFFFFFFC00
FFFFFFFFF800
7FFFFFFFF800
7FFFFFFFF000
1FFFFFFFE000
0FFFFFFF8000
03FFFFFF0000
00FFFFF80000
000FFF800000
ENDCHAR
STARTCHAR 007A
ENCODING 122
SWIDTH 516 0
DWIDTH 43 0
BBX 41 46 0 0
BITMAP
00FFFFFFFF80
01FFFFFFFF80
03FFFFFFFF80
03FFFFFFFF80
03FFFFFFFF80
07FFFFFFFF80
07FFFFFFFF80
07FFFFFFFF00
07FFFFFFFF00
07FFFFFFFE00
07FFFFFFFE00
000007FFFC00
000007FFF800
00000FFFF000
00001FFFE000
00001FFFE000
00003FFFC000
00007FFF8000
0000FFFF0000
0000FFFE0000
0001FFFE0000
0003FFFC0000
0007FFF80000
000FFFF00000
000FFFE00000
001FFFE00000
003FFFC00000
007FFF800000
00FFFF000000
01FFFF000000
01FFFE000000
03FFFC000000
07FFF8000000
0FFFF8000000
1FFFF0000000
3FFFFFFFFC00
3FFFFFFFFE00
7FFFFFFFFC00
7FFFFFFFFC00
7FFFFFFFFC00
FFFFFFFFFC00
FFFFFFFFFC00
FFFFFFFFFC00
FFFFFFFFF800
FFFFFFFFF800
FFFFFFFFE000
ENDCHAR
STARTCHAR 007B
ENCODING 123
SWIDTH 444 0
DWIDTH 37 0
BBX 38 77 0 -15
BITMAP
000001FFF8
00000FFFFC
00003FFFFC
0000FFFFFC
0001FFFFFC
0003FFFFFC
0003FFFFFC
0007FFFFF8
0007FFFFF8
000FFFFFF0
000FFFFFE0
000FFFF800
001FFFE000
001FFFC000
001FFF8000
001FFF0000
001FFF0000
001FFF0000
001FFE0000
001FFE0000
001FFE0000
003FFE0000
003FFE0000
003FFE0000
003FFE0000
003FFC0000
007FFC0000
007FFC0000
007FFC0000
00FFF80000
01FFF80000
03FFF80000
07FFF00000
7FFFF00000
7FFFE00000
7FFFC00000
7FFF800000
7FFE000000
FFFF000000
FFFFC00000
FFFFE00000
FFFFE00000
FFFFF00000
FFFFF00000
0FFFF00000
03FFF80000
01FFF80000
00FFF80000
00FFF80000
00FFF80000
00FFF80000
00FFF80000
007FF80000
007FF80000
007FF80000
007FF80000
00FFF80000
00FFF80000
00FFF80000
00FFF80000
00FFF80000
00FFFC0000
00FFFC0000
00FFFE0000
007FFE0000
007FFF8000
007FFFFF80
007FFFFF80
007FFFFF80
007FFFFF80
003FFFFF80
003FFFFF80
001FFFFF80
000FFFFF80
0007FFFF00
0003FFFF00
00007FFC00
ENDCHAR
STARTCHAR 007C
ENCODING 124
SWIDTH 276 0
DWIDTH 23 0
BBX 17 75 3 -16
BITMAP
07F000
07FC00
0FFE00
0FFF00
0FFF00
0FFF00
0FFF00
0FFF80
0FFF00
0FFF00
0FFF00
0FFF00
0FFF00
0FFF00
0FFF00
1FFF00
1FFF00
1FFF00
1FFF00
1FFF00
1FFF00
1FFF00
1FFF00
1FFF00
1FFE00
1FFE00
1FFE00
1FFE00
3FFE00
3FFE00
3FFE00
3FFE00
3FFE00
3FFE00
3FFE00
3FFE00
3FFE00
3FFC00
3FFC00
3FFC00
3FFC00
3FFC00
7FFC00
7FFC00
7FFC00
7FFC00
7FFC00
7FFC00
7FFC00
7FFC00
7FF800
7FF800
7FF800
7FF800
7FF800
FFF800
FFF800
FFF800
FFF800
FFF800
FFF800
FFF800
FFF800
FFF000
FFF000
FFF000
FFF000
FFF000
FFF000
FFF000
FFF000
FFF000
7FF000
3FF000
0FE000
ENDCHAR
STARTCHAR 007D
ENCODING 125
SWIDTH 444 0
DWIDTH 37 0
BBX 38 77 -1 -15
BITMAP
00FFF80000
03FFFF0000
03FFFF8000
07FFFFC000
07FFFFE000
07FFFFF000
07FFFFF000
07FFFFF000
07FFFFF800
07FFFFF800
07FFFFF800
0007FFF800
0003FFF800
0001FFF800
0000FFF800
0000FFF800
0000FFF800
00007FF800
00007FF800
00007FF800
00007FF800
00007FF800
00007FF800
00007FF800
00007FF800
00007FF800
00007FFC00
00007FFC00
00007FFC00
00007FFC00
00007FFE00
00007FFF00
00007FFFC0
00003FFFFC
00003FFFFC
00001FFFFC
00001FFFFC
00000FFFF8
000007FFF8
000001FFF8
000007FFF8
00000FFFF8
00001FFFF8
00003FFFF8
00003FFF80
00007FFE00
00007FFC00
0000FFFC00
0000FFF800
0000FFF800
0001FFF800
0001FFF000
0001FFF000
0001FFF000
0001FFF000
0001FFE000
0001FFE000
0001FFE000
0003FFE000
0003FFE000
0003FFE000
0003FFE000
0007FFE000
000FFFC000
001FFFC000
007FFFC000
1FFFFFC000
7FFFFFC000
7FFFFF8000
FFFFFF8000
FFFFFF0000
FFFFFE0000
FFFFFE0000
FFFFF80000
FFFFF00000
FFFFC00000
7FFE000000
ENDCHAR
STARTCHAR 007E
ENCODING 126
SWIDTH 600 0
DWIDTH 50 0
BBX 42 15 4 16
BITMAP
00FF80000180
07FFF00003C0
0FFFFE0007C0
1FFFFF800FC0
3FFFFFF03FC0
7FFFFFFFFFC0
7FFFFFFFFFC0
FFFFFFFFFF80
FFFFFFFFFF80
FFFFFFFFFF00
FE07FFFFFF00
FC00FFFFFE00
F8003FFFFC00
F00007FFF000
E00000FF8000
ENDCHAR
STARTCHAR 00A0
ENCODING 160
SWIDTH 216 0
DWIDTH 18 0
BBX 0 0 0 0
BITMAP
ENDCHAR
STARTCHAR 00A1
ENCODING 161
SWIDTH 288 0
DWIDTH 24 0
BBX 20 63 1 -16
BITMAP
001F80
007FC0
00FFE0
01FFF0
03FFF0
03FFF0
03FFF0
03FFF0
03FFF0
03FFF0
03FFF0
03FFE0
03FFE0
03FFC0
01FF80
007E00
000000
000000
000000
000000
000000
000000
03FC00
07FE00
07FF00
07FF00
07FF80
07FF80
0FFF80
0FFF80
0FFF80
0FFF80
0FFF80
1FFF80
1FFF80
1FFF80
1FFF80
1FFF80
3FFF80
3FFF00
3FFF00
3FFF00
3FFF00
3FFF00
7FFF00
7FFF00
7FFF00
7FFF00
7FFF00
FFFF00
FFFF00
FFFE00
FFFE00
FFFE00
FFFE00
FFFE00
FFFE00
FFFE00
FFFE00
FFFE00
7FFE00
3FFE00
0FFE00
ENDCHAR
STARTCHAR 00A2
ENCODING 162
SWIDTH 504 0
DWIDTH 42 0
BBX 39 64 2 -9
BITMAP
00000F0000
00001FC000
00001FE000
00001FE000
00001FE000
00001FF000
00003FF000
00003FF000
00003FF000
0003FFFE00
000FFFFF80
003FFFFFE0
007FFFFFF0
00FFFFFFF8
01FFFFFFF8
03FFFFFFFC
07FFFFFFFC
07FFFFFFFC
0FFFFFFFFC
1FFFE0FFFE
1FFFC07FFE
3FFF807FFE
3FFF007FFC
3FFF003FFC
7FFF003FFC
7FFE003FF8
7FFE003FF0
7FFE003FE0
7FFE003F00
FFFC000000
FFFC000000
FFFC000000
FFFC000000
FFFC000000
FFFC000000
FFFC000000
FFFC000000
FFFC000000
FFFC000000
FFFE000000
FFFE000000
7FFE0001E0
7FFF0003E0
7FFF800FE0
3FFFE03FE0
3FFFFFFFE0
3FFFFFFFC0
1FFFFFFFC0
1FFFFFFFC0
0FFFFFFF80
07FFFFFF00
03FFFFFE00
01FFFFFC00
007FFFF800
001FFFE000
0007FF0000
0003FE0000
0003FE0000
0003FE0000
0003FE0000
0001FE0000
0001FE0000
0000FE0000
00003C0000
ENDCHAR
STARTCHAR 00A3
ENCODING 163
SWIDTH 552 0
DWIDTH 46 0
BBX 44 60 1 0
BITMAP
000001FFE000
00001FFFFC00
00007FFFFF00
0000FFFFFF80
0001FFFFFFC0
0003FFFFFFE0
0007FFFFFFE0
000FFFFFFFF0
000FFFFFFFF0
001FFFFFFFF0
001FFFFFFFF0
003FFFE1FFF0
003FFF81FFF0
003FFF80FFF0
003FFF00FFE0
007FFF00FFC0
007FFE00FF80
007FFE00F800
007FFE000000
007FFE000000
007FFE000000
007FFC000000
007FFC000000
007FFC000000
03FFFFFFE000
0FFFFFFFE000
0FFFFFFFE000
1FFFFFFFE000
1FFFFFFFE000
1FFFFFFFE000
1FFFFFFFE000
1FFFFFFFE000
1FFFFFFFC000
1FFFFFFFC000
1FFFFFFF0000
00FFF8000000
00FFF8000000
00FFF8000000
00FFF8000000
00FFF8000000
00FFF8000000
01FFF8000000
01FFF8000000
01FFF0000000
01FFF0000000
01FFE0000000
03FFE0000000
07FFC0000000
0FFF00000000
1FFFFFFFFF00
7FFFFFFFFF00
7FFFFFFFFF00
7FFFFFFFFF00
7FFFFFFFFF00
7FFFFFFFFF00
FFFFFFFFFE00
FFFFFFFFFE00
FFFFFFFFFE00
FFFFFFFFFC00
FFFFFFFFF800
ENDCHAR
STARTCHAR 00A4
ENCODING 164
SWIDTH 672 0
DWIDTH 56 0
BBX 51 49 3 0
BITMAP
07800000000000
1FE00000000100
3FF00FFF000780
3FF8FFFFF00FC0
3FFFFFFFFC3FC0
1FFFFFFFFF7FE0
0FFFFFFFFFFFE0
0FFFFFFFFFFFE0
07FFFFFFFFFFE0
03FFFFFFFFFFC0
03FFFFFFFFFF80
07FFFFFFFFFF00
07FFFFFFFFFE00
0FFFFC0FFFFC00
0FFFF003FFFC00
1FFFE001FFFC00
1FFFC001FFFC00
1FFF8000FFFC00
3FFF8000FFFC00
3FFF8000FFFC00
3FFF0000FFFC00
3FFF0000FFFC00
3FFF0000FFFC00
3FFF0000FFFC00
3FFF0000FFFC00
3FFF0001FFFC00
3FFF0001FFF800
3FFF0001FFF800
3FFF0003FFF800
3FFF8007FFF800
3FFF800FFFF000
3FFFC01FFFF000
3FFFF07FFFE000
1FFFFFFFFFE000
1FFFFFFFFFC000
1FFFFFFFFFC000
0FFFFFFFFF8000
0FFFFFFFFFC000
1FFFFFFFFFE000
3FFFFFFFFFE000
7FFFFFFFFFF000
7FFFFFFFFFF800
FFFFFFFF3FFC00
FFF1FFF01FFC00
FFC000001FFC00
7F8000000FF800
7F00000007F000
3E000000018000
18000000000000
ENDCHAR
STARTCHAR 00A5
ENCODING 165
SWIDTH 660 0
DWIDTH 55 0
BBX 50 60 4 0
BITMAP
3FE000000FF000
FFF800000FFE00
FFFE00001FFF00
7FFF00001FFF80
7FFF00001FFFC0
7FFF80003FFFC0
3FFF80003FFFC0
3FFFC0003FFF80
1FFFC0007FFF80
1FFFC0007FFF80
1FFFE0007FFF00
0FFFE000FFFF00
0FFFE000FFFE00
07FFE000FFFE00
07FFF001FFFE00
03FFF001FFFC00
03FFF001FFFC00
03FFF803FFF800
01FFF803FFF800
01FFF807FFF000
00FFFC07FFF000
00FFFC0FFFE000
007FFC0FFFE000
007FFE0FFFC000
007FFE1FFF8000
01FFFE1FFFF800
03FFFE3FFFF800
07FFFF3FFFF800
07FFFF7FFFF800
07FFFF7FFFF800
07FFFFFFFFF800
0FFFFFFFFFF800
0FFFFFFFFFF800
0FFFFFFFFFF000
0FFFFFFFFFF000
0FFFFFFFFFC000
0001FFFF800000
0000FFFF800000
0000FFFF000000
0001FFFE000000
0001FFFC000000
07FFFFFFFFE000
0FFFFFFFFFE000
1FFFFFFFFFE000
1FFFFFFFFFE000
3FFFFFFFFFE000
3FFFFFFFFFE000
3FFFFFFFFFE000
3FFFFFFFFFC000
3FFFFFFFFFC000
3FFFFFFFFF8000
3FFFFFFFFF0000
0001FFFC000000
0001FFFC000000
0001FFFC000000
0001FFFC000000
0001FFF8000000
0000FFF8000000
00007FF8000000
00001FF8000000
ENDCHAR
STARTCHAR 00A6
ENCODING 166
SWIDTH 276 0
DWIDTH 23 0
BBX 16 75 3 -16
BITMAP
07F0
0FFC
0FFE
0FFF
0FFF
0FFF
0FFF
0FFF
0FFF
0FFF
0FFF
0FFF
1FFF
1FFF
1FFF
1FFF
1FFF
1FFF
1FFF
1FFF
1FFF
1FFF
1FFF
1FFE
1FFE
1FFE
1FFE
1FFE
1FFE
1FFE
0FFE
07FE
01FC
0000
0000
0000
0000
0000
0000
0000
0000
0000
3F80
7FE0
7FF0
7FF8
7FF8
7FF8
7FF8
7FF8
7FF8
7FF8
7FF8
7FF8
7FF8
FFF8
FFF8
FFF8
FFF8
FFF8
FFF8
FFF8
FFF8
FFF8
FFF0
FFF0
FFF0
FFF0
FFF0
FFF0
FFF0
FFF0
7FF0
3FF0
0FE0
ENDCHAR
STARTCHAR 00A7
ENCODING 167
SWIDTH 516 0
DWIDTH 43 0
BBX 40 70 1 -10
BITMAP
000007FE00
00007FFFC0
0001FFFFF0
0007FFFFF8
000FFFFFFC
001FFFFFFC
003FFFFFFE
007FFFFFFE
00FFFFFFFF
00FFFFFFFF
01FFFFFFFF
01FFFC3FFF
01FFF00FFE
03FFE00FFE
03FFC007FE
03FFC007FC
03FFC007F8
03FFC007E0
03FFE00000
03FFF00000
01FFFC0000
01FFFF8000
01FFFFF000
00FFFFFE00
007FFFFF80
003FFFFFC0
00FFFFFFE0
01FFFFFFF0
03FFFFFFF8
07FF7FFFFC
07FE0FFFFC
0FFC03FFFC
1FFC00FFFC
1FF8007FFE
1FF8003FFE
1FF8003FFE
3FF8001FFC
3FFC001FFC
3FFC001FFC
3FFE001FFC
1FFF003FF8
1FFF803FF8
1FFFE07FF0
1FFFFCFFE0
0FFFFFFFC0
0FFFFFFF80
07FFFFFE00
03FFFFFC00
01FFFFFF00
007FFFFF00
001FFFFF80
0003FFFFC0
0000FFFFC0
00001FFFC0
00000FFFE0
000007FFE0
000007FFE0
780007FFE0
7F0007FFE0
7FE00FFFC0
FFFFFFFFC0
FFFFFFFFC0
FFFFFFFF80
FFFFFFFF80
FFFFFFFF00
7FFFFFFE00
3FFFFFFC00
0FFFFFF800
01FFFFE000
001FFE0000
ENDCHAR
STARTCHAR 00A8
ENCODING 168
SWIDTH 384 0
DWIDTH 32 0
BBX 32 11 0 52
BITMAP
0FE001FC
3FF007FE
7FF80FFF
7FF81FFF
FFF81FFF
FFF81FFF
FFF81FFF
FFF01FFE
FFF01FFE
7FE00FFC
1F8007F0
ENDCHAR
STARTCHAR 00A9
ENCODING 169
SWIDTH 804 0
DWIDTH 67 0
BBX 61 61 3 -1
BITMAP
0000001FFF800000
000001FFFFF80000
00000FFFFFFE0000
00007FFFFFFF8000
0000FFFFFFFFE000
0003FFFFFFFFF000
000FFFFFFFFFF800
001FFFFFFFFFFC00
003FFFE001FFFE00
007FFF00003FFF00
00FFF800000FFF80
01FFE0000003FF80
01FFC0000001FFC0
03FF80000000FFC0
07FF000FF8007FE0
07FE007FFF003FE0
0FFC00FFFF803FE0
0FF801FFFFC01FF0
1FF003FFFFE01FF0
1FF007FFFFE01FF0
3FE00FFFFFF00FF0
3FE01FFFFFF00FF0
3FC01FFC3FF00FF8
7FC01FF83FF00FF8
7FC03FF83FF00FF8
7FC03FF01FE00FF8
7F803FF01FC00FF8
7F803FE01F800FF8
FF807FE000000FF8
FF807FE000000FF8
FF807FE000000FF8
FF807FE000000FF8
FF807FE000000FF8
FF807FE000000FF0
FF807FE000000FF0
FF807FE000001FF0
FF807FF001801FF0
FF803FF003C01FF0
FF803FFC1FC01FE0
7F803FFFFF803FE0
7F801FFFFF803FE0
7FC01FFFFF807FC0
7FC00FFFFF007FC0
7FC007FFFE00FFC0
3FE003FFFC01FF80
3FE001FFF801FF00
3FF0003FC003FF00
1FF800000007FE00
1FFC0000001FFE00
0FFE0000003FFC00
0FFF800000FFF800
07FFE00003FFF000
03FFFE003FFFE000
01FFFFFFFFFFC000
00FFFFFFFFFF8000
007FFFFFFFFE0000
003FFFFFFFFC0000
000FFFFFFFF00000
0003FFFFFFC00000
00007FFFFE000000
000007FFC0000000
ENDCHAR
STARTCHAR 00AA
ENCODING 170
SWIDTH 396 0
DWIDTH 33 0
BBX 27 28 4 32
BITMAP
007FE000
03FFF800
07FFFE00
0FFFFF00
1FFFFF00
3FFFFF80
3FFFFF80
3FF1FF80
1FE0FF80
1FC0FF80
0000FF80
003FFF80
03FFFF80
0FFFFF80
1FFFFF80
3FFFFF80
7FF1FF80
7FC1FF80
FFC1FF80
FF81FF80
FF83FF80
FFFFFFE0
FFFFFFE0
FFFFFFE0
FFFFFFC0
7FFEFFC0
3FF87F80
0FE03E00
ENDCHAR
STARTCHAR 00AB
ENCODING 171
SWIDTH 660 0
DWIDTH 55 0
BBX 49 39 3 4
BITMAP
00000200000100
00000F00000780
00003F00001F80
0000FF00007F80
0003FF0001FF80
0007FF0007FF80
001FFF000FFF00
007FFE003FFF00
00FFFE007FFF00
03FFFE01FFFF00
07FFFE03FFFF00
0FFFFC0FFFFE00
3FFFFC1FFFFE00
7FFFF83FFFFC00
7FFFF07FFFF800
FFFFC07FFFE000
FFFF007FFF8000
FFFC007FFE0000
FFE0007FF00000
FE00007F000000
FF00007F800000
FFC0007FE00000
FFF0007FF80000
FFFC007FFE0000
FFFF007FFF8000
FFFFE07FFFF000
FFFFF87FFFFC00
7FFFFC3FFFFE00
3FFFFC1FFFFE00
1FFFFC0FFFFE00
0FFFFC07FFFE00
07FFFC03FFFE00
01FFF800FFFC00
00FFF8007FFC00
007FF8003FFC00
003FF8001FFC00
000FF00007F800
0007F00003F800
0001E00000F000
ENDCHAR
STARTCHAR 00AC
ENCODING 172
SWIDTH 612 0
DWIDTH 51 0
BBX 43 25 3 4
BITMAP
1FFFFFFFFFE0
7FFFFFFFFFE0
7FFFFFFFFFE0
7FFFFFFFFFE0
FFFFFFFFFFE0
FFFFFFFFFFE0
FFFFFFFFFFE0
FFFFFFFFFFC0
FFFFFFFFFFC0
FFFFFFFFFFC0
FFFFFFFFFFC0
00000000FFC0
00000000FFC0
00000000FFC0
00000000FFC0
00000001FFC0
00000001FFC0
00000001FFC0
00000001FFC0
00000001FFC0
00000001FFC0
00000000FFC0
00000000FFC0
000000007F80
000000000300
ENDCHAR
STARTCHAR 00AD
ENCODING 173
SWIDTH 456 0
DWIDTH 38 0
BBX 30 11 4 18
BITMAP
1FFFFFFC
7FFFFFFC
7FFFFFFC
7FFFFFFC
FFFFFFFC
FFFFFFFC
FFFFFFFC
FFFFFFF8
FFFFFFF8
FFFFFFF0
FFFFFFE0
ENDCHAR
STARTCHAR 00AE
ENCODING 174
SWIDTH 804 0
DWIDTH 67 0
BBX 61 61 3 -1
BITMAP
0000001FFF800000
000001FFFFF80000
00000FFFFFFE0000
00007FFFFFFF8000
0000FFFFFFFFE000
0003FFFFFFFFF000
000FFFFFFFFFF800
001FFFFFFFFFFC00
003FFFE001FFFE00
007FFF00003FFF00
00FFF800000FFF80
01FFE0000003FF80
01FFC0000001FFC0
03FF80000000FFC0
07FF001FF0007FE0
07FE07FFFC003FE0
0FFC07FFFF003FE0
0FF807FFFF801FF0
1FF00FFFFF801FF0
1FF00FFFFFC01FF0
3FE00FFFFFC00FF0
3FE00FF07FE00FF0
3FC00FF03FE00FF8
7FC00FF01FE00FF8
7FC00FF01FE00FF8
7FC00FF01FE00FF8
7F800FF01FE00FF8
7F801FF03FC00FF8
FF801FF03FC00FF8
FF801FF07FC00FF8
FF801FFFFF800FF8
FF801FFFFF800FF8
FF801FFFFF000FF8
FF801FFFFE000FF0
FF801FFFFC000FF0
FF801FFFFC001FF0
FF801FE3FC001FF0
FF801FE3FE001FF0
FF801FE3FF001FE0
7F801FE1FF003FE0
7F801FE1FF803FE0
7FC01FE1FFC07FC0
7FC03FE0FFC07FC0
7FC01FE0FFE0FFC0
3FE01FE07FE1FF80
3FE01FE07F81FF00
3FF007C01F03FF00
1FF800000007FE00
1FFC0000001FFE00
0FFE0000003FFC00
0FFF800000FFF800
07FFE00003FFF000
03FFFE003FFFE000
01FFFFFFFFFFC000
00FFFFFFFFFF8000
007FFFFFFFFE0000
003FFFFFFFFC0000
000FFFFFFFF00000
0003FFFFFFC00000
00007FFFFE000000
000007FFC0000000
ENDCHAR
STARTCHAR 00AF
ENCODING 175
SWIDTH 384 0
DWIDTH 32 0
BBX 30 9 1 51
BITMAP
1FFFFFFC
7FFFFFFC
7FFFFFFC
FFFFFFFC
FFFFFFFC
FFFFFFF8
FFFFFFF8
FFFFFFF0
FFFFFFE0
ENDCHAR
STARTCHAR 00B0
ENCODING 176
SWIDTH 384 0
DWIDTH 32 0
BBX 26 25 4 35
BITMAP
003FE000
01FFFC00
03FFFE00
0FFFFF00
1FFFFF80
1FFFFF80
3FFFFFC0
7FFFFFC0
7FF0FFC0
7FE07FC0
FFC07FC0
FFC07FC0
FF807FC0
FF807FC0
FF807FC0
FFC0FFC0
FFE1FFC0
FFFFFF80
7FFFFF80
7FFFFF00
3FFFFE00
3FFFFC00
1FFFF800
07FFE000
01FF0000
ENDCHAR
STARTCHAR 00B1
ENCODING 177
SWIDTH 516 0
DWIDTH 43 0
BBX 39 53 1 0
BITMAP
00007E0000
00007F8000
00007FC000
00007FC000
00007FE000
00007FE000
00007FE000
0000FFE000
0000FFE000
0000FFE000
0000FFE000
0000FFE000
0000FFE000
0000FFE000
0000FFE000
03FFFFFFFE
07FFFFFFFE
0FFFFFFFFE
0FFFFFFFFE
1FFFFFFFFE
1FFFFFFFFE
1FFFFFFFFC
1FFFFFFFFC
1FFFFFFFF8
1FFFFFFFF0
0001FFC000
0001FFC000
0001FFC000
0001FFC000
0001FFC000
0001FF8000
0001FF8000
0001FF8000
0001FF8000
0001FF8000
0001FF8000
0000FF8000
0000FF8000
00003F8000
0000000000
0000000000
0000000000
0000000000
1FFFFFFFF0
3FFFFFFFF0
7FFFFFFFF0
7FFFFFFFF0
7FFFFFFFF0
FFFFFFFFF0
FFFFFFFFF0
FFFFFFFFE0
FFFFFFFFC0
FFFFFFFF80
ENDCHAR
STARTCHAR 00B2
ENCODING 178
SWIDTH 312 0
DWIDTH 26 0
BBX 23 28 3 32
BITMAP
00FF80
07FFF0
0FFFF8
1FFFFC
3FFFFC
3FFFFE
7FFFFE
7FC7FE
3F83FE
3F83FC
1F03FC
0007FC
000FF8
001FF0
003FE0
00FFC0
03FF80
07FF00
1FFC00
7FF800
FFE000
FFFFFC
FFFFFC
FFFFFC
FFFFFC
FFFFFC
FFFFFC
7FFFF8
ENDCHAR
STARTCHAR 00B3
ENCODING 179
SWIDTH 300 0
DWIDTH 25 0
BBX 22 28 2 32
BITMAP
00FF00
07FFE0
0FFFF0
1FFFF8
1FFFF8
1FFFFC
1FC7FC
0F83FC
0003FC
0003F8
0007F8
07FFF0
0FFFE0
0FFFE0
0FFFF0
0FFFF8
000FFC
0007FC
0003FC
3C07FC
7E0FF8
FFFFF8
FFFFF0
FFFFF0
FFFFE0
7FFF80
3FFF00
0FF800
ENDCHAR
STARTCHAR 00B4
ENCODING 180
SWIDTH 252 0
DWIDTH 21 0
BBX 20 18 1 52
BITMAP
007800
00FE00
01FF80
01FFE0
03FFE0
07FFF0
07FFE0
0FFFC0
1FFF80
1FFF00
3FFE00
7FFC00
7FF800
FFE000
FFC000
7F8000
7E0000
1C0000
ENDCHAR
STARTCHAR 00B5
ENCODING 181
SWIDTH 600 0
DWIDTH 50 0
BBX 44 62 3 -16
BITMAP
0FF80001FE00
0FFE0003FF80
1FFF0003FFC0
1FFF0003FFE0
1FFF8003FFE0
1FFF8003FFE0
1FFF8003FFE0
1FFF8003FFF0
1FFF8003FFF0
1FFF8003FFF0
1FFF8003FFE0
1FFF8007FFE0
1FFF8007FFE0
1FFF8007FFE0
3FFF0007FFE0
3FFF0007FFE0
3FFF0007FFE0
3FFF0007FFE0
3FFF0007FFE0
3FFF0007FFE0
3FFF0007FFE0
3FFF0007FFE0
3FFF0007FFE0
3FFF000FFFE0
3FFF000FFFC0
3FFE000FFFC0
3FFE000FFFC0
3FFE000FFFC0
7FFE000FFFC0
7FFE001FFFC0
7FFE001FFFC0
7FFE003FFFC0
7FFF003FFFC0
7FFF007FFFC0
7FFF80FFFFC0
7FFFE3FFFFC0
7FFFFFFFFFC0
7FFFFFFFFFC0
7FFFFFFFFF80
7FFFFFFFFF80
7FFFFFEFFF80
7FFFFFCFFF80
7FFFFFCFFF80
FFFFFF87FF80
FFFFFF03FF80
FFFBFE00FF80
FFF9F8000000
FFF800000000
FFF800000000
FFF800000000
FFF800000000
FFF800000000
FFF800000000
FFF800000000
FFF800000000
FFF800000000
FFF800000000
FFF800000000
FFF800000000
7FF800000000
3FF800000000
0FF800000000
ENDCHAR
STARTCHAR 00B6
ENCODING 182
SWIDTH 588 0
DWIDTH 49 0
BBX 42 60 3 0
BITMAP
0003FFFFFFC0
003FFFFFFFC0
00FFFFFFFFC0
01FFFFFFFFC0
03FFFFFFFFC0
07FFFFFFFFC0
0FFFFFFFFFC0
1FFFFFFC7FC0
1FFFFFFC7FC0
3FFFFFFC7FC0
3FFFFFFC7F80
7FFFFFFC7F80
7FFFFFFC7F80
7FFFFFFC7F80
7FFFFFFC7F80
FFFFFFF87F80
FFFFFFF87F80
FFFFFFF8FF80
FFFFFFF8FF80
FFFFFFF8FF80
FFFFFFF8FF80
FFFFFFF8FF80
7FFFFFF8FF00
7FFFFFF8FF00
7FFFFFF8FF00
7FFFFFF8FF00
3FFFFFF8FF00
3FFFFFF0FF00
1FFFFFF0FF00
1FFFFFF0FF00
0FFFFFF1FF00
07FFFFF1FF00
01FFFFF1FF00
007FFFF1FF00
0007EFF1FF00
00001FF1FF00
00001FF1FE00
00001FF1FE00
00001FF1FE00
00001FF1FE00
00001FF1FE00
00001FE1FE00
00001FE1FE00
00001FE1FE00
00001FE3FE00
00001FE3FE00
00001FE3FE00
00001FE3FE00
00003FE3FE00
00003FE3FC00
00003FE3FC00
00003FE3FC00
00003FE3FC00
00003FE3FC00
00001FE3FC00
00001FC3FC00
00001FC1FC00
00001FC1FC00
00000FC0FC00
000007C07C00
ENDCHAR
STARTCHAR 00B7
ENCODING 183
SWIDTH 264 0
DWIDTH 22 0
BBX 15 16 3 15
BITMAP
07F0
1FF8
3FFC
3FFC
7FFE
7FFE
FFFE
FFFE
FFFE
FFFE
FFFC
FFFC
7FF8
7FF8
3FF0
1FC0
ENDCHAR
STARTCHAR 00B8
ENCODING 184
SWIDTH 228 0
DWIDTH 19 0
BBX 17 19 1 -16
BITMAP
070000
07C000
0FC000
0FC000
0FC000
1F8000
1FF800
1FFF00
1FFF80
03FF80
00FF80
007F80
E07F80
F8FF80
FFFF00
FFFF00
FFFE00
7FF800
1FE000
ENDCHAR
STARTCHAR 00B9
ENCODING 185
SWIDTH 216 0
DWIDTH 18 0
BBX 13 27 3 33
BITMAP
07F0
1FF8
3FF8
FFF8
FFF8
FFF8
FFF8
7FF8
37F8
0FF8
0FF8
0FF8
0FF8
0FF8
0FF0
0FF0
0FF0
0FF0
0FF0
0FF0
0FF0
1FF0
1FF0
1FF0
0FF0
0FF0
07F0
ENDCHAR
STARTCHAR 00BA
ENCODING 186
SWIDTH 396 0
DWIDTH 33 0
BBX 27 27 4 33
BITMAP
003FF000
00FFFE00
03FFFF00
07FFFF80
0FFFFFC0
1FFFFFC0
3FFFFFE0
3FF0FFE0
7FE07FE0
7FC03FE0
7FC03FE0
FFC03FE0
FFC03FE0
FFC03FE0
FFC03FE0
FFC07FE0
FFC07FE0
FFC07FC0
FFC0FFC0
7FE1FFC0
7FFFFF80
7FFFFF00
3FFFFF00
1FFFFE00
0FFFF800
07FFF000
00FF8000
ENDCHAR
STARTCHAR 00BB
ENCODING 187
SWIDTH 660 0
DWIDTH 55 0
BBX 49 39 3 4
BITMAP
04000001000000
0F800003C00000
0FE00007F00000
1FF00007FC0000
1FFC000FFE0000
3FFE000FFF0000
3FFF000FFFC000
3FFF801FFFE000
3FFFC01FFFF000
3FFFE01FFFF800
7FFFF81FFFFC00
7FFFFC1FFFFE00
7FFFFC1FFFFF00
3FFFFE1FFFFF80
0FFFFF03FFFF80
01FFFF00FFFF80
007FFF001FFF80
000FFE0007FF80
0003FE0001FF80
0000FE00003F80
0001FE0000FF80
000FFE0003FF80
003FFE001FFF80
00FFFE007FFF80
03FFFE01FFFF00
0FFFFE03FFFF00
1FFFFC0FFFFE00
3FFFF01FFFFC00
7FFFE01FFFF800
7FFFC03FFFE000
FFFF003FFFC000
FFFE003FFF0000
FFF8007FFE0000
FFF0007FF80000
FFC0007FF00000
FF00007FC00000
FE00007F000000
F800007C000000
E0000070000000
ENDCHAR
STARTCHAR 00BC
ENCODING 188
SWIDTH 696 0
DWIDTH 58 0
BBX 51 61 4 -1
BITMAP
07F000000F8000
1FF800001FC000
3FF800003FC000
FFF800003FC000
FFF800007FC000
FFF80000FF8000
FFF80000FF8000
7FF80001FF8000
37F80003FF0000
07F80003FE0000
07F80007FE0000
0FF80007FC0000
0FF8000FFC0000
0FF8001FF80000
0FF8001FF00000
0FF8003FF00000
0FF0007FE00000
0FF0007FE00000
0FF000FFC00000
0FF000FF800000
0FF001FF800000
0FF003FF000000
0FF003FE000000
0FF007FE000000
0FF007FC000000
0FF00FFC000000
07F01FF8000000
00001FF0000000
00003FF0000000
00003FE0000000
00007FE0000000
0000FFC0000000
0000FF80000000
0001FF80FC1FC0
0003FF00FE1FC0
0003FF01FE1FE0
0007FE01FE1FE0
0007FC01FE1FE0
000FFC01FE3FE0
001FF803FE3FE0
001FF003FC3FE0
003FF003FC3FE0
003FE003FC3FC0
007FE007FC3FC0
00FFC007F83FC0
00FF8007F83FC0
01FF8007F83FC0
03FF000FFFFFC0
03FE000FFFFFC0
07FE000FFFFFC0
07FC000FFFFFC0
0FFC000FFFFFC0
0FF80007FFFFC0
1FF00000007FC0
1FF00000007FC0
3FE00000007FC0
3FE00000007FC0
3FC00000007F80
3F800000007F80
3F800000003F80
3E000000000000
ENDCHAR
STARTCHAR 00BD
ENCODING 189
SWIDTH 696 0
DWIDTH 58 0
BBX 50 61 4 -1
BITMAP
07F000000F8000
1FF800001FC000
3FF800003FC000
FFF800003FC000
FFF800007FC000
FFF80000FF8000
FFF80000FF8000
7FF80001FF8000
37F80003FF0000
07F80003FE0000
07F80007FE0000
0FF80007FC0000
0FF8000FFC0000
0FF8001FF80000
0FF8001FF00000
0FF8003FF00000
0FF0007FE00000
0FF0007FE00000
0FF000FFC00000
0FF000FF800000
0FF001FF800000
0FF003FF000000
0FF003FE000000
0FF007FE000000
0FF007FC000000
0FF00FFC000000
07F01FF8000000
00001FF0000000
00003FF0000000
00003FE0000000
00007FE0000000
0000FFC0000000
0000FF80000000
0001FF800FF800
0003FF007FFE00
0003FF01FFFF00
0007FE03FFFF80
0007FC07FFFFC0
000FFC07FFFFC0
001FF807FFFFC0
001FF007F87FC0
003FF007F03FC0
003FE003F03FC0
007FE001F07F80
00FFC000007F80
00FF800000FF00
01FF800003FE00
03FF000007FC00
03FE00001FF800
07FE00007FE000
07FC0000FFC000
0FFC0003FF0000
0FF8000FFE0000
1FF0001FFFFF80
1FF0001FFFFF80
3FE0001FFFFF80
3FE0001FFFFF80
3FC0001FFFFF80
3F80000FFFFF80
3F80000FFFFF00
3E000000000000
ENDCHAR
STARTCHAR 00BE
ENCODING 190
SWIDTH 732 0
DWIDTH 61 0
BBX 55 61 3 -1
BITMAP
01FF8000000000
07FFE00001F800
1FFFF00003FC00
1FFFF80003FC00
1FFFF80007FC00
1FFFFC000FFC00
1F87FC000FF800
0783FC001FF800
0003F8001FF000
0007F8003FF000
07FFF0007FE000
0FFFC0007FC000
0FFFE000FFC000
0FFFF001FF8000
0FFFF801FF8000
000FF803FF0000
0007FC03FE0000
0007FC07FE0000
3807F80FFC0000
7C0FF80FF80000
FFFFF81FF80000
FFFFF03FF00000
FFFFF03FF00000
FFFFE07FE00000
7FFF807FC00000
3FFF00FFC00000
0FF801FF800000
000001FF000000
000003FF000000
000003FE000000
000007FE000000
00000FFC000000
00000FF8000000
00001FF80FC1F8
00003FF01FC3FC
00003FE01FE3FC
00007FE01FE3FE
00007FC01FE3FC
0000FFC03FE3FC
0001FF803FC3FC
0001FF003FC3FC
0003FF003FC3FC
0007FE007FC3FC
0007FC007F83FC
000FFC007F83FC
000FF8007F83FC
001FF800FF83FC
003FF000FFFFFC
003FE000FFFFFC
007FE000FFFFFC
007FC001FFFFFC
00FF8000FFFFFC
01FF8000FFFFFC
01FF00000007F8
03FF00000007F8
03FE00000007F8
07FC00000007F8
07FC00000007F8
07F800000007F8
07F000000003F8
03E00000000000
ENDCHAR
STARTCHAR 00BF
ENCODING 191
SWIDTH 528 0
DWIDTH 44 0
BBX 40 63 0 -16
BITMAP
000003F800
000007FC00
00001FFE00
00001FFE00
00003FFF00
00003FFF00
00003FFF00
00007FFF00
00007FFF00
00007FFF00
00007FFE00
00007FFE00
00003FFE00
00003FFC00
00001FF800
00000FE000
0000000000
0000000000
0000000000
0000000000
0000000000
0000000000
00003FC000
00007FF000
00007FF000
0000FFF800
0001FFF800
0001FFF800
0003FFF000
0007FFF000
000FFFE000
003FFFE000
007FFFC000
00FFFF8000
01FFFF0000
03FFFE0000
03FFFC0000
07FFF80000
0FFFF00000
1FFFE00000
1FFFC00000
3FFF800FE0
7FFF000FF8
7FFE000FFC
7FFE001FFE
FFFE001FFE
FFFE001FFE
FFFE003FFF
FFFE003FFF
FFFE007FFF
FFFF00FFFE
FFFFC3FFFE
7FFFFFFFFE
7FFFFFFFFE
7FFFFFFFFC
3FFFFFFFF8
3FFFFFFFF8
1FFFFFFFF0
0FFFFFFFE0
07FFFFFF80
03FFFFFE00
00FFFFF800
000FFF8000
ENDCHAR
STARTCHAR 00C0
ENCODING 192
SWIDTH 612 0
DWIDTH 51 0
BBX 50 81 0 0
BITMAP
00002000000000
00007800000000
0000FC00000000
0001FE00000000
0003FF80000000
0003FFC0000000
0007FFE0000000
0007FFF0000000
000FFFF8000000
000FFFFC000000
0007FFFE000000
0001FFFC000000
00007FFC000000
00001FFC000000
000003F8000000
00000030000000
00000000000000
00000000000000
00000000000000
00000000000000
00000000000000
000003FE000000
00000FFFC00000
00001FFFE00000
00001FFFF00000
00003FFFF80000
00003FFFF80000
00007FFFFC0000
00007FFFFC0000
0000FFFFFC0000
0000FFFFFE0000
0001FFFFFE0000
0001FFFFFE0000
0001FFFFFE0000
0003FFDFFE0000
0003FFDFFF0000
0007FFDFFF0000
0007FFDFFF0000
0007FF9FFF0000
000FFF9FFF8000
000FFF9FFF8000
001FFF0FFF8000
001FFF0FFF8000
001FFF0FFFC000
003FFF0FFFC000
003FFE0FFFC000
007FFE0FFFC000
007FFE07FFE000
007FFE07FFE000
00FFFC07FFE000
00FFFC07FFE000
00FFFC07FFF000
01FFF807FFF000
01FFF803FFF000
03FFF803FFF000
03FFF803FFF800
03FFFFFFFFF800
07FFFFFFFFF800
07FFFFFFFFF800
07FFFFFFFFFC00
0FFFFFFFFFFC00
0FFFFFFFFFFC00
0FFFFFFFFFFC00
1FFFFFFFFFFE00
1FFFFFFFFFFE00
1FFFFFFFFFFE00
3FFFFFFFFFFE00
3FFFFFFFFFFE00
3FFF8000FFFF00
3FFF8000FFFF00
7FFF8000FFFF00
7FFF8000FFFF00
7FFF00007FFF80
7FFF00007FFF80
7FFF00007FFF80
FFFF00007FFF80
7FFE00003FFF80
7FFE00003FFFC0
3FFE00001FFFC0
1FFE00000FFFC0
07FC000001FF80
ENDCHAR
STARTCHAR 00C1
ENCODING 193
SWIDTH 612 0
DWIDTH 51 0
BBX 50 81 0 0
BITMAP
000000001E0000
000000003F0000
00000000FF8000
00000001FFE000
00000003FFF000
00000007FFF000
0000001FFFF800
0000003FFFF800
0000007FFFF000
000000FFFFE000
000000FFFF8000
000000FFFE0000
000000FFF80000
0000007FE00000
0000003F000000
00000010000000
00000000000000
00000000000000
00000000000000
00000000000000
00000000000000
000003FE000000
00000FFFC00000
00001FFFE00000
00001FFFF00000
00003FFFF80000
00003FFFF80000
00007FFFFC0000
00007FFFFC0000
0000FFFFFC0000
0000FFFFFE0000
0001FFFFFE0000
0001FFFFFE0000
0001FFFFFE0000
0003FFDFFE0000
0003FFDFFF0000
0007FFDFFF0000
0007FFDFFF0000
0007FF9FFF0000
000FFF9FFF8000
000FFF9FFF8000
001FFF0FFF8000
001FFF0FFF8000
001FFF0FFFC000
003FFF0FFFC000
003FFE0FFFC000
007FFE0FFFC000
007FFE07FFE000
007FFE07FFE000
00FFFC07FFE000
00FFFC07FFE000
00FFFC07FFF000
01FFF807FFF000
01FFF803FFF000
03FFF803FFF000
03FFF803FFF800
03FFFFFFFFF800
07FFFFFFFFF800
07FFFFFFFFF800
07FFFFFFFFFC00
0FFFFFFFFFFC00
0FFFFFFFFFFC00
0FFFFFFFFFFC00
1FFFFFFFFFFE00
1FFFFFFFFFFE00
1FFFFFFFFFFE00
3FFFFFFFFFFE00
3FFFFFFFFFFE00
3FFF8000FFFF00
3FFF8000FFFF00
7FFF8000FFFF00
7FFF8000FFFF00
7FFF00007FFF80
7FFF00007FFF80
7FFF00007FFF80
FFFF00007FFF80
7FFE00003FFF80
7FFE00003FFFC0
3FFE00001FFFC0
1FFE00000FFFC0
07FC000001FF80
ENDCHAR
STARTCHAR 00C2
ENCODING 194
SWIDTH 612 0
DWIDTH 51 0
BBX 50 81 0 0
BITMAP
0000007F800000
000001FFC00000
000003FFE00000
000007FFF00000
00000FFFF00000
00003FFFF80000
00007FFFFC0000
0000FFFFFE0000
0001FFFFFF0000
0003FFE7FF0000
0007FFC3FF8000
000FFF01FFC000
000FFE00FFC000
0007F8007F8000
0003E0001F0000
00008000040000
00000000000000
00000000000000
00000000000000
00000000000000
00000000000000
000003FE000000
00000FFFC00000
00001FFFE00000
00001FFFF00000
00003FFFF80000
00003FFFF80000
00007FFFFC0000
00007FFFFC0000
0000FFFFFC0000
0000FFFFFE0000
0001FFFFFE0000
0001FFFFFE0000
0001FFFFFE0000
0003FFDFFE0000
0003FFDFFF0000
0007FFDFFF0000
0007FFDFFF0000
0007FF9FFF0000
000FFF9FFF8000
000FFF9FFF8000
001FFF0FFF8000
001FFF0FFF8000
001FFF0FFFC000
003FFF0FFFC000
003FFE0FFFC000
007FFE0FFFC000
007FFE07FFE000
007FFE07FFE000
00FFFC07FFE000
00FFFC07FFE000
00FFFC07FFF000
01FFF807FFF000
01FFF803FFF000
03FFF803FFF000
03FFF803FFF800
03FFFFFFFFF800
07FFFFFFFFF800
07FFFFFFFFF800
07FFFFFFFFFC00
0FFFFFFFFFFC00
0FFFFFFFFFFC00
0FFFFFFFFFFC00
1FFFFFFFFFFE00
1FFFFFFFFFFE00
1FFFFFFFFFFE00
3FFFFFFFFFFE00
3FFFFFFFFFFE00
3FFF8000FFFF00
3FFF8000FFFF00
7FFF8000FFFF00
7FFF8000FFFF00
7FFF00007FFF80
7FFF00007FFF80
7FFF00007FFF80
FFFF00007FFF80
7FFE00003FFF80
7FFE00003FFFC0
3FFE00001FFFC0
1FFE00000FFFC0
07FC000001FF80
ENDCHAR
STARTCHAR 00C3
ENCODING 195
SWIDTH 612 0
DWIDTH 51 0
BBX 50 80 0 0
BITMAP
00007F00003000
0001FFE0007800
0007FFF000F800
000FFFFC01F800
001FFFFF07F800
001FFFFFFFF800
003FFFFFFFF800
003FFFFFFFF000
003FFFFFFFF000
007F87FFFFE000
007F01FFFFE000
007E00FFFFC000
007C003FFF8000
0078001FFE0000
00300007F80000
00000000000000
00000000000000
00000000000000
00000000000000
00000000000000
00000000000000
00000FFFC00000
00001FFFE00000
00001FFFF00000
00003FFFF80000
00003FFFF80000
00007FFFFC0000
00007FFFFC0000
0000FFFFFC0000
0000FFFFFC0000
0001FFFFFE0000
0001FFFFFE0000
0001FFFFFE0000
0003FFDFFE0000
0003FFDFFF0000
0007FFDFFF0000
0007FFDFFF0000
0007FF9FFF0000
000FFF9FFF8000
000FFF9FFF8000
001FFF0FFF8000
001FFF0FFF8000
001FFF0FFFC000
003FFF0FFFC000
003FFE0FFFC000
007FFE0FFFC000
007FFE07FFE000
007FFE07FFE000
00FFFC07FFE000
00FFFC07FFE000
00FFFC07FFF000
01FFF807FFF000
01FFF803FFF000
01FFF803FFF000
03FFF803FFF800
03FFFFFFFFF800
07FFFFFFFFF800
07FFFFFFFFF800
07FFFFFFFFFC00
0FFFFFFFFFFC00
0FFFFFFFFFFC00
0FFFFFFFFFFC00
1FFFFFFFFFFE00
1FFFFFFFFFFE00
1FFFFFFFFFFE00
3FFFFFFFFFFE00
3FFFFFFFFFFE00
3FFF8000FFFF00
3FFF8000FFFF00
7FFF8000FFFF00
7FFF8000FFFF00
7FFF00007FFF80
7FFF00007FFF80
7FFF00007FFF80
FFFF00007FFF80
7FFE00003FFF80
7FFE00003FFFC0
3FFE00001FFFC0
1FFE00000FFFC0
07FC000001FF80
ENDCHAR
STARTCHAR 00C4
ENCODING 196
SWIDTH 612 0
DWIDTH 51 0
BBX 50 77 0 0
BITMAP
0001FC003F0000
0007FE00FFC000
000FFF01FFE000
000FFF01FFE000
001FFF03FFE000
001FFF03FFE000
001FFF03FFE000
001FFF03FFE000
001FFE03FFC000
000FFC01FF8000
0007F000FE0000
00000000000000
00000000000000
00000000000000
00000000000000
00000000000000
00000000000000
00000FFF800000
00001FFFE00000
00001FFFF00000
00003FFFF00000
00003FFFF80000
00007FFFF80000
00007FFFFC0000
00007FFFFC0000
0000FFFFFC0000
0000FFFFFE0000
0001FFFFFE0000
0001FFFFFE0000
0003FFFFFE0000
0003FFDFFF0000
0003FFDFFF0000
0007FFDFFF0000
0007FF9FFF0000
000FFF9FFF8000
000FFF9FFF8000
000FFF8FFF8000
001FFF0FFF8000
001FFF0FFFC000
003FFF0FFFC000
003FFF0FFFC000
003FFE0FFFC000
007FFE0FFFC000
007FFE07FFE000
007FFC07FFE000
00FFFC07FFE000
00FFFC07FFE000
01FFFC07FFF000
01FFF807FFF000
01FFF803FFF000
03FFF803FFF000
03FFF803FFF800
03FFFFFFFFF800
07FFFFFFFFF800
07FFFFFFFFF800
07FFFFFFFFFC00
0FFFFFFFFFFC00
0FFFFFFFFFFC00
0FFFFFFFFFFC00
1FFFFFFFFFFE00
1FFFFFFFFFFE00
1FFFFFFFFFFE00
3FFFFFFFFFFE00
3FFFFFFFFFFF00
3FFF8000FFFF00
3FFF8000FFFF00
7FFF8000FFFF00
7FFF8000FFFF00
7FFF00007FFF80
7FFF00007FFF80
7FFF00007FFF80
FFFF00007FFF80
7FFE00003FFF80
7FFE00003FFFC0
3FFE00001FFFC0
1FFE00000FFFC0
07FC000001FF80
ENDCHAR
STARTCHAR 00C5
ENCODING 197
SWIDTH 612 0
DWIDTH 51 0
BBX 50 78 0 0
BITMAP
0000007F000000
000001FF800000
000003FFC00000
000007FFE00000
000007E7E00000
00000FC3E00000
00000FC3E00000
00000FC7E00000
00000FC7E00000
000007FFC00000
000007FFC00000
000003FF800000
000000FE000000
00000000000000
00000000000000
00000000000000
00000000000000
00000000000000
00000000000000
00000FFFC00000
00001FFFE00000
00001FFFF00000
00003FFFF80000
00003FFFF80000
00007FFFFC0000
00007FFFFC0000
0000FFFFFC0000
0000FFFFFC0000
0001FFFFFE0000
0001FFFFFE0000
0001FFFFFE0000
0003FFDFFE0000
0003FFDFFF0000
0007FFDFFF0000
0007FFDFFF0000
0007FF9FFF0000
000FFF9FFF8000
000FFF9FFF8000
001FFF0FFF8000
001FFF0FFF8000
001FFF0FFFC000
003FFF0FFFC000
003FFE0FFFC000
007FFE0FFFC000
007FFE07FFE000
007FFE07FFE000
00FFFC07FFE000
00FFFC07FFE000
00FFFC07FFF000
01FFF807FFF000
01FFF803FFF000
01FFF803FFF000
03FFF803FFF800
03FFFFFFFFF800
07FFFFFFFFF800
07FFFFFFFFF800
07FFFFFFFFFC00
0FFFFFFFFFFC00
0FFFFFFFFFFC00
0FFFFFFFFFFC00
1FFFFFFFFFFE00
1FFFFFFFFFFE00
1FFFFFFFFFFE00
3FFFFFFFFFFE00
3FFFFFFFFFFE00
3FFF8000FFFF00
3FFF8000FFFF00
7FFF8000FFFF00
7FFF8000FFFF00
7FFF00007FFF80
7FFF00007FFF80
7FFF00007FFF80
FFFF00007FFF80
7FFE00003FFF80
7FFE00003FFFC0
3FFE00001FFFC0
1FFE00000FFFC0
07FC000001FF80
ENDCHAR
STARTCHAR 00C6
ENCODING 198
SWIDTH 816 0
DWIDTH 68 0
BBX 67 59 -1 0
BITMAP
0000003FFFFFFFFC00
0000007FFFFFFFFC00
000000FFFFFFFFFC00
000001FFFFFFFFFC00
000001FFFFFFFFFC00
000003FFFFFFFFFC00
000003FFFFFFFFF800
000007FFFFFFFFF800
000007FFFFFFFFF800
00000FFFFFFFFFF000
00001FFFFFFFFFC000
00001FFFFFE0000000
00003FFDFFF0000000
00003FFDFFF0000000
00007FFDFFF0000000
00007FF9FFF0000000
0000FFF9FFF0000000
0000FFF1FFF0000000
0001FFF1FFF0000000
0001FFF1FFF0000000
0003FFE1FFF0000000
0003FFE1FFF8000000
0007FFC1FFF8000000
0007FFC1FFFFFFFC00
000FFFC1FFFFFFFC00
000FFF81FFFFFFFC00
001FFF81FFFFFFFC00
001FFF01FFFFFFFC00
003FFF01FFFFFFFC00
003FFF01FFFFFFFC00
007FFE01FFFFFFFC00
007FFE01FFFFFFF800
00FFFC01FFFFFFF800
00FFFC01FFFFFFE000
01FFFFFFFFFC000000
01FFFFFFFFFC000000
03FFFFFFFFFC000000
03FFFFFFFFFE000000
07FFFFFFFFFE000000
07FFFFFFFFFE000000
07FFFFFFFFFE000000
0FFFFFFFFFFE000000
0FFFFFFFFFFE000000
1FFFFFFFFFFE000000
1FFFFFFFFFFE000000
3FFFFFFFFFFE000000
3FFF8000FFFE000000
3FFF8000FFFF000000
7FFF0000FFFFFFFFE0
7FFF0000FFFFFFFFE0
FFFF0000FFFFFFFFE0
FFFE0000FFFFFFFFE0
FFFE0000FFFFFFFFE0
FFFE0000FFFFFFFFC0
FFFC00007FFFFFFFC0
FFFC00007FFFFFFFC0
FFFC00003FFFFFFFC0
7FF800001FFFFFFF80
1FF8000007FFFFFE00
ENDCHAR
STARTCHAR 00C7
ENCODING 199
SWIDTH 612 0
DWIDTH 51 0
BBX 47 76 3 -16
BITMAP
000003FFC000
00001FFFFC00
0000FFFFFF00
0003FFFFFFC0
0007FFFFFFE0
001FFFFFFFF0
003FFFFFFFF8
007FFFFFFFF8
00FFFFFFFFFC
00FFFFFFFFFC
01FFFFFFFFFE
03FFFFFFFFFE
03FFFFFFFFFE
07FFFF03FFFE
0FFFFC01FFFE
0FFFF800FFFE
0FFFF000FFFE
1FFFF000FFFE
1FFFE000FFFE
1FFFC0007FFE
3FFFC0007FFC
3FFFC0007FFC
3FFF80007FF8
7FFF80007FF0
7FFF80007FC0
7FFF80000000
7FFF00000000
7FFF00000000
7FFF00000000
7FFF00000000
FFFF00000000
FFFF00000000
FFFF00000000
FFFF00000000
FFFF00000000
FFFF00000000
FFFF00000000
FFFF00000000
FFFF00000000
7FFF00000000
7FFF00000000
7FFF80000000
7FFF800001E0
7FFFC00003E0
7FFFC0000FE0
3FFFE0001FE0
3FFFF0007FE0
3FFFFE03FFE0
1FFFFFFFFFE0
1FFFFFFFFFC0
0FFFFFFFFFC0
0FFFFFFFFFC0
07FFFFFFFFC0
03FFFFFFFF80
01FFFFFFFF00
00FFFFFFFF00
007FFFFFFE00
003FFFFFF800
000FFFFFF000
0003FFFFC000
00003FFC0000
00001F800000
00001F800000
00001FF80000
00001FFE0000
00003FFF0000
00000FFF8000
000001FF8000
0000007F8000
0000C07F8000
0000F1FF8000
0000FFFF0000
0000FFFF0000
0000FFFE0000
00007FF80000
00001FE00000
ENDCHAR
STARTCHAR 00C8
ENCODING 200
SWIDTH 504 0
DWIDTH 42 0
BBX 36 81 4 0
BITMAP
0010000000
003C000000
007E000000
00FF800000
01FFC00000
01FFE00000
03FFF00000
03FFF80000
07FFFC0000
07FFFE0000
03FFFF0000
00FFFF0000
003FFE0000
000FFE0000
0001FC0000
0000080000
0000000000
0000000000
0000000000
0000000000
0000000000
0000000000
0FFFFFFFF0
0FFFFFFFF0
0FFFFFFFF0
0FFFFFFFE0
0FFFFFFFE0
1FFFFFFFE0
1FFFFFFFE0
1FFFFFFFE0
1FFFFFFFE0
1FFFFFFFC0
1FFFFFFF00
1FFF800000
1FFF800000
1FFF800000
1FFF800000
1FFF800000
1FFF800000
1FFF800000
1FFF800000
3FFF800000
3FFF800000
3FFF800000
3FFF800000
3FFFFFFC00
3FFFFFFC00
3FFFFFFC00
3FFFFFFC00
3FFFFFFC00
3FFFFFF800
3FFFFFF800
3FFFFFF800
3FFFFFF800
7FFFFFF000
7FFFFFE000
7FFF000000
7FFF000000
7FFF000000
7FFF000000
7FFF000000
7FFF000000
7FFF000000
7FFE000000
7FFE000000
7FFE000000
7FFE000000
7FFE000000
FFFE000000
FFFE000000
FFFFFFFFC0
FFFFFFFFE0
FFFFFFFFE0
FFFFFFFFC0
FFFFFFFFC0
FFFFFFFFC0
7FFFFFFFC0
7FFFFFFFC0
3FFFFFFFC0
1FFFFFFF80
07FFFFFE00
ENDCHAR
STARTCHAR 00C9
ENCODING 201
SWIDTH 504 0
DWIDTH 42 0
BBX 38 81 4 0
BITMAP
0000000700
0000001F80
0000007FE0
000000FFF0
000001FFF8
000003FFFC
000007FFFC
00000FFFFC
00001FFFF8
00003FFFF0
00007FFFC0
00007FFF00
00007FFC00
00003FF000
00001F8000
0000080000
0000000000
0000000000
0000000000
0000000000
0000000000
0000000000
0FFFFFFFF0
0FFFFFFFF0
0FFFFFFFF0
0FFFFFFFE0
0FFFFFFFE0
1FFFFFFFE0
1FFFFFFFE0
1FFFFFFFE0
1FFFFFFFE0
1FFFFFFFC0
1FFFFFFF00
1FFF800000
1FFF800000
1FFF800000
1FFF800000
1FFF800000
1FFF800000
1FFF800000
1FFF800000
3FFF800000
3FFF800000
3FFF800000
3FFF800000
3FFFFFFC00
3FFFFFFC00
3FFFFFFC00
3FFFFFFC00
3FFFFFFC00
3FFFFFF800
3FFFFFF800
3FFFFFF800
3FFFFFF800
7FFFFFF000
7FFFFFE000
7FFF000000
7FFF000000
7FFF000000
7FFF000000
7FFF000000
7FFF000000
7FFF000000
7FFE000000
7FFE000000
7FFE000000
7FFE000000
7FFE000000
FFFE000000
FFFE000000
FFFFFFFFC0
FFFFFFFFE0
FFFFFFFFE0
FFFFFFFFC0
FFFFFFFFC0
FFFFFFFFC0
7FFFFFFFC0
7FFFFFFFC0
3FFFFFFFC0
1FFFFFFF80
07FFFFFE00
ENDCHAR
STARTCHAR 00CA
ENCODING 202
SWIDTH 504 0
DWIDTH 42 0
BBX 36 81 4 0
BITMAP
00003FC000
0000FFE000
0001FFF000
0003FFF800
0007FFFC00
000FFFFC00
001FFFFE00
007FFFFF00
00FFFFFF80
01FFF3FFC0
03FFE1FFC0
07FF80FFE0
03FF007FE0
03FC001FC0
01F0000F80
0040000200
0000000000
0000000000
0000000000
0000000000
0000000000
0000000000
0FFFFFFFF0
0FFFFFFFF0
0FFFFFFFF0
0FFFFFFFE0
0FFFFFFFE0
1FFFFFFFE0
1FFFFFFFE0
1FFFFFFFE0
1FFFFFFFE0
1FFFFFFFC0
1FFFFFFF00
1FFF800000
1FFF800000
1FFF800000
1FFF800000
1FFF800000
1FFF800000
1FFF800000
1FFF800000
3FFF800000
3FFF800000
3FFF800000
3FFF800000
3FFFFFFC00
3FFFFFFC00
3FFFFFFC00
3FFFFFFC00
3FFFFFFC00
3FFFFFF800
3FFFFFF800
3FFFFFF800
3FFFFFF800
7FFFFFF000
7FFFFFE000
7FFF000000
7FFF000000
7FFF000000
7FFF000000
7FFF000000
7FFF000000
7FFF000000
7FFE000000
7FFE000000
7FFE000000
7FFE000000
7FFE000000
FFFE000000
FFFE000000
FFFFFFFFC0
FFFFFFFFE0
FFFFFFFFE0
FFFFFFFFC0
FFFFFFFFC0
FFFFFFFFC0
7FFFFFFFC0
7FFFFFFFC0
3FFFFFFFC0
1FFFFFFF80
07FFFFFE00
ENDCHAR
STARTCHAR 00CB
ENCODING 203
SWIDTH 504 0
DWIDTH 42 0
BBX 36 77 4 0
BITMAP
00FE001FC0
01FF007FE0
03FF80FFF0
07FF80FFF0
07FF81FFF0
0FFF81FFF0
0FFF81FFF0
0FFF81FFF0
07FF00FFE0
07FE00FFC0
03FC007F80
0000000000
0000000000
0000000000
0000000000
0000000000
0000000000
0000000000
0FFFFFFFF0
0FFFFFFFF0
0FFFFFFFF0
0FFFFFFFE0
0FFFFFFFE0
1FFFFFFFE0
1FFFFFFFE0
1FFFFFFFE0
1FFFFFFFE0
1FFFFFFFC0
1FFFFFFF00
1FFF800000
1FFF800000
1FFF800000
1FFF800000
1FFF800000
1FFF800000
1FFF800000
1FFF800000
3FFF800000
3FFF800000
3FFF800000
3FFF800000
3FFFFFFC00
3FFFFFFC00
3FFFFFFC00
3FFFFFFC00
3FFFFFFC00
3FFFFFF800
3FFFFFF800
3FFFFFF800
3FFFFFF800
7FFFFFF000
7FFFFFE000
7FFF000000
7FFF000000
7FFF000000
7FFF000000
7FFF000000
7FFF000000
7FFF000000
7FFE000000
7FFE000000
7FFE000000
7FFE000000
7FFE000000
FFFE000000
FFFE000000
FFFFFFFFC0
FFFFFFFFE0
FFFFFFFFE0
FFFFFFFFC0
FFFFFFFFC0
FFFFFFFFC0
7FFFFFFFC0
7FFFFFFFC0
3FFFFFFFC0
1FFFFFFF80
07FFFFFE00
ENDCHAR
STARTCHAR 00CC
ENCODING 204
SWIDTH 312 0
DWIDTH 26 0
BBX 22 81 0 0
BITMAP
020000
078000
0FC000
1FE000
3FF800
7FFC00
7FFE00
FFFF00
FFFF80
FFFFC0
7FFFC0
3FFFC0
0FFFC0
01FF80
003F80
000200
000000
000000
000000
000000
000000
00FFC0
00FFF0
00FFF8
00FFF8
00FFFC
00FFFC
01FFFC
01FFFC
01FFFC
01FFFC
01FFFC
01FFFC
01FFFC
01FFFC
01FFFC
01FFFC
01FFFC
01FFFC
01FFFC
03FFF8
03FFF8
03FFF8
03FFF8
03FFF8
03FFF8
03FFF8
03FFF8
03FFF8
03FFF8
03FFF8
03FFF8
03FFF8
03FFF8
07FFF8
07FFF0
07FFF0
07FFF0
07FFF0
07FFF0
07FFF0
07FFF0
07FFF0
07FFF0
07FFF0
07FFF0
07FFF0
07FFF0
0FFFF0
0FFFF0
0FFFE0
0FFFE0
0FFFE0
0FFFE0
0FFFE0
0FFFE0
07FFE0
07FFE0
03FFE0
01FFE0
007FE0
ENDCHAR
STARTCHAR 00CD
ENCODING 205
SWIDTH 312 0
DWIDTH 26 0
BBX 29 81 4 0
BITMAP
00001C00
00007F00
0000FF80
0001FFC0
0007FFE0
000FFFF0
001FFFF8
003FFFF8
007FFFF0
00FFFFE0
00FFFF80
00FFFE00
00FFF800
007FC000
007F0000
00100000
00000000
00000000
00000000
00000000
00000000
0FFC0000
0FFF0000
0FFF8000
0FFF8000
0FFFC000
0FFFC000
1FFFC000
1FFFC000
1FFFC000
1FFFC000
1FFFC000
1FFFC000
1FFFC000
1FFFC000
1FFFC000
1FFFC000
1FFFC000
1FFFC000
1FFFC000
3FFF8000
3FFF8000
3FFF8000
3FFF8000
3FFF8000
3FFF8000
3FFF8000
3FFF8000
3FFF8000
3FFF8000
3FFF8000
3FFF8000
3FFF8000
3FFF8000
7FFF8000
7FFF0000
7FFF0000
7FFF0000
7FFF0000
7FFF0000
7FFF0000
7FFF0000
7FFF0000
7FFF0000
7FFF0000
7FFF0000
7FFF0000
7FFF0000
FFFF0000
FFFF0000
FFFE0000
FFFE0000
FFFE0000
FFFE0000
FFFE0000
FFFE0000
7FFE0000
7FFE0000
3FFE0000
1FFE0000
07FE0000
ENDCHAR
STARTCHAR 00CE
ENCODING 206
SWIDTH 312 0
DWIDTH 26 0
BBX 30 81 0 0
BITMAP
0007F800
001FFC00
007FFE00
00FFFE00
01FFFF00
03FFFF80
07FFFFC0
0FFFFFE0
1FFFFFE0
3FFE7FF0
7FF83FF8
FFF01FFC
FFC00FF8
7F8007F0
3E0001E0
10000040
00000000
00000000
00000000
00000000
00000000
00FFC000
00FFF000
00FFF800
00FFF800
00FFFC00
00FFFC00
01FFFC00
01FFFC00
01FFFC00
01FFFC00
01FFFC00
01FFFC00
01FFFC00
01FFFC00
01FFFC00
01FFFC00
01FFFC00
01FFFC00
01FFFC00
03FFF800
03FFF800
03FFF800
03FFF800
03FFF800
03FFF800
03FFF800
03FFF800
03FFF800
03FFF800
03FFF800
03FFF800
03FFF800
03FFF800
07FFF800
07FFF000
07FFF000
07FFF000
07FFF000
07FFF000
07FFF000
07FFF000
07FFF000
07FFF000
07FFF000
07FFF000
07FFF000
07FFF000
0FFFF000
0FFFF000
0FFFE000
0FFFE000
0FFFE000
0FFFE000
0FFFE000
0FFFE000
07FFE000
07FFE000
03FFE000
01FFE000
007FE000
ENDCHAR
STARTCHAR 00CF
ENCODING 207
SWIDTH 312 0
DWIDTH 26 0
BBX 32 77 -1 0
BITMAP
0FC001F8
3FF007FE
7FF80FFE
7FF81FFF
FFF81FFF
FFF81FFF
FFF81FFF
FFF01FFE
FFF01FFE
7FE00FFC
3F8007F0
00000000
00000000
00000000
00000000
00000000
00000000
007FE000
007FF800
007FFC00
007FFC00
007FFE00
007FFE00
00FFFE00
00FFFE00
00FFFE00
00FFFE00
00FFFE00
00FFFE00
00FFFE00
00FFFE00
00FFFE00
00FFFE00
00FFFE00
00FFFE00
00FFFE00
01FFFC00
01FFFC00
01FFFC00
01FFFC00
01FFFC00
01FFFC00
01FFFC00
01FFFC00
01FFFC00
01FFFC00
01FFFC00
01FFFC00
01FFFC00
01FFFC00
03FFFC00
03FFF800
03FFF800
03FFF800
03FFF800
03FFF800
03FFF800
03FFF800
03FFF800
03FFF800
03FFF800
03FFF800
03FFF800
03FFF800
07FFF800
07FFF800
07FFF000
07FFF000
07FFF000
07FFF000
07FFF000
07FFF000
03FFF000
03FFF000
01FFF000
00FFF000
003FF000
ENDCHAR
STARTCHAR 00D0
ENCODING 208
SWIDTH 672 0
DWIDTH 56 0
BBX 52 61 1 -1
BITMAP
01FFFFFFC00000
01FFFFFFFE0000
01FFFFFFFFC000
01FFFFFFFFE000
01FFFFFFFFF800
01FFFFFFFFFC00
01FFFFFFFFFE00
01FFFFFFFFFF00
01FFFFFFFFFF00
01FFFFFFFFFF80
01FFFFFFFFFFC0
01FFFFFFFFFFC0
01FFFFFFFFFFC0
03FFF803FFFFE0
03FFF8007FFFE0
03FFF8003FFFE0
03FFF8001FFFE0
03FFF8001FFFE0
03FFF8000FFFF0
03FFF8000FFFF0
03FFF8000FFFF0
03FFF0000FFFF0
03FFF00007FFF0
03FFF0000FFFF0
1FFFFFF007FFF0
7FFFFFF007FFF0
7FFFFFF007FFF0
FFFFFFF007FFF0
FFFFFFF007FFF0
FFFFFFF007FFF0
FFFFFFF007FFF0
FFFFFFF007FFF0
FFFFFFE00FFFE0
FFFFFFE00FFFE0
FFFFFFC00FFFE0
07FFF0000FFFE0
07FFF0000FFFE0
07FFE0000FFFE0
07FFE0001FFFC0
07FFE0001FFFC0
0FFFE0003FFFC0
0FFFE0003FFFC0
0FFFE0007FFF80
0FFFE0007FFF80
0FFFE000FFFF80
0FFFE001FFFF00
0FFFE007FFFF00
0FFFE01FFFFE00
0FFFFFFFFFFE00
0FFFFFFFFFFC00
0FFFFFFFFFF800
0FFFFFFFFFF000
0FFFFFFFFFF000
0FFFFFFFFFE000
0FFFFFFFFFC000
0FFFFFFFFF0000
0FFFFFFFFE0000
07FFFFFFF80000
03FFFFFFE00000
01FFFFFF800000
003FFFF8000000
ENDCHAR
STARTCHAR 00D1
ENCODING 209
SWIDTH 684 0
DWIDTH 57 0
BBX 49 80 4 0
BITMAP
00003F80001800
0001FFF0003C00
0003FFF8007C00
0007FFFE01FC00
000FFFFF83FC00
000FFFFFFFFC00
001FFFFFFFF800
001FFFFFFFF800
001FFFFFFFF800
003FC3FFFFF000
003F00FFFFF000
003E007FFFE000
003E003FFFC000
003C000FFF0000
00180003FC0000
00000000000000
00000000000000
00000000000000
00000000000000
00000000000000
0FFF00001FF800
0FFFC0001FFE00
0FFFE0001FFF00
0FFFF0001FFF00
0FFFF8001FFF80
0FFFF8001FFF80
1FFFFC001FFF80
1FFFFC001FFF80
1FFFFC001FFF80
1FFFFE001FFF80
1FFFFE001FFF80
1FFFFE001FFF80
1FFFFF001FFF80
1FFFFF001FFF80
1FFFFF801FFF80
1FFFFF801FFF80
1FFFFF801FFF80
1FFFFFC01FFF80
1FFFFFC01FFF80
1FFFFFE01FFF80
3FFFFFE01FFF80
3FFFFFE01FFF00
3FFFFFF01FFF00
3FFDFFF01FFF00
3FFDFFF81FFF00
3FFDFFF81FFF00
3FFCFFF81FFF00
3FFCFFFC1FFF00
3FFC7FFC1FFF00
3FFC7FFE1FFF00
3FFC3FFE1FFF00
3FFC3FFF1FFF00
3FFC1FFF1FFF00
7FFC1FFF1FFF00
7FFC0FFF9FFF00
7FFC0FFF9FFF00
7FFC07FFDFFE00
7FFC07FFDFFE00
7FFC07FFFFFE00
7FFC03FFFFFE00
7FFC03FFFFFE00
7FFC01FFFFFE00
7FFC01FFFFFE00
7FFC00FFFFFE00
7FFC00FFFFFE00
7FFE007FFFFE00
FFFE007FFFFE00
FFFE003FFFFE00
FFFE003FFFFE00
FFFE001FFFFC00
FFFE001FFFFC00
FFFE000FFFFC00
FFFE000FFFFC00
FFFE000FFFFC00
FFFE0007FFFC00
7FFE0007FFFC00
7FFE0003FFFC00
3FFE0001FFFC00
1FFE0000FFFC00
07FE00003FF800
ENDCHAR
STARTCHAR 00D2
ENCODING 210
SWIDTH 708 0
DWIDTH 59 0
BBX 53 82 3 -1
BITMAP
00000200000000
00000780000000
00000FC0000000
00001FE0000000
00003FF8000000
00003FFC000000
00007FFE000000
0000FFFF000000
0000FFFF800000
0000FFFFC00000
00007FFFE00000
00001FFFC00000
000007FFC00000
000001FFC00000
0000003F800000
00000003000000
00000000000000
00000000000000
00000000000000
00000000000000
00000000000000
000000FFF80000
00000FFFFF0000
00007FFFFFE000
0001FFFFFFF000
0003FFFFFFFC00
000FFFFFFFFE00
001FFFFFFFFF00
003FFFFFFFFF80
007FFFFFFFFF80
00FFFFFFFFFFC0
01FFFFFFFFFFC0
03FFFFFFFFFFE0
03FFFFFFFFFFE0
07FFFF80FFFFF0
07FFFE003FFFF0
0FFFFC001FFFF0
0FFFF8000FFFF0
1FFFF0000FFFF8
1FFFE00007FFF8
3FFFE00007FFF8
3FFFC00007FFF8
3FFFC00007FFF8
3FFF800003FFF8
7FFF800003FFF8
7FFF800003FFF8
7FFF800003FFF8
7FFF000003FFF8
7FFF000003FFF8
7FFF000003FFF8
7FFF000003FFF8
FFFF000003FFF8
FFFF000007FFF8
FFFF000007FFF8
FFFF000007FFF8
FFFF000007FFF8
FFFF000007FFF0
FFFF000007FFF0
FFFF00000FFFF0
FFFF00000FFFF0
7FFF00001FFFE0
7FFF80001FFFE0
7FFF80001FFFE0
7FFF80003FFFE0
7FFFC0007FFFC0
7FFFC0007FFFC0
3FFFE000FFFF80
3FFFF001FFFF80
3FFFFC07FFFF00
1FFFFFFFFFFF00
1FFFFFFFFFFE00
1FFFFFFFFFFC00
0FFFFFFFFFFC00
07FFFFFFFFF800
07FFFFFFFFF000
03FFFFFFFFE000
01FFFFFFFFC000
00FFFFFFFF0000
003FFFFFFE0000
000FFFFFF80000
0003FFFFC00000
00003FFC000000
ENDCHAR
STARTCHAR 00D3
ENCODING 211
SWIDTH 708 0
DWIDTH 59 0
BBX 53 82 3 -1
BITMAP
0000000001C000
0000000003F000
000000000FF800
000000001FFE00
000000003FFF00
00000000FFFF00
00000001FFFF80
00000003FFFF80
00000007FFFF00
0000000FFFFE00
0000000FFFF800
0000000FFFE000
0000000FFF8000
00000007FE0000
00000003F00000
00000001000000
00000000000000
00000000000000
00000000000000
00000000000000
00000000000000
000000FFF80000
00000FFFFF0000
00007FFFFFE000
0001FFFFFFF000
0003FFFFFFFC00
000FFFFFFFFE00
001FFFFFFFFF00
003FFFFFFFFF80
007FFFFFFFFF80
00FFFFFFFFFFC0
01FFFFFFFFFFC0
03FFFFFFFFFFE0
03FFFFFFFFFFE0
07FFFF80FFFFF0
07FFFE003FFFF0
0FFFFC001FFFF0
0FFFF8000FFFF0
1FFFF0000FFFF8
1FFFE00007FFF8
3FFFE00007FFF8
3FFFC00007FFF8
3FFFC00007FFF8
3FFF800003FFF8
7FFF800003FFF8
7FFF800003FFF8
7FFF800003FFF8
7FFF000003FFF8
7FFF000003FFF8
7FFF000003FFF8
7FFF000003FFF8
FFFF000003FFF8
FFFF000007FFF8
FFFF000007FFF8
FFFF000007FFF8
FFFF000007FFF8
FFFF000007FFF0
FFFF000007FFF0
FFFF00000FFFF0
FFFF00000FFFF0
7FFF00001FFFE0
7FFF80001FFFE0
7FFF80001FFFE0
7FFF80003FFFE0
7FFFC0007FFFC0
7FFFC0007FFFC0
3FFFE000FFFF80
3FFFF001FFFF80
3FFFFC07FFFF00
1FFFFFFFFFFF00
1FFFFFFFFFFE00
1FFFFFFFFFFC00
0FFFFFFFFFFC00
07FFFFFFFFF800
07FFFFFFFFF000
03FFFFFFFFE000
01FFFFFFFFC000
00FFFFFFFF0000
003FFFFFFE0000
000FFFFFF80000
0003FFFFC00000
00003FFC000000
ENDCHAR
STARTCHAR 00D4
ENCODING 212
SWIDTH 708 0
DWIDTH 59 0
BBX 53 82 3 -1
BITMAP
00000007F80000
0000001FFC0000
0000003FFE0000
0000007FFF0000
000001FFFF0000
000003FFFF8000
000007FFFFC000
00000FFFFFE000
00001FFFFFF000
00003FFE7FF000
00007FFC3FF800
0000FFF01FFC00
0000FFC00FFC00
00007F8007F800
00003E0001F000
00000800004000
00000000000000
00000000000000
00000000000000
00000000000000
00000000000000
000000FFF80000
00000FFFFF0000
00007FFFFFE000
0001FFFFFFF000
0003FFFFFFFC00
000FFFFFFFFE00
001FFFFFFFFF00
003FFFFFFFFF80
007FFFFFFFFF80
00FFFFFFFFFFC0
01FFFFFFFFFFC0
03FFFFFFFFFFE0
03FFFFFFFFFFE0
07FFFF80FFFFF0
07FFFE003FFFF0
0FFFFC001FFFF0
0FFFF8000FFFF0
1FFFF0000FFFF8
1FFFE00007FFF8
3FFFE00007FFF8
3FFFC00007FFF8
3FFFC00007FFF8
3FFF800003FFF8
7FFF800003FFF8
7FFF800003FFF8
7FFF800003FFF8
7FFF000003FFF8
7FFF000003FFF8
7FFF000003FFF8
7FFF000003FFF8
FFFF000003FFF8
FFFF000007FFF8
FFFF000007FFF8
FFFF000007FFF8
FFFF000007FFF8
FFFF000007FFF0
FFFF000007FFF0
FFFF00000FFFF0
FFFF00000FFFF0
7FFF00001FFFE0
7FFF80001FFFE0
7FFF80001FFFE0
7FFF80003FFFE0
7FFFC0007FFFC0
7FFFC0007FFFC0
3FFFE000FFFF80
3FFFF001FFFF80
3FFFFC07FFFF00
1FFFFFFFFFFF00
1FFFFFFFFFFE00
1FFFFFFFFFFC00
0FFFFFFFFFFC00
07FFFFFFFFF800
07FFFFFFFFF000
03FFFFFFFFE000
01FFFFFFFFC000
00FFFFFFFF0000
003FFFFFFE0000
000FFFFFF80000
0003FFFFC00000
00003FFC000000
ENDCHAR
STARTCHAR 00D5
ENCODING 213
SWIDTH 708 0
DWIDTH 59 0
BBX 53 81 3 -1
BITMAP
000007F0000300
00001FFE000780
00007FFF000F80
0000FFFFC01F80
0001FFFFF07F80
0001FFFFFFFF80
0003FFFFFFFF80
0003FFFFFFFF00
0003FFFFFFFF00
0007F87FFFFE00
0007E01FFFFE00
0007E00FFFFC00
0007C003FFF800
00078001FFE000
000300007F8000
00000000000000
00000000000000
00000000000000
00000000000000
00000000000000
000000FFF80000
00000FFFFF0000
00007FFFFFE000
0001FFFFFFF000
0003FFFFFFFC00
000FFFFFFFFE00
001FFFFFFFFF00
003FFFFFFFFF80
007FFFFFFFFF80
00FFFFFFFFFFC0
01FFFFFFFFFFC0
03FFFFFFFFFFE0
03FFFFFFFFFFE0
07FFFF80FFFFF0
07FFFE003FFFF0
0FFFFC001FFFF0
0FFFF8000FFFF0
1FFFF0000FFFF8
1FFFE00007FFF8
3FFFE00007FFF8
3FFFC00007FFF8
3FFFC00007FFF8
3FFF800003FFF8
7FFF800003FFF8
7FFF800003FFF8
7FFF800003FFF8
7FFF000003FFF8
7FFF000003FFF8
7FFF000003FFF8
7FFF000003FFF8
FFFF000003FFF8
FFFF000007FFF8
FFFF000007FFF8
FFFF000007FFF8
FFFF000007FFF8
FFFF000007FFF0
FFFF000007FFF0
FFFF00000FFFF0
FFFF00000FFFF0
7FFF00001FFFE0
7FFF80001FFFE0
7FFF80001FFFE0
7FFF80003FFFE0
7FFFC0007FFFC0
7FFFC0007FFFC0
3FFFE000FFFF80
3FFFF001FFFF80
3FFFFC07FFFF00
1FFFFFFFFFFF00
1FFFFFFFFFFE00
1FFFFFFFFFFC00
0FFFFFFFFFFC00
07FFFFFFFFF800
07FFFFFFFFF000
03FFFFFFFFE000
01FFFFFFFFC000
00FFFFFFFF0000
003FFFFFFE0000
000FFFFFF80000
0003FFFFC00000
00003FFC000000
ENDCHAR
STARTCHAR 00D6
ENCODING 214
SWIDTH 708 0
DWIDTH 59 0
BBX 53 78 3 -1
BITMAP
00001FC003F000
00007FE00FFC00
0000FFF01FFE00
0000FFF01FFE00
0001FFF03FFE00
0001FFF03FFE00
0001FFF03FFE00
0001FFF03FFE00
0001FFE03FFC00
0000FFC01FF800
00007F800FE000
00000000000000
00000000000000
00000000000000
00000000000000
00000000000000
00000000000000
000000FFF80000
00000FFFFF0000
00007FFFFFE000
0001FFFFFFF000
0003FFFFFFFC00
000FFFFFFFFE00
001FFFFFFFFF00
003FFFFFFFFF80
007FFFFFFFFF80
00FFFFFFFFFFC0
01FFFFFFFFFFC0
03FFFFFFFFFFE0
03FFFFFFFFFFE0
07FFFF80FFFFF0
07FFFE003FFFF0
0FFFFC001FFFF0
0FFFF8000FFFF0
1FFFF0000FFFF8
1FFFE00007FFF8
3FFFE00007FFF8
3FFFC00007FFF8
3FFFC00007FFF8
3FFF800003FFF8
7FFF800003FFF8
7FFF800003FFF8
7FFF800003FFF8
7FFF000003FFF8
7FFF000003FFF8
7FFF000003FFF8
7FFF000003FFF8
FFFF000003FFF8
FFFF000007FFF8
FFFF000007FFF8
FFFF000007FFF8
FFFF000007FFF8
FFFF000007FFF0
FFFF000007FFF0
FFFF00000FFFF0
FFFF00000FFFF0
7FFF00001FFFE0
7FFF80001FFFE0
7FFF80001FFFE0
7FFF80003FFFE0
7FFFC0007FFFC0
7FFFC0007FFFC0
3FFFE000FFFF80
3FFFF001FFFF80
3FFFFC07FFFF00
1FFFFFFFFFFF00
1FFFFFFFFFFE00
1FFFFFFFFFFC00
0FFFFFFFFFFC00
07FFFFFFFFF800
07FFFFFFFFF000
03FFFFFFFFE000
01FFFFFFFFC000
00FFFFFFFF0000
003FFFFFFE0000
000FFFFFF80000
0003FFFFC00000
00003FFC000000
ENDCHAR
STARTCHAR 00D7
ENCODING 215
SWIDTH 492 0
DWIDTH 41 0
BBX 38 38 2 9
BITMAP
0020000080
01F80001C0
03FC0003E0
07FE0007F0
0FFE000FF0
1FFF001FF8
0FFF803FF8
0FFF807FFC
07FFC0FFF8
07FFE3FFF8
03FFE7FFF8
01FFFFFFF0
01FFFFFFE0
00FFFFFFC0
007FFFFF80
007FFFFF00
003FFFFE00
003FFFFC00
001FFFF800
001FFFE000
007FFFC000
00FFFFC000
01FFFFE000
03FFFFF000
07FFFFF000
0FFFFFF800
1FFFFFF800
3FFFFFFC00
7FFFFFFE00
7FFE3FFE00
FFFC1FFF00
FFF81FFF80
7FF00FFF80
7FE007FF80
7FC007FF80
3F0003FF00
1E0001FC00
0C0000F000
ENDCHAR
STARTCHAR 00D8
ENCODING 216
SWIDTH 708 0
DWIDTH 59 0
BBX 53 72 3 -6
BITMAP
00000000000040
000000000003F0
00000000000FF0
00000000000FF0
00000000001FF0
00000000003FF0
000000FFF83FE0
00000FFFFF7FE0
00007FFFFFFFC0
0001FFFFFFFFC0
0003FFFFFFFF80
000FFFFFFFFF80
001FFFFFFFFF00
003FFFFFFFFF80
007FFFFFFFFF80
00FFFFFFFFFFC0
01FFFFFFFFFFC0
03FFFFFFFFFFE0
03FFFFFFFFFFE0
07FFFF81FFFFF0
07FFFE00FFFFF0
0FFFFC01FFFFF0
0FFFF801FFFFF0
1FFFF003FFFFF8
1FFFE007FFFFF8
3FFFE007FFFFF8
3FFFC00FFFFFF8
3FFFC01FFFFFF8
3FFF803FFFFFF8
7FFF803FFBFFF8
7FFF807FF3FFF8
7FFF80FFF3FFF8
7FFF00FFE3FFF8
7FFF01FFC3FFF8
7FFF03FFC3FFF8
7FFF03FF83FFF8
FFFF07FF03FFF8
FFFF0FFF07FFF8
FFFF1FFE07FFF8
FFFF1FFC07FFF8
FFFF3FF807FFF8
FFFF7FF807FFF0
FFFF7FF007FFF0
FFFFFFE00FFFF0
FFFFFFE00FFFF0
7FFFFFC00FFFE0
7FFFFF801FFFE0
7FFFFF801FFFE0
7FFFFF003FFFE0
7FFFFE007FFFC0
7FFFFE007FFFC0
3FFFFC00FFFF80
3FFFF801FFFF80
3FFFFC07FFFF00
3FFFFFFFFFFF00
1FFFFFFFFFFE00
1FFFFFFFFFFC00
0FFFFFFFFFFC00
07FFFFFFFFF800
07FFFFFFFFF000
07FFFFFFFFE000
0FFFFFFFFFC000
0FFFFFFFFF0000
1FFFFFFFFE0000
1FFFFFFFF80000
3FF3FFFFC00000
3FF03FFC000000
7FE00000000000
7FC00000000000
7F800000000000
7F800000000000
3E000000000000
ENDCHAR
STARTCHAR 00D9
ENCODING 217
SWIDTH 660 0
DWIDTH 55 0
BBX 46 82 5 -1
BITMAP
000080000000
0001E0000000
0003F0000000
0007FC000000
000FFE000000
000FFF000000
001FFF800000
001FFFC00000
003FFFE00000
003FFFF00000
001FFFF80000
0007FFF80000
0001FFF00000
00007FF00000
00000FE00000
000000400000
000000000000
000000000000
000000000000
000000000000
000000000000
0F8000003E00
1FFC00007FF0
3FFE0000FFF8
3FFF0000FFFC
3FFF0000FFFC
3FFF8000FFFC
3FFF8000FFFC
3FFF8000FFFC
3FFF8000FFFC
3FFF8000FFFC
3FFF8000FFFC
3FFF8000FFFC
3FFF8000FFFC
3FFF8000FFFC
3FFF8000FFFC
7FFF8000FFFC
7FFF8000FFFC
7FFF0000FFFC
7FFF0001FFFC
7FFF0001FFFC
7FFF0001FFFC
7FFF0001FFFC
7FFF0001FFFC
7FFF0001FFFC
7FFF0001FFFC
7FFF0001FFFC
7FFF0001FFFC
FFFF0001FFFC
FFFF0001FFF8
FFFF0001FFF8
FFFF0003FFF8
FFFF0003FFF8
FFFE0003FFF8
FFFE0003FFF8
FFFE0003FFF8
FFFE0003FFF8
FFFE0003FFF8
FFFE0003FFF0
FFFE0007FFF0
FFFE0007FFF0
FFFE0007FFF0
FFFE0007FFF0
FFFF000FFFE0
FFFF000FFFE0
FFFF001FFFE0
FFFF803FFFC0
FFFF807FFFC0
FFFFE0FFFFC0
7FFFFFFFFF80
7FFFFFFFFF80
7FFFFFFFFF00
3FFFFFFFFE00
3FFFFFFFFE00
1FFFFFFFFC00
0FFFFFFFF800
07FFFFFFF000
03FFFFFFE000
01FFFFFF8000
00FFFFFF0000
001FFFF80000
0003FF800000
ENDCHAR
STARTCHAR 00DA
ENCODING 218
SWIDTH 660 0
DWIDTH 55 0
BBX 46 82 5 -1
BITMAP
000000003800
00000000FC00
00000001FF00
00000007FF80
0000000FFFC0
0000001FFFE0
0000003FFFE0
0000007FFFE0
000000FFFFE0
000001FFFF80
000003FFFE00
000003FFF800
000003FFE000
000001FF8000
000000FC0000
000000400000
000000000000
000000000000
000000000000
000000000000
000000000000
0F8000003E00
1FFC00007FF0
3FFE0000FFF8
3FFF0000FFFC
3FFF0000FFFC
3FFF8000FFFC
3FFF8000FFFC
3FFF8000FFFC
3FFF8000FFFC
3FFF8000FFFC
3FFF8000FFFC
3FFF8000FFFC
3FFF8000FFFC
3FFF8000FFFC
3FFF8000FFFC
7FFF8000FFFC
7FFF8000FFFC
7FFF0000FFFC
7FFF0001FFFC
7FFF0001FFFC
7FFF0001FFFC
7FFF0001FFFC
7FFF0001FFFC
7FFF0001FFFC
7FFF0001FFFC
7FFF0001FFFC
7FFF0001FFFC
FFFF0001FFFC
FFFF0001FFF8
FFFF0001FFF8
FFFF0003FFF8
FFFF0003FFF8
FFFE0003FFF8
FFFE0003FFF8
FFFE0003FFF8
FFFE0003FFF8
FFFE0003FFF8
FFFE0003FFF0
FFFE0007FFF0
FFFE0007FFF0
FFFE0007FFF0
FFFE0007FFF0
FFFF000FFFE0
FFFF000FFFE0
FFFF001FFFE0
FFFF803FFFC0
FFFF807FFFC0
FFFFE0FFFFC0
7FFFFFFFFF80
7FFFFFFFFF80
7FFFFFFFFF00
3FFFFFFFFE00
3FFFFFFFFE00
1FFFFFFFFC00
0FFFFFFFF800
07FFFFFFF000
03FFFFFFE000
01FFFFFF8000
00FFFFFF0000
001FFFF80000
0003FF800000
ENDCHAR
STARTCHAR 00DB
ENCODING 219
SWIDTH 660 0
DWIDTH 55 0
BBX 46 82 5 -1
BITMAP
000001FE0000
000007FF0000
00000FFF8000
00001FFFC000
00003FFFE000
00007FFFE000
0000FFFFF000
0003FFFFF800
0007FFFFFC00
000FFF9FFE00
001FFF0FFE00
003FFC07FF00
001FF801FF00
001FE000FE00
000F80007C00
000200001000
000000000000
000000000000
000000000000
000000000000
000000000000
0F8000003E00
1FFC00007FF0
3FFE0000FFF8
3FFF0000FFFC
3FFF0000FFFC
3FFF8000FFFC
3FFF8000FFFC
3FFF8000FFFC
3FFF8000FFFC
3FFF8000FFFC
3FFF8000FFFC
3FFF8000FFFC
3FFF8000FFFC
3FFF8000FFFC
3FFF8000FFFC
7FFF8000FFFC
7FFF8000FFFC
7FFF0000FFFC
7FFF0001FFFC
7FFF0001FFFC
7FFF0001FFFC
7FFF0001FFFC
7FFF0001FFFC
7FFF0001FFFC
7FFF0001FFFC
7FFF0001FFFC
7FFF0001FFFC
FFFF0001FFFC
FFFF0001FFF8
FFFF0001FFF8
FFFF0003FFF8
FFFF0003FFF8
FFFE0003FFF8
FFFE0003FFF8
FFFE0003FFF8
FFFE0003FFF8
FFFE0003FFF8
FFFE0003FFF0
FFFE0007FFF0
FFFE0007FFF0
FFFE0007FFF0
FFFE0007FFF0
FFFF000FFFE0
FFFF000FFFE0
FFFF001FFFE0
FFFF803FFFC0
FFFF807FFFC0
FFFFE0FFFFC0
7FFFFFFFFF80
7FFFFFFFFF80
7FFFFFFFFF00
3FFFFFFFFE00
3FFFFFFFFE00
1FFFFFFFFC00
0FFFFFFFF800
07FFFFFFF000
03FFFFFFE000
01FFFFFF8000
00FFFFFF0000
001FFFF80000
0003FF800000
ENDCHAR
STARTCHAR 00DC
ENCODING 220
SWIDTH 660 0
DWIDTH 55 0
BBX 46 78 5 -1
BITMAP
0003F000FE00
000FF801FF00
001FFC03FF80
003FFC07FF80
003FFC0FFF80
007FFC0FFF80
007FFC0FFF80
007FFC0FFF80
003FF807FF00
003FF007FE00
000FE003FC00
000000000000
000000000000
000000000000
000000000000
000000000000
000000000000
1FF000007FC0
1FFC0000FFF8
3FFE0000FFFC
3FFF0000FFFC
3FFF0000FFFC
3FFF8000FFFC
3FFF8000FFFC
3FFF8000FFFC
3FFF8000FFFC
3FFF8000FFFC
3FFF8000FFFC
3FFF8000FFFC
3FFF8000FFFC
3FFF8000FFFC
3FFF8000FFFC
7FFF8000FFFC
7FFF8000FFFC
7FFF0001FFFC
7FFF0001FFFC
7FFF0001FFFC
7FFF0001FFFC
7FFF0001FFFC
7FFF0001FFFC
7FFF0001FFFC
7FFF0001FFFC
7FFF0001FFFC
7FFF0001FFFC
FFFF0001FFF8
FFFF0001FFF8
FFFF0001FFF8
FFFF0003FFF8
FFFF0003FFF8
FFFE0003FFF8
FFFE0003FFF8
FFFE0003FFF8
FFFE0003FFF8
FFFE0003FFF8
FFFE0003FFF0
FFFE0007FFF0
FFFE0007FFF0
FFFE0007FFF0
FFFE0007FFF0
FFFF000FFFE0
FFFF000FFFE0
FFFF001FFFE0
FFFF803FFFC0
FFFF807FFFC0
FFFFE0FFFFC0
7FFFFFFFFF80
7FFFFFFFFF80
7FFFFFFFFF00
3FFFFFFFFE00
3FFFFFFFFE00
1FFFFFFFFC00
0FFFFFFFF800
07FFFFFFF000
03FFFFFFE000
01FFFFFF8000
007FFFFE0000
001FFFF80000
0003FF800000
ENDCHAR
STARTCHAR 00DD
ENCODING 221
SWIDTH 612 0
DWIDTH 51 0
BBX 49 81 2 0
BITMAP
00000000700000
00000000FC0000
00000003FE0000
00000007FF0000
0000000FFF8000
0000003FFFC000
0000007FFFE000
000000FFFFE000
000001FFFFC000
000003FFFF8000
000003FFFE0000
000003FFF80000
000003FFE00000
000001FF800000
000001FC000000
00000040000000
00000000000000
00000000000000
00000000000000
00000000000000
00000000000000
7FC000000FF000
FFF800001FFC00
FFFC00001FFF00
FFFE00003FFF80
FFFF00003FFF80
7FFF00003FFF80
7FFF80007FFF80
7FFF80007FFF80
3FFF80007FFF00
3FFFC000FFFF00
1FFFC000FFFF00
1FFFC000FFFE00
0FFFC001FFFE00
0FFFE001FFFC00
0FFFE001FFFC00
07FFE003FFF800
07FFF003FFF800
03FFF007FFF000
03FFF007FFF000
01FFF807FFE000
01FFF80FFFE000
01FFF80FFFC000
00FFF81FFFC000
00FFFC1FFF8000
007FFC3FFF8000
007FFC3FFF0000
003FFE7FFE0000
003FFE7FFE0000
001FFE7FFC0000
001FFFFFFC0000
001FFFFFF80000
000FFFFFF00000
000FFFFFF00000
0007FFFFE00000
0007FFFFC00000
0003FFFFC00000
0003FFFF800000
0001FFFF000000
0001FFFE000000
0001FFFC000000
0001FFFC000000
0003FFFC000000
0003FFFC000000
0003FFFC000000
0003FFF8000000
0003FFF8000000
0003FFF8000000
0003FFF8000000
0003FFF8000000
0003FFF8000000
0003FFF8000000
0003FFF8000000
0003FFF8000000
0003FFF8000000
0003FFF8000000
0003FFF8000000
0001FFF8000000
0001FFF8000000
0000FFF0000000
00003FF0000000
ENDCHAR
STARTCHAR 00DE
ENCODING 222
SWIDTH 600 0
DWIDTH 50 0
BBX 44 62 4 0
BITMAP
0FFC00000000
0FFF00000000
0FFF80000000
0FFF80000000
0FFF80000000
0FFF80000000
0FFF80000000
0FFF80000000
0FFF80000000
1FFFFFFC0000
1FFFFFFFC000
1FFFFFFFF000
1FFFFFFFF800
1FFFFFFFFE00
1FFFFFFFFF00
1FFFFFFFFF80
1FFFFFFFFF80
1FFFFFFFFFC0
1FFFFFFFFFC0
1FFFFFFFFFE0
1FFFFFFFFFE0
1FFFFFFFFFE0
3FFFC03FFFE0
3FFF800FFFF0
3FFF8007FFF0
3FFF8007FFF0
3FFF8007FFF0
3FFF0003FFF0
3FFF0003FFF0
3FFF0003FFF0
3FFF0003FFF0
3FFF0003FFF0
3FFF0007FFF0
3FFF0007FFE0
3FFF0007FFE0
7FFF0007FFE0
7FFF000FFFE0
7FFF000FFFE0
7FFF001FFFC0
7FFF001FFFC0
7FFF007FFFC0
7FFF00FFFF80
7FFFFFFFFF80
7FFFFFFFFF00
7FFFFFFFFE00
7FFFFFFFFE00
7FFFFFFFFC00
7FFFFFFFF800
7FFFFFFFF000
FFFFFFFFC000
FFFFFFFF8000
FFFFFFFE0000
FFFFFFF00000
FFFE00000000
FFFC00000000
FFFC00000000
FFFC00000000
7FFC00000000
7FFC00000000
3FFC00000000
1FFC00000000
07FC00000000
ENDCHAR
STARTCHAR 00DF
ENCODING 223
SWIDTH 636 0
DWIDTH 53 0
BBX 47 64 3 -1
BITMAP
000007FFE000
00007FFFFC00
0001FFFFFF00
0007FFFFFF80
000FFFFFFFC0
001FFFFFFFE0
003FFFFFFFE0
007FFFFFFFE0
007FFFFFFFE0
00FFFFFFFFE0
01FFFFFFFFE0
01FFFF07FFE0
03FFFC03FFE0
03FFF803FFE0
03FFF003FFC0
07FFF003FFC0
07FFE007FF80
07FFE007FF80
0FFFC00FFF00
0FFFC01FFF00
0FFFC03FFE00
0FFF803FFC00
1FFF807FFC00
1FFF80FFF800
1FFF80FFF000
1FFF01FFF000
1FFF01FFE000
1FFF03FFE000
3FFF03FFE000
3FFF03FFE000
3FFF03FFE000
3FFF03FFF000
3FFF03FFF800
3FFE03FFFE00
3FFE03FFFF00
7FFE01FFFFC0
7FFE01FFFFE0
7FFE00FFFFF0
7FFE007FFFF8
7FFE003FFFF8
7FFE001FFFFC
7FFE000FFFFC
7FFE0007FFFE
7FFE0001FFFE
7FFE0000FFFE
7FFC00007FFE
FFFC00007FFE
FFFC00003FFE
FFFC00003FFE
FFFC00003FFE
FFFC00003FFE
FFFC1C003FFE
FFFC3F007FFE
FFFC3FC1FFFC
FFFC3FFFFFFC
FFFC3FFFFFFC
FFFC3FFFFFF8
FFFC3FFFFFF0
7FFC3FFFFFF0
7FF83FFFFFE0
7FF81FFFFF80
3FF807FFFF00
1FF801FFFC00
0000003FE000
ENDCHAR
STARTCHAR 00E0
ENCODING 224
SWIDTH 564 0
DWIDTH 47 0
BBX 44 71 1 -1
BITMAP
000004000000
00003E000000
0000FF000000
0003FF000000
0007FF800000
0007FF800000
0007FF800000
0007FFC00000
0003FFC00000
0001FFE00000
0001FFE00000
0000FFF00000
00007FF00000
00003FF00000
00001FF80000
00000FF00000
000007E00000
000003C00000
000001000000
000000000000
000000000000
000000000000
000000000000
00007FF80000
0007FFFF8000
001FFFFFE000
007FFFFFF000
00FFFFFFF800
01FFFFFFFC00
03FFFFFFFE00
07FFFFFFFE00
07FFFFFFFF00
0FFFFFFFFF00
0FFFFFFFFF00
0FFFF0FFFF00
0FFF807FFF00
0FFF803FFF80
0FFF003FFF80
07FF001FFF80
07FE001FFF80
03FE001FFF00
007E001FFF00
0000003FFF00
00001FFFFF00
0007FFFFFF00
003FFFFFFF00
00FFFFFFFF00
03FFFFFFFF00
07FFFFFFFF00
0FFFFFFFFF00
1FFFF83FFE00
3FFFC03FFE00
3FFF007FFE00
7FFE007FFE00
7FFE007FFE00
FFFC00FFFE00
FFFC00FFFE00
FFFC01FFFF00
FFFE03FFFF80
FFFF8FFFFFF0
FFFFFFFFFFF0
FFFFFFFFFFF0
FFFFFFFFFFF0
FFFFFFFFFFF0
7FFFFFBFFFE0
7FFFFF3FFFE0
3FFFFE3FFFE0
3FFFFC1FFFC0
0FFFF80FFF80
07FFE007FF00
00FF8003FC00
ENDCHAR
STARTCHAR 00E1
ENCODING 225
SWIDTH 564 0
DWIDTH 47 0
BBX 44 71 1 -1
BITMAP
000000040000
0000000FC000
0000000FF000
0000001FFC00
0000003FFE00
0000007FFE00
0000007FFE00
000000FFFC00
000001FFF800
000001FFF000
000003FFE000
000007FFC000
000007FF8000
00000FFF0000
00000FFE0000
00000FF80000
000007F00000
000003C00000
000001000000
000000000000
000000000000
000000000000
000000000000
00007FF80000
0007FFFF8000
001FFFFFE000
007FFFFFF000
00FFFFFFF800
01FFFFFFFC00
03FFFFFFFE00
07FFFFFFFE00
07FFFFFFFF00
0FFFFFFFFF00
0FFFFFFFFF00
0FFFF0FFFF00
0FFF807FFF00
0FFF803FFF80
0FFF003FFF80
07FF001FFF80
07FE001FFF80
03FE001FFF00
007E001FFF00
0000003FFF00
00001FFFFF00
0007FFFFFF00
003FFFFFFF00
00FFFFFFFF00
03FFFFFFFF00
07FFFFFFFF00
0FFFFFFFFF00
1FFFF83FFE00
3FFFC03FFE00
3FFF007FFE00
7FFE007FFE00
7FFE007FFE00
FFFC00FFFE00
FFFC00FFFE00
FFFC01FFFF00
FFFE03FFFF80
FFFF8FFFFFF0
FFFFFFFFFFF0
FFFFFFFFFFF0
FFFFFFFFFFF0
FFFFFFFFFFF0
7FFFFFBFFFE0
7FFFFF3FFFE0
3FFFFE3FFFE0
3FFFFC1FFFC0
0FFFF80FFF80
07FFE007FF00
00FF8003FC00
ENDCHAR
STARTCHAR 00E2
ENCODING 226
SWIDTH 564 0
DWIDTH 47 0
BBX 44 71 1 -1
BITMAP
000000100000
000003FE0000
000007FF0000
00000FFF0000
00001FFF8000
00003FFFC000
00007FFFC000
0000FFFFE000
0000FFFFE000
0001FFFFF000
0003FFBFF800
0007FF1FF800
000FFE0FFC00
001FFC07FC00
001FF807FE00
001FF003FE00
000FE001FC00
00078000F000
000200002000
000000000000
000000000000
000000000000
000000000000
00007FF80000
0007FFFF8000
001FFFFFE000
007FFFFFF000
00FFFFFFF800
01FFFFFFFC00
03FFFFFFFE00
07FFFFFFFE00
07FFFFFFFF00
0FFFFFFFFF00
0FFFFFFFFF00
0FFFF0FFFF00
0FFF807FFF00
0FFF803FFF80
0FFF003FFF80
07FF001FFF80
07FE001FFF80
03FE001FFF00
007E001FFF00
0000003FFF00
00001FFFFF00
0007FFFFFF00
003FFFFFFF00
00FFFFFFFF00
03FFFFFFFF00
07FFFFFFFF00
0FFFFFFFFF00
1FFFF83FFE00
3FFFC03FFE00
3FFF007FFE00
7FFE007FFE00
7FFE007FFE00
FFFC00FFFE00
FFFC00FFFE00
FFFC01FFFF00
FFFE03FFFF80
FFFF8FFFFFF0
FFFFFFFFFFF0
FFFFFFFFFFF0
FFFFFFFFFFF0
FFFFFFFFFFF0
7FFFFFBFFFE0
7FFFFF3FFFE0
3FFFFE3FFFE0
3FFFFC1FFFC0
0FFFF80FFF80
07FFE007FF00
00FF8003FC00
ENDCHAR
STARTCHAR 00E3
ENCODING 227
SWIDTH 564 0
DWIDTH 47 0
BBX 44 66 1 -1
BITMAP
0003FC0001C0
000FFF0003C0
001FFFC007C0
003FFFF00FC0
007FFFF83FC0
00FFFFFFFFC0
00FFFFFFFFC0
01FFFFFFFFC0
01FFFFFFFF80
01FC1FFFFF80
01F80FFFFF00
01F003FFFE00
01E001FFFC00
01C0007FF800
01C0001FC000
000000000000
000000000000
000000000000
00007FF80000
0007FFFF8000
001FFFFFE000
007FFFFFF000
00FFFFFFF800
01FFFFFFFC00
03FFFFFFFE00
07FFFFFFFE00
07FFFFFFFF00
0FFFFFFFFF00
0FFFFFFFFF00
0FFFF0FFFF00
0FFF807FFF00
0FFF803FFF80
0FFF003FFF80
07FF001FFF80
07FE001FFF80
03FE001FFF00
007E001FFF00
0000003FFF00
00001FFFFF00
0007FFFFFF00
003FFFFFFF00
00FFFFFFFF00
03FFFFFFFF00
07FFFFFFFF00
0FFFFFFFFF00
1FFFF83FFE00
3FFFC03FFE00
3FFF007FFE00
7FFE007FFE00
7FFE007FFE00
FFFC00FFFE00
FFFC00FFFE00
FFFC01FFFF00
FFFE03FFFF80
FFFF8FFFFFF0
FFFFFFFFFFF0
FFFFFFFFFFF0
FFFFFFFFFFF0
FFFFFFFFFFF0
7FFFFFBFFFE0
7FFFFF3FFFE0
3FFFFE3FFFE0
3FFFFC1FFFC0
0FFFF80FFF80
07FFE007FF00
00FF8003FC00
ENDCHAR
STARTCHAR 00E4
ENCODING 228
SWIDTH 564 0
DWIDTH 47 0
BBX 44 64 1 -1
BITMAP
0007E000FC00
001FF803FF00
003FFC07FF00
003FFC0FFF80
007FFC0FFF80
007FFC0FFF80
007FFC0FFF80
007FF80FFF00
007FF80FFF00
003FF007FE00
001FC003F800
000000000000
000000000000
000000000000
000000000000
000000000000
00007FF80000
0007FFFF8000
001FFFFFE000
007FFFFFF000
00FFFFFFF800
01FFFFFFFC00
03FFFFFFFE00
07FFFFFFFE00
07FFFFFFFF00
0FFFFFFFFF00
0FFFFFFFFF00
0FFFF0FFFF00
0FFF807FFF00
0FFF803FFF80
0FFF003FFF80
07FF001FFF80
07FE001FFF80
03FE001FFF00
007E001FFF00
0000003FFF00
00001FFFFF00
0007FFFFFF00
003FFFFFFF00
00FFFFFFFF00
03FFFFFFFF00
07FFFFFFFF00
0FFFFFFFFF00
1FFFF83FFE00
3FFFC03FFE00
3FFF007FFE00
7FFE007FFE00
7FFE007FFE00
FFFC00FFFE00
FFFC00FFFE00
FFFC01FFFF00
FFFE03FFFF80
FFFF8FFFFFF0
FFFFFFFFFFF0
FFFFFFFFFFF0
FFFFFFFFFFF0
FFFFFFFFFFF0
7FFFFFBFFFE0
7FFFFF3FFFE0
3FFFFE3FFFE0
3FFFFC1FFFC0
0FFFF80FFF80
07FFE007FF00
00FF8003FC00
ENDCHAR
STARTCHAR 00E5
ENCODING 229
SWIDTH 564 0
DWIDTH 47 0
BBX 44 64 1 -1
BITMAP
000003F00000
00000FFC0000
00003FFE0000
00003FFF0000
00007E3F0000
00007E3F0000
00007C3F0000
00007E3F0000
00007FFE0000
00003FFC0000
00001FF80000
00000FE00000
000000000000
000000000000
000000000000
000000000000
00007FF80000
0007FFFF8000
001FFFFFE000
007FFFFFF000
00FFFFFFF800
01FFFFFFFC00
03FFFFFFFE00
07FFFFFFFE00
07FFFFFFFF00
0FFFFFFFFF00
0FFFFFFFFF00
0FFFF0FFFF00
0FFF807FFF00
0FFF803FFF80
0FFF003FFF80
07FF001FFF80
07FE001FFF80
03FE001FFF00
007E001FFF00
0000003FFF00
00001FFFFF00
0007FFFFFF00
003FFFFFFF00
00FFFFFFFF00
03FFFFFFFF00
07FFFFFFFF00
0FFFFFFFFF00
1FFFF83FFE00
3FFFC03FFE00
3FFF007FFE00
7FFE007FFE00
7FFE007FFE00
FFFC00FFFE00
FFFC00FFFE00
FFFC01FFFF00
FFFE03FFFF80
FFFF8FFFFFF0
FFFFFFFFFFF0
FFFFFFFFFFF0
FFFFFFFFFFF0
FFFFFFFFFFF0
7FFFFFBFFFE0
7FFFFF3FFFE0
3FFFFE3FFFE0
3FFFFC1FFFC0
0FFFF80FFF80
07FFE007FF00
00FF8003FC00
ENDCHAR
STARTCHAR 00E6
ENCODING 230
SWIDTH 828 0
DWIDTH 69 0
BBX 66 48 1 -1
BITMAP
0000FFE00003FF0000
000FFFFC003FFFE000
003FFFFF00FFFFF800
00FFFFFF83FFFFFC00
01FFFFFFC7FFFFFE00
03FFFFFFEFFFFFFF00
07FFFFFFFFFFFFFF80
07FFFFFFFFFFFFFF80
0FFFFFFFFFFFFFFF80
0FFFFFFFFFFFFFFFC0
0FFFFFFFFFFFFFFFC0
0FFFE0FFFFFC7FFFC0
0FFF807FFFF01FFFC0
0FFF003FFFE01FFFC0
07FF003FFFE00FFFC0
03FE001FFFC00FFFC0
00FE001FFFC00FFFC0
0000001FFF801FFF80
0000001FFF801FFF80
0000001FFF803FFF80
00001FFFFF80FFFF00
0007FFFFFF07FFFE00
003FFFFFFFFFFFFC00
00FFFFFFFFFFFFF800
03FFFFFFFFFFFFF000
07FFFFFFFFFFFFC000
0FFFFFFFFFFFFF0000
1FFFF83FFFFFF80000
3FFFC03FFFFF800000
3FFF003FFF00000000
7FFE007FFF00000000
7FFE007FFF00000000
FFFC007FFF80000000
FFFC00FFFF8001C000
FFFC00FFFFC003F000
FFFE01FFFFC007F800
FFFE03FFFFE00FFC00
FFFFFFFFFFF81FFC00
FFFFFFFFFFFFFFFC00
FFFFFFFFFFFFFFFC00
FFFFFFFFFFFFFFFC00
7FFFFFFFFFFFFFFC00
7FFFFFFBFFFFFFF800
3FFFFFE1FFFFFFF800
3FFFFFC07FFFFFE000
0FFFFF003FFFFFC000
07FFF80007FFFF0000
00FFC000007FF00000
ENDCHAR
STARTCHAR 00E7
ENCODING 231
SWIDTH 504 0
DWIDTH 42 0
BBX 39 63 2 -16
BITMAP
00003FF800
0003FFFF00
000FFFFFC0
003FFFFFE0
007FFFFFF0
00FFFFFFF8
01FFFFFFFC
03FFFFFFFC
07FFFFFFFC
07FFFFFFFE
0FFFFFFFFE
0FFFF0FFFE
1FFFC07FFE
1FFFC03FFE
3FFF803FFE
3FFF003FFC
3FFF003FFC
3FFF003FF8
7FFE003FF0
7FFE003FE0
7FFE003E00
7FFE000000
7FFE000000
7FFE000000
7FFE000000
FFFE000000
FFFE000000
FFFE000000
7FFE000000
7FFE000000
7FFE000000
7FFE000000
7FFF0000E0
7FFF0001E0
7FFF8007F0
3FFFC01FE0
3FFFFFFFE0
1FFFFFFFE0
1FFFFFFFE0
0FFFFFFFC0
0FFFFFFFC0
07FFFFFF80
03FFFFFF00
01FFFFFE00
00FFFFFC00
003FFFF000
0007FFC000
0000FC0000
0000FC0000
0001FC0000
0001FFC000
0001FFF000
0001FFF800
00003FF800
00000FF800
000007F800
000607F800
000F8FF800
000FFFF800
000FFFF000
000FFFE000
0007FFC000
0001FE0000
ENDCHAR
STARTCHAR 00E8
ENCODING 232
SWIDTH 528 0
DWIDTH 44 0
BBX 41 71 2 -1
BITMAP
000002000000
00001F800000
00007F800000
0000FF800000
0003FFC00000
0003FFC00000
0003FFE00000
0003FFE00000
0001FFE00000
0000FFF00000
0000FFF00000
00007FF80000
00003FF80000
00001FF80000
00000FFC0000
000007F80000
000003F00000
000001E00000
000000800000
000000000000
000000000000
000000000000
000000000000
00001FFC0000
0000FFFFC000
0007FFFFE000
000FFFFFF800
003FFFFFFC00
007FFFFFFE00
00FFFFFFFE00
01FFFFFFFF00
03FFFFFFFF00
07FFFFFFFF00
07FFFFFFFF00
0FFFF0FFFF80
0FFFE07FFF80
1FFFC03FFF80
1FFF803FFF00
3FFF803FFF00
3FFF003FFF00
3FFF003FFF00
3FFF007FFF00
7FFE00FFFE00
7FFE01FFFC00
7FFE0FFFFC00
7FFFFFFFF800
7FFFFFFFF000
7FFFFFFFC000
FFFFFFFF8000
FFFFFFFE0000
FFFFFFF00000
FFFFFF000000
FFFE00000000
FFFE00000000
FFFE00000000
7FFE00000000
7FFE00030000
7FFF0007C000
7FFF800FF000
3FFFC01FF000
3FFFF07FF800
3FFFFFFFF800
1FFFFFFFF800
0FFFFFFFF800
0FFFFFFFF000
07FFFFFFF000
03FFFFFFE000
00FFFFFFC000
007FFFFF0000
001FFFFC0000
0001FFC00000
ENDCHAR
STARTCHAR 00E9
ENCODING 233
SWIDTH 528 0
DWIDTH 44 0
BBX 41 71 2 -1
BITMAP
000000010000
00000003F000
00000003FC00
00000007FF00
0000000FFF80
0000001FFF80
0000001FFF80
0000003FFF00
0000007FFE00
0000007FFC00
000000FFF800
000001FFF000
000001FFE000
000003FFC000
000003FF0000
000003FE0000
000001FC0000
000000F00000
000000400000
000000000000
000000000000
000000000000
000000000000
00001FFC0000
0000FFFFC000
0007FFFFE000
000FFFFFF800
003FFFFFFC00
007FFFFFFE00
00FFFFFFFE00
01FFFFFFFF00
03FFFFFFFF00
07FFFFFFFF00
07FFFFFFFF00
0FFFF0FFFF80
0FFFE07FFF80
1FFFC03FFF80
1FFF803FFF00
3FFF803FFF00
3FFF003FFF00
3FFF003FFF00
3FFF007FFF00
7FFE00FFFE00
7FFE01FFFC00
7FFE0FFFFC00
7FFFFFFFF800
7FFFFFFFF000
7FFFFFFFC000
FFFFFFFF8000
FFFFFFFE0000
FFFFFFF00000
FFFFFF000000
FFFE00000000
FFFE00000000
FFFE00000000
7FFE00000000
7FFE00030000
7FFF0007C000
7FFF800FF000
3FFFC01FF000
3FFFF07FF800
3FFFFFFFF800
1FFFFFFFF800
0FFFFFFFF800
0FFFFFFFF000
07FFFFFFF000
03FFFFFFE000
00FFFFFFC000
007FFFFF0000
001FFFFC0000
0001FFC00000
ENDCHAR
STARTCHAR 00EA
ENCODING 234
SWIDTH 528 0
DWIDTH 44 0
BBX 41 71 2 -1
BITMAP
000000100000
000001FF0000
000003FF8000
000007FF8000
00000FFFC000
00001FFFC000
00003FFFE000
00007FFFF000
0000FFFFF000
0000FFFFF800
0001FFDFF800
0003FF8FFC00
0007FF07FE00
000FFE07FE00
001FFC03FF00
000FF801FE00
0007E000FC00
0003C0007800
000100001000
000000000000
000000000000
000000000000
000000000000
00001FFC0000
0000FFFFC000
0007FFFFE000
000FFFFFF800
003FFFFFFC00
007FFFFFFE00
00FFFFFFFE00
01FFFFFFFF00
03FFFFFFFF00
07FFFFFFFF00
07FFFFFFFF00
0FFFF0FFFF80
0FFFE07FFF80
1FFFC03FFF80
1FFF803FFF00
3FFF803FFF00
3FFF003FFF00
3FFF003FFF00
3FFF007FFF00
7FFE00FFFE00
7FFE01FFFC00
7FFE0FFFFC00
7FFFFFFFF800
7FFFFFFFF000
7FFFFFFFC000
FFFFFFFF8000
FFFFFFFE0000
FFFFFFF00000
FFFFFF000000
FFFE00000000
FFFE00000000
FFFE00000000
7FFE00000000
7FFE00030000
7FFF0007C000
7FFF800FF000
3FFFC01FF000
3FFFF07FF800
3FFFFFFFF800
1FFFFFFFF800
0FFFFFFFF800
0FFFFFFFF000
07FFFFFFF000
03FFFFFFE000
00FFFFFFC000
007FFFFF0000
001FFFFC0000
0001FFC00000
ENDCHAR
STARTCHAR 00EB
ENCODING 235
SWIDTH 528 0
DWIDTH 44 0
BBX 42 64 2 -1
BITMAP
0003F0007E00
000FFC01FF80
001FFC03FF80
003FFE07FFC0
003FFE07FFC0
003FFE07FFC0
003FFE07FFC0
003FFC07FF80
003FFC07FF80
001FF803FF00
000FE001FC00
000000000000
000000000000
000000000000
000000000000
000000000000
00001FFC0000
0000FFFFC000
0007FFFFE000
000FFFFFF800
003FFFFFFC00
007FFFFFFE00
00FFFFFFFE00
01FFFFFFFF00
03FFFFFFFF00
07FFFFFFFF00
07FFFFFFFF00
0FFFF0FFFF80
0FFFE07FFF80
1FFFC03FFF80
1FFF803FFF00
3FFF803FFF00
3FFF003FFF00
3FFF003FFF00
3FFF007FFF00
7FFE00FFFE00
7FFE01FFFC00
7FFE0FFFFC00
7FFFFFFFF800
7FFFFFFFF000
7FFFFFFFC000
FFFFFFFF8000
FFFFFFFE0000
FFFFFFF00000
FFFFFF000000
FFFE00000000
FFFE00000000
FFFE00000000
7FFE00000000
7FFE00030000
7FFF0007C000
7FFF800FF000
3FFFC01FF000
3FFFF07FF800
3FFFFFFFF800
1FFFFFFFF800
0FFFFFFFF800
0FFFFFFFF000
07FFFFFFF000
03FFFFFFE000
00FFFFFFC000
007FFFFF0000
001FFFFC0000
0001FFC00000
ENDCHAR
STARTCHAR 00EC
ENCODING 236
SWIDTH 276 0
DWIDTH 23 0
BBX 18 70 1 0
BITMAP
004000
07E000
1FE000
3FF000
7FF000
FFF000
FFF800
7FF800
7FFC00
3FFC00
1FFC00
1FFE00
0FFE00
07FF00
03FF00
01FF00
00FE00
007C00
001000
000000
000000
000000
000000
000000
07FC00
07FF00
07FF80
07FFC0
07FFC0
07FFC0
07FFC0
07FFC0
07FFC0
0FFFC0
0FFFC0
0FFFC0
0FFFC0
0FFFC0
0FFFC0
0FFFC0
0FFFC0
0FFFC0
0FFFC0
0FFFC0
0FFFC0
0FFFC0
1FFFC0
1FFF80
1FFF80
1FFF80
1FFF80
1FFF80
1FFF80
1FFF80
1FFF80
1FFF80
1FFF80
1FFF80
1FFF80
1FFF00
1FFF00
3FFF00
3FFF00
1FFF00
1FFF00
1FFF00
1FFF00
0FFF00
07FF00
01FE00
ENDCHAR
STARTCHAR 00ED
ENCODING 237
SWIDTH 276 0
DWIDTH 23 0
BBX 25 70 3 0
BITMAP
00010000
0003E000
0007F800
000FFE00
000FFF00
001FFF80
003FFF00
007FFF00
007FFE00
00FFFC00
01FFF800
01FFE000
03FFC000
07FF8000
07FF0000
07FE0000
03F80000
01F00000
00400000
00000000
00000000
00000000
00000000
00000000
1FF00000
1FFC0000
1FFE0000
1FFF0000
1FFF0000
1FFF0000
1FFF0000
1FFF0000
1FFF0000
3FFF0000
3FFF0000
3FFF0000
3FFF0000
3FFF0000
3FFF0000
3FFF0000
3FFF0000
3FFF0000
3FFF0000
3FFF0000
3FFF0000
3FFF0000
7FFF0000
7FFE0000
7FFE0000
7FFE0000
7FFE0000
7FFE0000
7FFE0000
7FFE0000
7FFE0000
7FFE0000
7FFE0000
7FFE0000
7FFE0000
7FFC0000
7FFC0000
FFFC0000
FFFC0000
7FFC0000
7FFC0000
7FFC0000
7FFC0000
3FFC0000
1FFC0000
07F80000
ENDCHAR
STARTCHAR 00EE
ENCODING 238
SWIDTH 276 0
DWIDTH 23 0
BBX 28 70 -2 0
BITMAP
00008000
001FF000
003FF800
007FFC00
00FFFC00
01FFFE00
01FFFE00
03FFFF00
07FFFF80
0FFFFF80
1FFEFFC0
3FFCFFC0
7FF87FE0
7FE03FE0
FFC01FF0
FF801FF0
7F000FE0
3C0003C0
10000100
00000000
00000000
00000000
00000000
00000000
00FF8000
00FFE000
00FFF000
00FFF800
00FFF800
00FFF800
00FFF800
00FFF800
00FFF800
01FFF800
01FFF800
01FFF800
01FFF800
01FFF800
01FFF800
01FFF800
01FFF800
01FFF800
01FFF800
01FFF800
01FFF800
01FFF800
03FFF800
03FFF000
03FFF000
03FFF000
03FFF000
03FFF000
03FFF000
03FFF000
03FFF000
03FFF000
03FFF000
03FFF000
03FFF000
03FFE000
03FFE000
07FFE000
07FFE000
03FFE000
03FFE000
03FFE000
03FFE000
01FFE000
00FFE000
003FC000
ENDCHAR
STARTCHAR 00EF
ENCODING 239
SWIDTH 276 0
DWIDTH 23 0
BBX 32 63 -2 0
BITMAP
0FE001FC
3FF007FE
3FF80FFF
7FF80FFF
7FFC0FFF
FFF81FFF
FFF81FFF
7FF81FFF
7FF00FFE
7FE00FFC
1F8003F0
00000000
00000000
00000000
00000000
00000000
00000000
00FF8000
00FFE000
00FFF000
00FFF800
00FFF800
00FFF800
00FFF800
00FFF800
00FFF800
01FFF800
01FFF800
01FFF800
01FFF800
01FFF800
01FFF800
01FFF800
01FFF800
01FFF800
01FFF800
01FFF800
01FFF800
01FFF800
03FFF800
03FFF000
03FFF000
03FFF000
03FFF000
03FFF000
03FFF000
03FFF000
03FFF000
03FFF000
03FFF000
03FFF000
03FFF000
03FFE000
03FFE000
07FFE000
07FFE000
03FFE000
03FFE000
03FFE000
03FFE000
01FFE000
00FFE000
003FC000
ENDCHAR
STARTCHAR 00F0
ENCODING 240
SWIDTH 600 0
DWIDTH 50 0
BBX 48 64 1 -1
BITMAP
00000FF00000
00007FFE0000
0000FFFF8000
0001FFFFC00C
0001FFFFF03E
0001FFFFF9FE
0001FFFFFFFF
0001FFFFFFFF
0001FFFFFFFF
0001FFFFFFFF
00000FFFFFFF
000001FFFFFE
000007FFFFFC
00000FFFFFF8
00001FFFFFE0
00001FFFFFE0
00003FFFFFF0
00003FFFFFF0
00003FFFFFF0
00001FFFFFF8
00001FF3FFF8
00001F81FFF8
00000E01FFF8
00000001FFFC
00000001FFFC
0003FE01FFFC
001FFF81FFFC
007FFFE1FFFC
00FFFFF1FFFC
03FFFFF9FFFC
07FFFFFDFFFC
0FFFFFFFFFFC
0FFFFFFFFFFC
1FFFFFFFFFFC
3FFFFFFFFFFC
3FFFF07FFFFC
3FFFC01FFFFC
7FFF801FFFFC
7FFF800FFFFC
7FFF000FFFFC
7FFF0007FFFC
FFFF0007FFF8
FFFF0007FFF8
FFFF0007FFF8
FFFF0007FFF8
FFFF0007FFF0
FFFF800FFFF0
7FFF800FFFF0
7FFFC01FFFE0
7FFFE01FFFE0
7FFFF07FFFC0
7FFFFFFFFFC0
3FFFFFFFFF80
3FFFFFFFFF80
1FFFFFFFFF00
1FFFFFFFFF00
0FFFFFFFFE00
07FFFFFFFC00
03FFFFFFF800
01FFFFFFF000
00FFFFFFC000
003FFFFF0000
000FFFFC0000
0000FFC00000
ENDCHAR
STARTCHAR 00F1
ENCODING 241
SWIDTH 612 0
DWIDTH 51 0
BBX 45 65 3 0
BITMAP
00007F000030
0003FFC00078
0007FFF000F8
000FFFFC03F8
001FFFFF07F8
001FFFFFFFF8
003FFFFFFFF0
003FFFFFFFF0
007FFFFFFFF0
007F87FFFFE0
007E01FFFFE0
007C00FFFFC0
007C007FFF80
0078001FFE00
00300007F800
000000000000
000000000000
000000000000
0000003FF000
1FF001FFFE00
1FFC07FFFF00
1FFE0FFFFF80
1FFF1FFFFFC0
1FFF3FFFFFE0
1FFF7FFFFFE0
1FFF7FFFFFE0
3FFFFFFFFFF0
3FFFFFFFFFF0
3FFFFFFFFFF0
3FFFFE1FFFF0
3FFFF807FFF0
3FFFF003FFF0
3FFFE003FFF0
3FFFC003FFF0
3FFFC003FFF0
3FFF8003FFF0
3FFF8003FFF0
3FFF8003FFF0
3FFF8003FFF0
3FFF0003FFF0
7FFF0003FFF0
7FFF0003FFF0
7FFF0003FFF0
7FFF0003FFF0
7FFE0003FFF0
7FFE0003FFF0
7FFE0003FFE0
7FFE0007FFE0
7FFE0007FFE0
7FFE0007FFE0
7FFE0007FFE0
7FFE0007FFE0
7FFE0007FFE0
7FFC0007FFE0
FFFC0007FFE0
FFFC0007FFE0
FFFC0007FFE0
FFFC0007FFE0
FFFC0007FFC0
7FFC0007FFC0
7FFC0007FFC0
7FFC0007FFC0
3FFC0003FFC0
1FFC0001FFC0
07F800007FC0
ENDCHAR
STARTCHAR 00F2
ENCODING 242
SWIDTH 600 0
DWIDTH 50 0
BBX 45 71 2 -1
BITMAP
000000800000
00000FC00000
00003FC00000
00007FE00000
0000FFE00000
0001FFE00000
0001FFF00000
0000FFF00000
0000FFF80000
00007FF80000
00003FF80000
00003FFC0000
00001FFC0000
00000FFE0000
000007FE0000
000003FC0000
000001FC0000
000000F00000
000000200000
000000000000
000000000000
000000000000
000000000000
00001FFE0000
0001FFFFE000
0007FFFFF800
001FFFFFFC00
003FFFFFFF00
00FFFFFFFF80
01FFFFFFFF80
03FFFFFFFFC0
03FFFFFFFFE0
07FFFFFFFFE0
0FFFFFFFFFE0
0FFFF83FFFF0
1FFFE00FFFF0
1FFFC007FFF0
3FFF8003FFF0
3FFF8003FFF8
3FFF0003FFF8
7FFF0003FFF8
7FFE0001FFF8
7FFE0001FFF8
7FFE0001FFF8
7FFE0001FFF8
7FFE0001FFF8
7FFE0003FFF8
FFFE0003FFF8
FFFE0003FFF0
FFFE0003FFF0
FFFE0003FFF0
FFFE0003FFF0
FFFE0007FFF0
7FFE0007FFE0
7FFE000FFFE0
7FFE000FFFE0
7FFF001FFFC0
7FFF003FFFC0
7FFF807FFF80
3FFFE1FFFF80
3FFFFFFFFF00
3FFFFFFFFF00
1FFFFFFFFE00
1FFFFFFFFC00
0FFFFFFFF800
07FFFFFFF000
03FFFFFFE000
01FFFFFFC000
007FFFFF0000
001FFFFC0000
0003FFC00000
ENDCHAR
STARTCHAR 00F3
ENCODING 243
SWIDTH 600 0
DWIDTH 50 0
BBX 45 71 2 -1
BITMAP
000000008000
00000001F000
00000003FC00
00000007FF00
0000000FFF80
0000000FFFC0
0000001FFF80
0000003FFF00
0000003FFF00
0000007FFE00
000000FFFC00
000000FFF000
000001FFE000
000003FFC000
000003FF8000
000003FE0000
000001FC0000
000000F80000
000000200000
000000000000
000000000000
000000000000
000000000000
00001FFE0000
0001FFFFE000
0007FFFFF800
001FFFFFFC00
003FFFFFFF00
00FFFFFFFF80
01FFFFFFFF80
03FFFFFFFFC0
03FFFFFFFFE0
07FFFFFFFFE0
0FFFFFFFFFE0
0FFFF83FFFF0
1FFFE00FFFF0
1FFFC007FFF0
3FFF8003FFF0
3FFF8003FFF8
3FFF0003FFF8
7FFF0003FFF8
7FFE0001FFF8
7FFE0001FFF8
7FFE0001FFF8
7FFE0001FFF8
7FFE0001FFF8
7FFE0003FFF8
FFFE0003FFF8
FFFE0003FFF0
FFFE0003FFF0
FFFE0003FFF0
FFFE0003FFF0
FFFE0007FFF0
7FFE0007FFE0
7FFE000FFFE0
7FFE000FFFE0
7FFF001FFFC0
7FFF003FFFC0
7FFF807FFF80
3FFFE1FFFF80
3FFFFFFFFF00
3FFFFFFFFF00
1FFFFFFFFE00
1FFFFFFFFC00
0FFFFFFFF800
07FFFFFFF000
03FFFFFFE000
01FFFFFFC000
007FFFFF0000
001FFFFC0000
0003FFC00000
ENDCHAR
STARTCHAR 00F4
ENCODING 244
SWIDTH 600 0
DWIDTH 50 0
BBX 45 71 2 -1
BITMAP
000000080000
000000FF8000
000001FFC000
000003FFC000
000007FFE000
00000FFFE000
00001FFFF000
00003FFFF800
00007FFFF800
0000FFFFFC00
0000FFEFFC00
0001FFC7FE00
0003FF87FE00
0007FF03FF00
000FFE01FF80
0007F800FF00
0007F0007E00
0003E0003C00
000080000800
000000000000
000000000000
000000000000
000000000000
00001FFE0000
0001FFFFE000
0007FFFFF800
001FFFFFFC00
003FFFFFFF00
00FFFFFFFF80
01FFFFFFFF80
03FFFFFFFFC0
03FFFFFFFFE0
07FFFFFFFFE0
0FFFFFFFFFE0
0FFFF83FFFF0
1FFFE00FFFF0
1FFFC007FFF0
3FFF8003FFF0
3FFF8003FFF8
3FFF0003FFF8
7FFF0003FFF8
7FFE0001FFF8
7FFE0001FFF8
7FFE0001FFF8
7FFE0001FFF8
7FFE0001FFF8
7FFE0003FFF8
FFFE0003FFF8
FFFE0003FFF0
FFFE0003FFF0
FFFE0003FFF0
FFFE0003FFF0
FFFE0007FFF0
7FFE0007FFE0
7FFE000FFFE0
7FFE000FFFE0
7FFF001FFFC0
7FFF003FFFC0
7FFF807FFF80
3FFFE1FFFF80
3FFFFFFFFF00
3FFFFFFFFF00
1FFFFFFFFE00
1FFFFFFFFC00
0FFFFFFFF800
07FFFFFFF000
03FFFFFFE000
01FFFFFFC000
007FFFFF0000
001FFFFC0000
0003FFC00000
ENDCHAR
STARTCHAR 00F5
ENCODING 245
SWIDTH 600 0
DWIDTH 50 0
BBX 45 66 2 -1
BITMAP
00007F000030
0003FFC00078
0007FFF000F8
000FFFFC03F8
001FFFFF07F8
003FFFFFFFF8
003FFFFFFFF0
003FFFFFFFF0
007FFFFFFFF0
007F87FFFFE0
007E01FFFFC0
007C00FFFFC0
0078007FFF80
0078001FFE00
00300007F800
000000000000
000000000000
000000000000
00001FFE0000
0001FFFFE000
0007FFFFF800
001FFFFFFC00
003FFFFFFF00
00FFFFFFFF80
01FFFFFFFF80
03FFFFFFFFC0
03FFFFFFFFE0
07FFFFFFFFE0
0FFFFFFFFFE0
0FFFF83FFFF0
1FFFE00FFFF0
1FFFC007FFF0
3FFF8003FFF0
3FFF8003FFF8
3FFF0003FFF8
7FFF0003FFF8
7FFE0001FFF8
7FFE0001FFF8
7FFE0001FFF8
7FFE0001FFF8
7FFE0001FFF8
7FFE0003FFF8
FFFE0003FFF8
FFFE0003FFF0
FFFE0003FFF0
FFFE0003FFF0
FFFE0003FFF0
FFFE0007FFF0
7FFE0007FFE0
7FFE000FFFE0
7FFE000FFFE0
7FFF001FFFC0
7FFF003FFFC0
7FFF807FFF80
3FFFE1FFFF80
3FFFFFFFFF00
3FFFFFFFFF00
1FFFFFFFFE00
1FFFFFFFFC00
0FFFFFFFF800
07FFFFFFF000
03FFFFFFE000
01FFFFFFC000
007FFFFF0000
001FFFFC0000
0003FFC00000
ENDCHAR
STARTCHAR 00F6
ENCODING 246
SWIDTH 600 0
DWIDTH 50 0
BBX 45 64 2 -1
BITMAP
0001F8003F00
0007FC00FF80
000FFE01FFC0
001FFE03FFC0
001FFF03FFC0
003FFF07FFC0
003FFE07FFC0
001FFE07FFC0
001FFC03FF80
001FF803FF00
0007F000FE00
000000000000
000000000000
000000000000
000000000000
000000000000
00001FFE0000
0001FFFFE000
0007FFFFF800
001FFFFFFC00
003FFFFFFF00
00FFFFFFFF80
01FFFFFFFF80
03FFFFFFFFC0
03FFFFFFFFE0
07FFFFFFFFE0
0FFFFFFFFFE0
0FFFF83FFFF0
1FFFE00FFFF0
1FFFC007FFF0
3FFF8003FFF0
3FFF8003FFF8
3FFF0003FFF8
7FFF0003FFF8
7FFE0001FFF8
7FFE0001FFF8
7FFE0001FFF8
7FFE0001FFF8
7FFE0001FFF8
7FFE0003FFF8
FFFE0003FFF8
FFFE0003FFF0
FFFE0003FFF0
FFFE0003FFF0
FFFE0003FFF0
FFFE0007FFF0
7FFE0007FFE0
7FFE000FFFE0
7FFE000FFFE0
7FFF001FFFC0
7FFF003FFFC0
7FFF807FFF80
3FFFE1FFFF80
3FFFFFFFFF00
3FFFFFFFFF00
1FFFFFFFFE00
1FFFFFFFFC00
0FFFFFFFF800
07FFFFFFF000
03FFFFFFE000
01FFFFFFC000
007FFFFF0000
001FFFFC0000
0003FFC00000
ENDCHAR
STARTCHAR 00F7
ENCODING 247
SWIDTH 480 0
DWIDTH 40 0
BBX 36 47 2 0
BITMAP
00003F8000
0000FFC000
0001FFE000
0003FFF000
0003FFF000
0003FFF000
0003FFF000
0007FFF000
0007FFF000
0003FFE000
0003FFE000
0003FFC000
0001FF8000
0000FE0000
0000000000
0000000000
0000000000
0000000000
1FFFFFFFF0
7FFFFFFFF0
7FFFFFFFF0
FFFFFFFFF0
FFFFFFFFF0
FFFFFFFFE0
FFFFFFFFE0
FFFFFFFFE0
FFFFFFFFC0
FFFFFFFF80
0000000000
0000000000
0000000000
0000000000
0000000000
0003F00000
000FFC0000
001FFE0000
003FFE0000
007FFE0000
007FFE0000
007FFE0000
007FFE0000
007FFE0000
007FFE0000
007FFC0000
003FFC0000
001FF00000
000FE00000
ENDCHAR
STARTCHAR 00F8
ENCODING 248
SWIDTH 600 0
DWIDTH 50 0
BBX 45 59 2 -6
BITMAP
0000000001E0
0000000007F0
000000000FF0
000000001FF0
000000003FF0
000000003FF0
00001FFE7FE0
0001FFFFFFE0
0007FFFFFFC0
001FFFFFFF80
003FFFFFFF80
00FFFFFFFF00
01FFFFFFFF80
03FFFFFFFFC0
03FFFFFFFFC0
07FFFFFFFFE0
0FFFFFFFFFE0
0FFFF87FFFF0
1FFFE07FFFF0
1FFF80FFFFF0
3FFF81FFFFF0
3FFF03FFFFF8
3FFE03FFFFF8
7FFE07FFFFF8
7FFC0FFFFFF8
7FFC0FFEFFF8
7FFC1FFCFFF8
7FFC3FFCFFF8
7FF87FF8FFF8
7FF87FF0FFF8
FFF8FFF0FFF8
FFF9FFE1FFF0
FFF9FFC1FFF0
FFFBFFC1FFF0
FFFFFF81FFF0
FFFFFF03FFF0
7FFFFE03FFE0
7FFFFE07FFE0
7FFFFC07FFE0
7FFFF80FFFC0
7FFFF81FFFC0
7FFFF03FFFC0
3FFFE1FFFF80
3FFFFFFFFF00
3FFFFFFFFF00
1FFFFFFFFE00
0FFFFFFFFC00
0FFFFFFFF800
0FFFFFFFF000
0FFFFFFFE000
1FFFFFFFC000
1FFFFFFF0000
3FFFFFFC0000
3FF3FFC00000
3FE000000000
7FE000000000
7FC000000000
3F8000000000
3E0000000000
ENDCHAR
STARTCHAR 00F9
ENCODING 249
SWIDTH 600 0
DWIDTH 50 0
BBX 42 71 4 -1
BITMAP
000008000000
0000FC000000
0003FC000000
0007FE000000
000FFE000000
001FFE000000
001FFF000000
000FFF000000
000FFF800000
0007FF800000
0003FFC00000
0003FFC00000
0001FFC00000
0000FFE00000
00007FE00000
00003FE00000
00001FC00000
00000F800000
000002000000
000000000000
000000000000
000000000000
000000000000
000000000000
3FE00007FC00
3FF80007FF00
3FFC0007FF80
3FFE000FFF80
3FFE000FFFC0
7FFE000FFFC0
7FFE000FFFC0
7FFE000FFFC0
7FFE000FFFC0
7FFE000FFFC0
7FFE000FFFC0
7FFE000FFFC0
7FFE000FFFC0
7FFE000FFFC0
7FFE000FFFC0
7FFE000FFFC0
7FFE000FFF80
7FFC001FFF80
7FFC001FFF80
FFFC001FFF80
FFFC001FFF80
FFFC001FFF80
FFFC001FFF80
FFFC001FFF80
FFFC003FFF80
FFFC003FFF80
FFFC003FFF80
FFFC003FFF80
FFFC007FFF80
FFFC007FFF00
FFFC007FFF00
FFFC00FFFF00
FFFC00FFFF00
FFFE01FFFF00
FFFE03FFFF00
FFFFCFFFFF00
FFFFFFFFFF00
FFFFFFFFFF00
FFFFFFFFFF00
7FFFFFFFFF00
7FFFFFBFFF00
3FFFFF3FFF00
1FFFFE1FFE00
0FFFFC1FFE00
07FFF80FFE00
03FFF003FE00
007F80000000
ENDCHAR
STARTCHAR 00FA
ENCODING 250
SWIDTH 600 0
DWIDTH 50 0
BBX 42 71 4 -1
BITMAP
000000080000
0000001F0000
0000003FC000
0000007FF000
0000007FF800
000000FFFC00
000001FFF800
000001FFF800
000003FFF000
000007FFE000
00000FFFC000
00000FFF8000
00001FFE0000
00001FFC0000
00003FF80000
00003FF00000
00001FC00000
00000F800000
000002000000
000000000000
000000000000
000000000000
000000000000
000000000000
3FE00007FC00
3FF80007FF00
3FFC0007FF80
3FFE000FFF80
3FFE000FFFC0
7FFE000FFFC0
7FFE000FFFC0
7FFE000FFFC0
7FFE000FFFC0
7FFE000FFFC0
7FFE000FFFC0
7FFE000FFFC0
7FFE000FFFC0
7FFE000FFFC0
7FFE000FFFC0
7FFE000FFFC0
7FFE000FFF80
7FFC001FFF80
7FFC001FFF80
FFFC001FFF80
FFFC001FFF80
FFFC001FFF80
FFFC001FFF80
FFFC001FFF80
FFFC003FFF80
FFFC003FFF80
FFFC003FFF80
FFFC003FFF80
FFFC007FFF80
FFFC007FFF00
FFFC007FFF00
FFFC00FFFF00
FFFC00FFFF00
FFFE01FFFF00
FFFE03FFFF00
FFFFCFFFFF00
FFFFFFFFFF00
FFFFFFFFFF00
FFFFFFFFFF00
7FFFFFFFFF00
7FFFFFBFFF00
3FFFFF3FFF00
1FFFFE1FFE00
0FFFFC1FFE00
07FFF80FFE00
03FFF003FE00
007F80000000
ENDCHAR
STARTCHAR 00FB
ENCODING 251
SWIDTH 600 0
DWIDTH 50 0
BBX 42 71 4 -1
BITMAP
000000800000
00001FF00000
00003FF80000
00007FFC0000
0000FFFC0000
0001FFFE0000
0001FFFE0000
0003FFFF0000
0007FFFF8000
000FFFFF8000
001FFEFFC000
003FFCFFC000
007FF87FE000
007FE03FF000
00FFC01FF000
00FF801FF000
007F000FE000
003C0003C000
000800010000
000000000000
000000000000
000000000000
000000000000
000000000000
3FE00007FC00
3FF80007FF00
3FFC0007FF80
3FFE000FFF80
3FFE000FFFC0
7FFE000FFFC0
7FFE000FFFC0
7FFE000FFFC0
7FFE000FFFC0
7FFE000FFFC0
7FFE000FFFC0
7FFE000FFFC0
7FFE000FFFC0
7FFE000FFFC0
7FFE000FFFC0
7FFE000FFFC0
7FFE000FFF80
7FFC001FFF80
7FFC001FFF80
FFFC001FFF80
FFFC001FFF80
FFFC001FFF80
FFFC001FFF80
FFFC001FFF80
FFFC003FFF80
FFFC003FFF80
FFFC003FFF80
FFFC003FFF80
FFFC007FFF80
FFFC007FFF00
FFFC007FFF00
FFFC00FFFF00
FFFC00FFFF00
FFFE01FFFF00
FFFE03FFFF00
FFFFCFFFFF00
FFFFFFFFFF00
FFFFFFFFFF00
FFFFFFFFFF00
7FFFFFFFFF00
7FFFFFBFFF00
3FFFFF3FFF00
1FFFFE1FFE00
0FFFFC1FFE00
07FFF80FFE00
03FFF003FE00
007F80000000
ENDCHAR
STARTCHAR 00FC
ENCODING 252
SWIDTH 600 0
DWIDTH 50 0
BBX 42 63 4 -1
BITMAP
001F8003F000
007FE00FF800
00FFE01FFC00
01FFF03FFE00
01FFF03FFE00
01FFF03FFE00
01FFF03FFC00
01FFE03FFC00
01FFE03FF800
00FFC03FF800
007F000FE000
000000000000
000000000000
000000000000
000000000000
000000000000
3FE00007FC00
3FF80007FF00
3FFC0007FF80
3FFE000FFF80
3FFE000FFFC0
7FFE000FFFC0
7FFE000FFFC0
7FFE000FFFC0
7FFE000FFFC0
7FFE000FFFC0
7FFE000FFFC0
7FFE000FFFC0
7FFE000FFFC0
7FFE000FFFC0
7FFE000FFFC0
7FFE000FFFC0
7FFE000FFF80
7FFC001FFF80
7FFC001FFF80
FFFC001FFF80
FFFC001FFF80
FFFC001FFF80
FFFC001FFF80
FFFC001FFF80
FFFC003FFF80
FFFC003FFF80
FFFC003FFF80
FFFC003FFF80
FFFC007FFF80
FFFC007FFF00
FFFC007FFF00
FFFC00FFFF00
FFFC00FFFF00
FFFE01FFFF00
FFFE03FFFF00
FFFFCFFFFF00
FFFFFFFFFF00
FFFFFFFFFF00
FFFFFFFFFF00
7FFFFFFFFF00
7FFFFFBFFF00
3FFFFF3FFF00
1FFFFE1FFE00
0FFFFC1FFE00
07FFF80FFE00
03FFF003FE00
007F80000000
ENDCHAR
STARTCHAR 00FD
ENCODING 253
SWIDTH 612 0
DWIDTH 51 0
BBX 44 86 3 -16
BITMAP
0000000F0000
0000000FE000
0000001FF800
0000003FFC00
0000003FFE00
0000007FFE00
000000FFFC00
000000FFF800
000001FFF800
000003FFF000
000007FFC000
000007FF8000
00000FFF0000
00000FFE0000
00001FFC0000
00000FF00000
000007E00000
000003800000
000000000000
000000000000
000000000000
000000000000
000000000000
07000000F000
1FF80001FF80
1FFE0003FFC0
1FFE0003FFE0
1FFF0003FFE0
1FFF0003FFF0
3FFF0003FFF0
3FFF0003FFF0
3FFF0003FFF0
3FFF0003FFF0
3FFF0003FFF0
3FFF0003FFF0
3FFF0003FFF0
3FFF0007FFE0
3FFF0007FFE0
3FFF0007FFE0
3FFF0007FFE0
3FFF0007FFE0
3FFE0007FFE0
7FFE0007FFE0
7FFE0007FFE0
7FFE0007FFE0
7FFE000FFFE0
7FFE000FFFE0
7FFE000FFFE0
7FFE000FFFE0
7FFE001FFFE0
7FFE001FFFC0
7FFE003FFFC0
7FFE003FFFC0
7FFF007FFFC0
7FFF00FFFFC0
7FFFC3FFFFC0
7FFFFFFFFFC0
3FFFFFFFFFC0
3FFFFFFFFFC0
3FFFFFFFFFC0
1FFFFFEFFFC0
1FFFFFEFFFC0
0FFFFFCFFFC0
07FFFF8FFF80
03FFFF0FFF80
00FFFC1FFF80
003FE01FFF80
0000001FFF80
0000001FFF80
0000001FFF80
0780003FFF80
3FC0003FFF80
7FC0007FFF00
FFE000FFFF00
FFF001FFFF00
FFFC07FFFE00
FFFFFFFFFE00
FFFFFFFFFC00
FFFFFFFFF800
7FFFFFFFF800
7FFFFFFFF000
1FFFFFFFE000
0FFFFFFF8000
03FFFFFF0000
00FFFFF80000
000FFF800000
ENDCHAR
STARTCHAR 00FE
ENCODING 254
SWIDTH 612 0
DWIDTH 51 0
BBX 46 78 2 -16
BITMAP
07FC00000000
07FF00000000
07FF80000000
07FFC0000000
07FFC0000000
07FFC0000000
07FFE0000000
07FFE0000000
07FFE0000000
07FFE0000000
07FFE0000000
07FFC0000000
07FFC0000000
07FFC0000000
0FFFC0000000
0FFFC03FC000
0FFFC1FFF800
0FFFC3FFFE00
0FFFC7FFFF00
0FFFCFFFFF80
0FFFDFFFFFC0
0FFFFFFFFFE0
0FFFFFFFFFE0
0FFFFFFFFFF0
0FFFFFFFFFF0
0FFFFFFFFFF0
0FFFFC3FFFF8
1FFFF00FFFF8
1FFFE007FFF8
1FFFC007FFF8
1FFFC003FFF8
1FFF8003FFFC
1FFF8003FFFC
1FFF8001FFFC
1FFF0001FFFC
1FFF0001FFFC
1FFF0001FFFC
1FFF0001FFFC
1FFF0001FFFC
1FFF0001FFFC
3FFF0001FFF8
3FFF0001FFF8
3FFF0003FFF8
3FFF0003FFF8
3FFF0003FFF8
3FFF0003FFF8
3FFF0007FFF0
3FFF8007FFF0
3FFF800FFFF0
3FFFC01FFFE0
3FFFE03FFFE0
3FFFF0FFFFE0
7FFFFFFFFFC0
7FFFFFFFFF80
7FFFFFFFFF80
7FFFFFFFFF00
7FFEFFFFFE00
7FFEFFFFFC00
7FFE7FFFF800
7FFE3FFFF000
7FFE1FFFE000
7FFE0FFF8000
7FFE03FC0000
7FFE00000000
7FFC00000000
7FFC00000000
FFFC00000000
FFFC00000000
FFFC00000000
FFFC00000000
FFFC00000000
FFFC00000000
FFFC00000000
7FFC00000000
7FFC00000000
3FFC00000000
1FFC00000000
07F800000000
ENDCHAR
STARTCHAR 00FF
ENCODING 255
SWIDTH 612 0
DWIDTH 51 0
BBX 44 80 3 -16
BITMAP
000FE001FC00
001FF007FE00
003FF80FFF00
007FF80FFF00
00FFF81FFF00
00FFF81FFF00
00FFF81FFF00
00FFF81FFF00
007FF00FFE00
007FE00FFC00
003FC007F800
000000000000
000000000000
000000000000
000000000000
000000000000
000000000000
0FF00001FE00
1FFC0003FF80
1FFE0003FFC0
1FFF0003FFE0
1FFF0003FFE0
3FFF0003FFF0
3FFF0003FFF0
3FFF0003FFF0
3FFF0003FFF0
3FFF0003FFF0
3FFF0003FFF0
3FFF0003FFF0
3FFF0003FFE0
3FFF0007FFE0
3FFF0007FFE0
3FFF0007FFE0
3FFF0007FFE0
3FFF0007FFE0
3FFE0007FFE0
7FFE0007FFE0
7FFE0007FFE0
7FFE0007FFE0
7FFE000FFFE0
7FFE000FFFE0
7FFE000FFFE0
7FFE000FFFE0
7FFE001FFFE0
7FFE001FFFC0
7FFE003FFFC0
7FFE003FFFC0
7FFE007FFFC0
7FFF00FFFFC0
7FFFC1FFFFC0
7FFFFFFFFFC0
3FFFFFFFFFC0
3FFFFFFFFFC0
3FFFFFFFFFC0
1FFFFFFFFFC0
1FFFFFEFFFC0
0FFFFFCFFFC0
0FFFFF8FFFC0
07FFFF0FFF80
01FFFE0FFF80
007FF81FFF80
0000001FFF80
0000001FFF80
0000001FFF80
0100003FFF80
1F80003FFF80
7FC0007FFF00
7FE000FFFF00
FFF001FFFF00
FFFC07FFFE00
FFFFFFFFFE00
FFFFFFFFFC00
FFFFFFFFFC00
7FFFFFFFF800
7FFFFFFFF000
3FFFFFFFE000
0FFFFFFF8000
03FFFFFF0000
00FFFFF80000
0007FF800000
ENDCHAR
STARTCHAR 0100
ENCODING 256
SWIDTH 612 0
DWIDTH 51 0
BBX 50 76 0 0
BITMAP
0000FFFFFFE000
0001FFFFFFE000
0003FFFFFFE000
0003FFFFFFE000
0007FFFFFFE000
0007FFFFFFE000
0007FFFFFFC000
0007FFFFFFC000
0007FFFFFF0000
00000000000000
00000000000000
00000000000000
00000000000000
00000000000000
00000000000000
00000000000000
00000000000000
00000FFFC00000
00001FFFE00000
00001FFFF00000
00003FFFF80000
00003FFFF80000
00007FFFFC0000
00007FFFFC0000
0000FFFFFC0000
0000FFFFFE0000
0001FFFFFE0000
0001FFFFFE0000
0001FFFFFE0000
0003FFDFFE0000
0003FFDFFF0000
0007FFDFFF0000
0007FFDFFF0000
0007FF9FFF0000
000FFF9FFF8000
000FFF9FFF8000
001FFF0FFF8000
001FFF0FFF8000
001FFF0FFFC000
003FFF0FFFC000
003FFE0FFFC000
007FFE0FFFC000
007FFE07FFE000
007FFE07FFE000
00FFFC07FFE000
00FFFC07FFE000
00FFFC07FFF000
01FFF807FFF000
01FFF803FFF000
03FFF803FFF000
03FFF803FFF800
03FFFFFFFFF800
07FFFFFFFFF800
07FFFFFFFFF800
07FFFFFFFFFC00
0FFFFFFFFFFC00
0FFFFFFFFFFC00
0FFFFFFFFFFC00
1FFFFFFFFFFE00
1FFFFFFFFFFE00
1FFFFFFFFFFE00
3FFFFFFFFFFE00
3FFFFFFFFFFE00
3FFF8000FFFF00
3FFF8000FFFF00
7FFF8000FFFF00
7FFF8000FFFF00
7FFF00007FFF80
7FFF00007FFF80
7FFF00007FFF80
FFFF00007FFF80
7FFE00003FFF80
7FFE00003FFFC0
3FFE00001FFFC0
1FFE00000FFFC0
07FC000001FF80
ENDCHAR
STARTCHAR 0101
ENCODING 257
SWIDTH 564 0
DWIDTH 47 0
BBX 44 61 1 -1
BITMAP
000FFFFFFE00
001FFFFFFE00
003FFFFFFE00
003FFFFFFE00
003FFFFFFE00
003FFFFFFE00
007FFFFFFE00
007FFFFFFC00
007FFFFFF000
000000000000
000000000000
000000000000
000000000000
00007FF80000
0007FFFF8000
001FFFFFE000
007FFFFFF000
00FFFFFFF800
01FFFFFFFC00
03FFFFFFFE00
07FFFFFFFE00
07FFFFFFFF00
0FFFFFFFFF00
0FFFFFFFFF00
0FFFF0FFFF00
0FFF807FFF00
0FFF803FFF80
0FFF003FFF80
07FF001FFF80
07FE001FFF80
03FE001FFF00
007E001FFF00
0000003FFF00
00001FFFFF00
0007FFFFFF00
003FFFFFFF00
00FFFFFFFF00
03FFFFFFFF00
07FFFFFFFF00
0FFFFFFFFF00
1FFFF83FFE00
3FFFC03FFE00
3FFF007FFE00
7FFE007FFE00
7FFE007FFE00
FFFC00FFFE00
FFFC00FFFE00
FFFC01FFFF00
FFFE03FFFF80
FFFF8FFFFFF0
FFFFFFFFFFF0
FFFFFFFFFFF0
FFFFFFFFFFF0
FFFFFFFFFFF0
7FFFFFBFFFE0
7FFFFF3FFFE0
3FFFFE3FFFE0
3FFFFC1FFFC0
0FFFF80FFF80
07FFE007FF00
00FF8003FC00
ENDCHAR
STARTCHAR 0102
ENCODING 258
SWIDTH 612 0
DWIDTH 51 0
BBX 50 78 0 0
BITMAP
00003E000F8000
0000FF003FC000
0001FF007FC000
0001FF80FFC000
0001FFC3FFC000
0001FFFFFF8000
0001FFFFFF8000
0000FFFFFF0000
00007FFFFE0000
00003FFFF80000
00000FFFE00000
000003FF000000
00000000000000
00000000000000
00000000000000
00000000000000
00000000000000
00000000000000
00000FFF800000
00001FFFE00000
00001FFFF00000
00003FFFF00000
00003FFFF80000
00007FFFF80000
00007FFFFC0000
0000FFFFFC0000
0000FFFFFC0000
0000FFFFFE0000
0001FFFFFE0000
0001FFFFFE0000
0003FFFFFE0000
0003FFDFFF0000
0003FFDFFF0000
0007FFDFFF0000
0007FF9FFF0000
000FFF9FFF8000
000FFF9FFF8000
000FFF8FFF8000
001FFF0FFF8000
001FFF0FFFC000
003FFF0FFFC000
003FFF0FFFC000
003FFE0FFFC000
007FFE0FFFE000
007FFE07FFE000
007FFC07FFE000
00FFFC07FFE000
00FFFC07FFE000
01FFFC07FFF000
01FFF807FFF000
01FFF803FFF000
03FFF803FFF000
03FFF803FFF800
03FFFFFFFFF800
07FFFFFFFFF800
07FFFFFFFFF800
07FFFFFFFFFC00
0FFFFFFFFFFC00
0FFFFFFFFFFC00
0FFFFFFFFFFC00
1FFFFFFFFFFE00
1FFFFFFFFFFE00
1FFFFFFFFFFE00
3FFFFFFFFFFE00
3FFFFFFFFFFF00
3FFF8000FFFF00
3FFF8000FFFF00
7FFF8000FFFF00
7FFF8000FFFF00
7FFF00007FFF80
7FFF00007FFF80
7FFF00007FFF80
FFFF00007FFF80
7FFE00003FFF80
7FFE00003FFFC0
3FFE00001FFFC0
1FFE00000FFFC0
07FC000001FF80
ENDCHAR
STARTCHAR 0103
ENCODING 259
SWIDTH 564 0
DWIDTH 47 0
BBX 44 64 1 -1
BITMAP
0003E000FC00
0007F001FE00
000FF803FE00
001FF80FFE00
001FFC1FFC00
000FFFFFFC00
000FFFFFF800
0007FFFFF000
0007FFFFE000
0001FFFFC000
0000FFFF0000
00001FF80000
000000000000
000000000000
000000000000
000000000000
00007FF80000
0007FFFF8000
001FFFFFE000
007FFFFFF000
00FFFFFFF800
01FFFFFFFC00
03FFFFFFFE00
07FFFFFFFE00
07FFFFFFFF00
0FFFFFFFFF00
0FFFFFFFFF00
0FFFF0FFFF00
0FFF807FFF00
0FFF803FFF80
0FFF003FFF80
07FF001FFF80
07FE001FFF80
03FE001FFF00
007E001FFF00
0000003FFF00
00001FFFFF00
0007FFFFFF00
003FFFFFFF00
00FFFFFFFF00
03FFFFFFFF00
07FFFFFFFF00
0FFFFFFFFF00
1FFFF83FFE00
3FFFC03FFE00
3FFF007FFE00
7FFE007FFE00
7FFE007FFE00
FFFC00FFFE00
FFFC00FFFE00
FFFC01FFFF00
FFFE03FFFF80
FFFF8FFFFFF0
FFFFFFFFFFF0
FFFFFFFFFFF0
FFFFFFFFFFF0
FFFFFFFFFFF0
7FFFFFBFFFE0
7FFFFF3FFFE0
3FFFFE3FFFE0
3FFFFC1FFFC0
0FFFF80FFF80
07FFE007FF00
00FF8003FC00
ENDCHAR
STARTCHAR 0104
ENCODING 260
SWIDTH 612 0
DWIDTH 51 0
BBX 50 76 0 -16
BITMAP
00000FFF800000
00001FFFE00000
00001FFFF00000
00003FFFF00000
00003FFFF80000
00007FFFF80000
00007FFFFC0000
0000FFFFFC0000
0000FFFFFC0000
0000FFFFFE0000
0001FFFFFE0000
0001FFFFFE0000
0003FFFFFE0000
0003FFDFFF0000
0003FFDFFF0000
0007FFDFFF0000
0007FF9FFF0000
000FFF9FFF8000
000FFF9FFF8000
000FFF8FFF8000
001FFF0FFF8000
001FFF0FFFC000
003FFF0FFFC000
003FFF0FFFC000
003FFE0FFFC000
007FFE0FFFC000
007FFE07FFE000
007FFC07FFE000
00FFFC07FFE000
00FFFC07FFE000
01FFFC07FFF000
01FFF807FFF000
01FFF803FFF000
03FFF803FFF000
03FFF803FFF800
03FFFFFFFFF800
07FFFFFFFFF800
07FFFFFFFFF800
07FFFFFFFFFC00
0FFFFFFFFFFC00
0FFFFFFFFFFC00
0FFFFFFFFFFC00
1FFFFFFFFFFE00
1FFFFFFFFFFE00
1FFFFFFFFFFE00
3FFFFFFFFFFE00
3FFFFFFFFFFF00
3FFF8000FFFF00
3FFF8000FFFF00
7FFF8000FFFF00
7FFF8000FFFF00
7FFF0000FFFF80
7FFF00007FFF80
7FFF00007FFF80
FFFF00007FFF80
7FFE00003FFF80
7FFE00003FFFC0
3FFE00001FFFC0
1FFE00000FFFC0
07FC000001FF80
0000000007F000
000000000FE000
000000001FC000
000000003FC000
000000007F8000
00000000FF8000
00000000FF8000
00000001FF8000
00000001FFC000
00000001FFE000
00000001FFF000
00000001FFFC00
00000001FFF800
00000000FFF000
000000007FE000
000000003F8000
ENDCHAR
STARTCHAR 0105
ENCODING 261
SWIDTH 564 0
DWIDTH 47 0
BBX 44 63 1 -16
BITMAP
00007FF80000
0007FFFF8000
001FFFFFE000
007FFFFFF000
00FFFFFFF800
01FFFFFFFC00
03FFFFFFFE00
07FFFFFFFE00
07FFFFFFFF00
0FFFFFFFFF00
0FFFFFFFFF00
0FFFF0FFFF00
0FFF807FFF00
0FFF803FFF80
0FFF003FFF80
07FF001FFF80
07FE001FFF00
03FE001FFF00
007E001FFF00
0000003FFF00
00001FFFFF00
0007FFFFFF00
003FFFFFFF00
00FFFFFFFF00
03FFFFFFFF00
07FFFFFFFF00
0FFFFFFFFF00
1FFFF83FFE00
3FFFC03FFE00
3FFF007FFE00
7FFE007FFE00
7FFE007FFE00
FFFC00FFFE00
FFFC00FFFF00
FFFC01FFFF00
FFFE03FFFFC0
FFFF8FFFFFF0
FFFFFFFFFFF0
FFFFFFFFFFF0
FFFFFFFFFFF0
FFFFFFFFFFF0
7FFFFFBFFFE0
7FFFFF3FFFE0
3FFFFE3FFFC0
3FFFFC1FFFC0
0FFFF80FFF80
07FFE007FF00
00FF8001FE00
00000001FC00
00000003F800
00000007F800
0000000FF000
0000001FF000
0000001FF000
0000003FF800
0000003FF800
0000003FFC00
0000003FFE00
0000003FFF80
0000003FFF00
0000001FFE00
0000000FFC00
00000007F000
ENDCHAR
STARTCHAR 0106
ENCODING 262
SWIDTH 612 0
DWIDTH 51 0
BBX 47 82 3 -1
BITMAP
000000000380
000000000FC0
000000001FF0
000000007FF8
00000000FFFC
00000001FFFE
00000003FFFE
00000007FFFE
0000000FFFFE
0000001FFFF8
0000003FFFF0
0000003FFFC0
0000003FFF00
0000001FFC00
0000000FE000
000000070000
000000000000
000000000000
000000000000
000000000000
000000000000
000003FFC000
00003FFFFC00
0000FFFFFF00
0003FFFFFFC0
0007FFFFFFE0
001FFFFFFFF0
003FFFFFFFF8
007FFFFFFFF8
00FFFFFFFFFC
01FFFFFFFFFC
01FFFFFFFFFE
03FFFFFFFFFE
07FFFFFFFFFE
07FFFF03FFFE
0FFFFC01FFFE
0FFFF800FFFE
0FFFF000FFFE
1FFFE000FFFE
1FFFE000FFFE
3FFFC000FFFC
3FFFC000FFFC
3FFFC0007FF8
3FFF80007FF0
7FFF80007FE0
7FFF80007F00
7FFF00000000
7FFF00000000
7FFF00000000
7FFF00000000
FFFF00000000
FFFF00000000
FFFF00000000
FFFF00000000
FFFF00000000
FFFF00000000
FFFF00000000
FFFF00000000
FFFF00000000
FFFF00000000
FFFF00000000
7FFF00000000
7FFF80000040
7FFF800001E0
7FFF800007E0
7FFFC0000FE0
3FFFE0001FE0
3FFFF0007FE0
3FFFFC03FFE0
1FFFFFFFFFE0
1FFFFFFFFFC0
0FFFFFFFFFC0
0FFFFFFFFFC0
07FFFFFFFFC0
03FFFFFFFF80
01FFFFFFFF00
00FFFFFFFE00
007FFFFFFC00
003FFFFFF800
000FFFFFE000
0003FFFF8000
00003FF80000
ENDCHAR
STARTCHAR 0107
ENCODING 263
SWIDTH 504 0
DWIDTH 42 0
BBX 40 71 2 -1
BITMAP
0000000780
0000000FE0
0000000FF8
0000001FFE
0000003FFE
0000003FFF
0000007FFE
000000FFFC
000000FFF8
000001FFF0
000003FFE0
000003FFC0
000007FF80
00000FFF00
00000FFE00
00000FF800
000007F000
000003C000
0000000000
0000000000
0000000000
0000000000
0000000000
00003FF800
0003FFFF00
000FFFFFC0
003FFFFFE0
007FFFFFF0
00FFFFFFF8
01FFFFFFFC
03FFFFFFFC
07FFFFFFFC
07FFFFFFFE
0FFFFFFFFE
0FFFF0FFFE
1FFFC07FFE
1FFF807FFE
3FFF803FFE
3FFF003FFC
3FFF003FFC
7FFF003FF8
7FFE003FF8
7FFE003FE0
7FFE003F00
7FFE000000
7FFE000000
7FFE000000
FFFE000000
FFFE000000
FFFE000000
FFFE000000
FFFE000000
FFFE000000
7FFE000000
7FFE000000
7FFE000040
7FFF0001E0
7FFF0003E0
3FFF800FE0
3FFFF07FE0
3FFFFFFFE0
1FFFFFFFE0
1FFFFFFFC0
0FFFFFFFC0
07FFFFFF80
07FFFFFF80
03FFFFFF00
00FFFFFC00
007FFFF800
001FFFE000
0001FF0000
ENDCHAR
STARTCHAR 0108
ENCODING 264
SWIDTH 612 0
DWIDTH 51 0
BBX 47 82 3 -1
BITMAP
0000001FE000
0000007FF000
000000FFF800
000001FFFC00
000003FFFE00
000007FFFE00
00000FFFFF00
00003FFFFF80
00007FFFFFC0
0000FFF9FFE0
0001FFF0FFE0
0003FFC07FF0
0001FF803FF0
0001FE000FE0
0000F80007C0
000020000100
000000000000
000000000000
000000000000
000000000000
000000000000
000003FFC000
00003FFFFC00
0000FFFFFF00
0003FFFFFFC0
0007FFFFFFE0
001FFFFFFFF0
003FFFFFFFF8
007FFFFFFFF8
00FFFFFFFFFC
01FFFFFFFFFC
01FFFFFFFFFE
03FFFFFFFFFE
07FFFFFFFFFE
07FFFF03FFFE
0FFFFC01FFFE
0FFFF800FFFE
0FFFF000FFFE
1FFFE000FFFE
1FFFE000FFFE
3FFFC000FFFE
3FFFC000FFFC
3FFFC0007FFC
3FFF80007FF8
7FFF80007FE0
7FFF80007F80
7FFF00000000
7FFF00000000
7FFF00000000
7FFF00000000
FFFF00000000
FFFF00000000
FFFF00000000
FFFF00000000
FFFF00000000
FFFF00000000
FFFF00000000
FFFF00000000
FFFF00000000
FFFF00000000
FFFF00000000
7FFF00000000
7FFF80000000
7FFF800001E0
7FFF800003E0
7FFFC0000FE0
3FFFE0001FE0
3FFFF0007FE0
3FFFFC03FFE0
1FFFFFFFFFE0
1FFFFFFFFFC0
0FFFFFFFFFC0
0FFFFFFFFFC0
07FFFFFFFFC0
03FFFFFFFF80
01FFFFFFFF00
00FFFFFFFE00
007FFFFFFC00
003FFFFFF800
000FFFFFE000
0003FFFF8000
00003FF80000
ENDCHAR
STARTCHAR 0109
ENCODING 265
SWIDTH 504 0
DWIDTH 42 0
BBX 39 71 2 -1
BITMAP
000001FC00
000007FE00
00000FFF00
00001FFF00
00003FFF80
00003FFFC0
00007FFFC0
0000FFFFE0
0001FFFFE0
0003FFFFF0
0007FFBFF0
000FFF1FF8
000FFE0FFC
001FFC0FFC
003FF007FE
001FE003FC
000FC001F8
00070000F0
0000000000
0000000000
0000000000
0000000000
0000000000
00003FF800
0003FFFF00
000FFFFFC0
003FFFFFE0
007FFFFFF0
00FFFFFFF8
01FFFFFFFC
03FFFFFFFC
07FFFFFFFC
07FFFFFFFE
0FFFFFFFFE
0FFFF0FFFE
1FFFC07FFE
1FFF807FFE
3FFF803FFE
3FFF003FFC
3FFF003FFC
7FFF003FF8
7FFE003FF8
7FFE003FE0
7FFE003F00
7FFE000000
7FFE000000
7FFE000000
FFFE000000
FFFE000000
FFFE000000
FFFE000000
FFFE000000
FFFE000000
7FFE000000
7FFE000000
7FFE000040
7FFF0001E0
7FFF0003E0
3FFF800FE0
3FFFF07FE0
3FFFFFFFE0
1FFFFFFFE0
1FFFFFFFC0
0FFFFFFFC0
07FFFFFF80
07FFFFFF80
03FFFFFF00
00FFFFFC00
007FFFF800
001FFFE000
0001FF0000
ENDCHAR
STARTCHAR 010A
ENCODING 266
SWIDTH 612 0
DWIDTH 51 0
BBX 47 79 3 -1
BITMAP
0000000FE000
0000003FF800
0000007FFC00
000000FFFC00
000001FFFC00
000001FFFC00
000001FFFC00
000001FFFC00
000001FFFC00
000001FFF800
000001FFF800
000000FFE000
0000003F8000
000000000000
000000000000
000000000000
000000000000
000000000000
000003FFC000
00003FFFFC00
0000FFFFFF00
0003FFFFFFC0
0007FFFFFFE0
001FFFFFFFF0
003FFFFFFFF8
007FFFFFFFF8
00FFFFFFFFFC
01FFFFFFFFFC
01FFFFFFFFFE
03FFFFFFFFFE
07FFFFFFFFFE
07FFFF03FFFE
0FFFFC01FFFE
0FFFF800FFFE
0FFFF000FFFE
1FFFE000FFFE
1FFFE000FFFE
3FFFC000FFFE
3FFFC000FFFC
3FFFC0007FFC
3FFF80007FF8
7FFF80007FE0
7FFF80007F80
7FFF00000000
7FFF00000000
7FFF00000000
7FFF00000000
FFFF00000000
FFFF00000000
FFFF00000000
FFFF00000000
FFFF00000000
FFFF00000000
FFFF00000000
FFFF00000000
FFFF00000000
FFFF00000000
FFFF00000000
7FFF00000000
7FFF80000000
7FFF800001E0
7FFF800003E0
7FFFC0000FE0
3FFFE0001FE0
3FFFF0007FE0
3FFFFC03FFE0
1FFFFFFFFFE0
1FFFFFFFFFC0
0FFFFFFFFFC0
0FFFFFFFFFC0
07FFFFFFFFC0
03FFFFFFFF80
01FFFFFFFF00
00FFFFFFFE00
007FFFFFFC00
003FFFFFF800
000FFFFFE000
0003FFFF8000
00003FF80000
ENDCHAR
STARTCHAR 010B
ENCODING 267
SWIDTH 504 0
DWIDTH 42 0
BBX 39 64 2 -1
BITMAP
000003F800
00000FFE00
00001FFF00
00003FFF80
00003FFF80
00007FFF80
00007FFF80
00007FFF80
00007FFF00
00007FFF00
00003FFE00
00001FFC00
000007F000
0000000000
0000000000
0000000000
00003FF800
0003FFFF00
000FFFFFC0
003FFFFFE0
007FFFFFF0
00FFFFFFF8
01FFFFFFFC
03FFFFFFFC
07FFFFFFFC
07FFFFFFFE
0FFFFFFFFE
0FFFF0FFFE
1FFFC07FFE
1FFF807FFE
3FFF803FFE
3FFF003FFC
3FFF003FFC
7FFF003FF8
7FFE003FF0
7FFE003FE0
7FFE003F80
7FFE000000
7FFE000000
7FFE000000
FFFE000000
FFFE000000
FFFE000000
FFFE000000
FFFE000000
FFFE000000
7FFE000000
7FFE000000
7FFE000040
7FFF0001E0
7FFF0003E0
3FFF800FE0
3FFFF07FE0
3FFFFFFFE0
1FFFFFFFE0
1FFFFFFFC0
0FFFFFFFC0
07FFFFFF80
07FFFFFF80
03FFFFFF00
00FFFFFC00
007FFFF800
001FFFE000
0001FF0000
ENDCHAR
STARTCHAR 010C
ENCODING 268
SWIDTH 612 0
DWIDTH 51 0
BBX 47 82 3 -1
BITMAP
00000E000070
00001F8001F8
00003FC007FC
00007FE01FFE
00007FF03FFC
00003FF8FFF8
00001FFDFFF0
00000FFFFFE0
00000FFFFFC0
000007FFFF80
000003FFFF00
000001FFFE00
000000FFFC00
000000FFF800
0000007FE000
000000040000
000000000000
000000000000
000000000000
000000000000
000000000000
000003FFC000
00003FFFFC00
0000FFFFFF00
0003FFFFFFC0
0007FFFFFFE0
001FFFFFFFF0
003FFFFFFFF8
007FFFFFFFF8
00FFFFFFFFFC
01FFFFFFFFFC
01FFFFFFFFFE
03FFFFFFFFFE
07FFFFFFFFFE
07FFFF03FFFE
0FFFFC01FFFE
0FFFF800FFFE
0FFFF000FFFE
1FFFE000FFFE
1FFFE000FFFE
3FFFC000FFFE
3FFFC000FFFC
3FFFC0007FFC
3FFF80007FF8
7FFF80007FE0
7FFF80007F80
7FFF00000000
7FFF00000000
7FFF00000000
7FFF00000000
FFFF00000000
FFFF00000000
FFFF00000000
FFFF00000000
FFFF00000000
FFFF00000000
FFFF00000000
FFFF00000000
FFFF00000000
FFFF00000000
FFFF00000000
7FFF00000000
7FFF80000000
7FFF800001E0
7FFF800003E0
7FFFC0000FE0
3FFFE0001FE0
3FFFF0007FE0
3FFFFC03FFE0
1FFFFFFFFFE0
1FFFFFFFFFC0
0FFFFFFFFFC0
0FFFFFFFFFC0
07FFFFFFFFC0
03FFFFFFFF80
01FFFFFFFF00
00FFFFFFFE00
007FFFFFFC00
003FFFFFF800
000FFFFFE000
0003FFFF8000
00003FF80000
ENDCHAR
STARTCHAR 010D
ENCODING 269
SWIDTH 504 0
DWIDTH 42 0
BBX 40 70 2 -1
BITMAP
0000800010
0003C0007C
0007F000FE
000FF803FF
000FFC07FF
000FFC0FFE
0007FE1FFC
0003FF7FF8
0003FFFFF0
0001FFFFE0
0001FFFFC0
0000FFFFC0
00007FFF80
00007FFF00
00003FFE00
00001FFC00
00001FF800
0000010000
0000000000
0000000000
0000000000
0000000000
00003FF800
0003FFFF00
000FFFFFC0
003FFFFFE0
007FFFFFF0
00FFFFFFF8
01FFFFFFFC
03FFFFFFFC
07FFFFFFFC
07FFFFFFFE
0FFFFFFFFE
0FFFF0FFFE
1FFFC07FFE
1FFF807FFE
3FFF803FFE
3FFF003FFC
3FFF003FFC
7FFF003FF8
7FFE003FF0
7FFE003FE0
7FFE003F80
7FFE000000
7FFE000000
7FFE000000
FFFE000000
FFFE000000
FFFE000000
FFFE000000
FFFE000000
FFFE000000
7FFE000000
7FFE000000
7FFE000040
7FFF0001E0
7FFF0003E0
3FFF800FE0
3FFFF07FE0
3FFFFFFFE0
1FFFFFFFE0
1FFFFFFFC0
0FFFFFFFC0
07FFFFFF80
07FFFFFF80
03FFFFFF00
00FFFFFC00
007FFFF800
001FFFE000
0001FF0000
ENDCHAR
STARTCHAR 010E
ENCODING 270
SWIDTH 660 0
DWIDTH 55 0
BBX 48 82 4 -1
BITMAP
000080000400
0003E0001E00
0007F0007F00
000FF801FF80
000FFC03FFC0
000FFE0FFF00
0007FF1FFE00
0003FFFFFC00
0001FFFFF800
0000FFFFF000
0000FFFFE000
00007FFFC000
00003FFF8000
00001FFF0000
00000FFE0000
000007F80000
000000000000
000000000000
000000000000
000000000000
000000000000
000FFFFE0000
0FFFFFFFE000
0FFFFFFFFC00
0FFFFFFFFF00
1FFFFFFFFF80
1FFFFFFFFFE0
1FFFFFFFFFF0
1FFFFFFFFFF0
1FFFFFFFFFF8
1FFFFFFFFFFC
1FFFFFFFFFFC
1FFFFFFFFFFC
1FFFFFFFFFFE
1FFF801FFFFE
1FFF8007FFFE
1FFF8003FFFF
1FFF8001FFFF
1FFF8000FFFF
1FFF8000FFFF
1FFF8000FFFF
1FFF80007FFF
3FFF80007FFF
3FFF80007FFF
3FFF80007FFF
3FFF80007FFF
3FFF80007FFF
3FFF80007FFF
3FFF80007FFF
3FFF80007FFF
3FFF00007FFF
3FFF00007FFF
3FFF00007FFF
3FFF00007FFF
3FFF00007FFF
7FFF00007FFF
7FFF00007FFF
7FFF0000FFFE
7FFF0000FFFE
7FFF0000FFFE
7FFF0001FFFE
7FFF0001FFFC
7FFF0003FFFC
7FFF0003FFFC
7FFF0007FFFC
7FFE000FFFF8
7FFE001FFFF8
7FFE003FFFF0
FFFE01FFFFF0
FFFFFFFFFFE0
FFFFFFFFFFC0
FFFFFFFFFFC0
FFFFFFFFFF80
FFFFFFFFFF00
FFFFFFFFFE00
FFFFFFFFFC00
7FFFFFFFF800
7FFFFFFFE000
7FFFFFFFC000
3FFFFFFF0000
0FFFFFF80000
03FFFF800000
ENDCHAR
STARTCHAR 010F
ENCODING 271
SWIDTH 684 0
DWIDTH 57 0
BBX 61 64 2 -1
BITMAP
00000000000007C0
000000007F801FF0
00000000FFE03FF0
00000000FFF07FF8
00000000FFF87FF8
00000000FFF87FF8
00000000FFFC7FF8
00000000FFFC7FF8
00000000FFFC7FF8
00000000FFFC7FF8
00000000FFFC1FF8
00000000FFFC07F0
00000000FFF80FF0
00000001FFF81FE0
00000001FFF83FE0
00000001FFF87FC0
0000FF81FFF87F80
0007FFF1FFF87F00
001FFFF9FFF83E00
003FFFFDFFF80000
007FFFFDFFF80000
00FFFFFFFFF80000
01FFFFFFFFF80000
03FFFFFFFFF80000
07FFFFFFFFF80000
07FFFFFFFFF80000
0FFFFFFFFFF00000
0FFFF83FFFF00000
1FFFF00FFFF00000
1FFFC007FFF00000
3FFFC007FFF00000
3FFF8003FFF00000
3FFF8003FFF00000
3FFF0003FFF00000
7FFF0003FFF00000
7FFF0003FFF00000
7FFF0003FFF00000
7FFF0001FFF00000
7FFF0001FFF00000
7FFF0003FFF00000
7FFF0003FFE00000
FFFF0003FFE00000
FFFF0003FFE00000
FFFF0003FFE00000
FFFF0003FFE00000
7FFF0003FFE00000
7FFF0007FFE00000
7FFF0007FFE00000
7FFF8007FFE00000
7FFF800FFFE00000
7FFFC01FFFE00000
7FFFE03FFFE00000
3FFFF0FFFFE00000
3FFFFFFFFFC00000
3FFFFFFFFFC00000
1FFFFFFFFFC00000
1FFFFFFFFFC00000
0FFFFFF7FFC00000
07FFFFF7FFC00000
03FFFFE7FFC00000
01FFFFC3FFC00000
00FFFF81FFC00000
003FFE007FC00000
000FF80000000000
ENDCHAR
STARTCHAR 0110
ENCODING 272
SWIDTH 672 0
DWIDTH 56 0
BBX 53 61 0 -1
BITMAP
0000FFFFE00000
00FFFFFFFF0000
00FFFFFFFFE000
00FFFFFFFFF000
00FFFFFFFFFC00
00FFFFFFFFFE00
00FFFFFFFFFF00
00FFFFFFFFFF80
00FFFFFFFFFF80
00FFFFFFFFFFC0
00FFFFFFFFFFC0
00FFFFFFFFFFE0
01FFFFFFFFFFE0
01FFFC01FFFFE0
01FFFC003FFFF0
01FFFC001FFFF0
01FFFC000FFFF0
01FFFC000FFFF0
01FFFC0007FFF0
01FFF80007FFF8
01FFF80007FFF8
01FFF80007FFF8
01FFF80007FFF8
01FFF80003FFF8
01FFF80003FFF8
1FFFFFFC03FFF8
3FFFFFFC03FFF8
7FFFFFFC03FFF8
FFFFFFFC03FFF8
FFFFFFFC03FFF8
FFFFFFF803FFF8
FFFFFFF807FFF0
FFFFFFF007FFF0
FFFFFFE007FFF0
03FFF80007FFF0
03FFF00007FFF0
03FFF00007FFF0
03FFF0000FFFF0
07FFF0000FFFE0
07FFF0000FFFE0
07FFF0001FFFE0
07FFF0001FFFE0
07FFF0003FFFC0
07FFF0003FFFC0
07FFF0007FFFC0
07FFF000FFFF80
07FFF003FFFF80
07FFF00FFFFF00
07FFFFFFFFFF00
07FFFFFFFFFE00
07FFFFFFFFFC00
07FFFFFFFFF800
07FFFFFFFFF800
07FFFFFFFFF000
07FFFFFFFFE000
07FFFFFFFF8000
07FFFFFFFF0000
03FFFFFFFC0000
01FFFFFFF00000
00FFFFFFC00000
001FFFF8000000
ENDCHAR
STARTCHAR 0111
ENCODING 273
SWIDTH 600 0
DWIDTH 50 0
BBX 52 63 2 -1
BITMAP
00000000FF8000
00000000FFE000
00000000FFF000
00000000FFF800
00000000FFF800
00000000FFFC00
00000007FFFFE0
0000001FFFFFF0
0000001FFFFFF0
0000003FFFFFF0
0000003FFFFFE0
0000003FFFFFE0
0000003FFFFFE0
0000003FFFFFC0
0000003FFFFF80
0000FF81FFF800
0007FFF1FFF800
001FFFF9FFF800
003FFFFDFFF800
007FFFFDFFF800
00FFFFFFFFF800
01FFFFFFFFF800
03FFFFFFFFF800
07FFFFFFFFF800
07FFFFFFFFF800
0FFFFFFFFFF000
0FFFF83FFFF000
1FFFF00FFFF000
1FFFC007FFF000
3FFFC007FFF000
3FFF8003FFF000
3FFF8003FFF000
3FFF0003FFF000
7FFF0003FFF000
7FFF0003FFF000
7FFF0003FFF000
7FFF0001FFF000
7FFF0001FFF000
7FFF0003FFF000
7FFF0003FFE000
FFFF0003FFE000
FFFF0003FFE000
FFFF0003FFE000
FFFF0003FFE000
7FFF0003FFE000
7FFF0007FFE000
7FFF0007FFE000
7FFF8007FFE000
7FFF800FFFE000
7FFFC01FFFE000
7FFFE03FFFE000
3FFFF0FFFFE000
3FFFFFFFFFC000
3FFFFFFFFFC000
1FFFFFFFFFC000
1FFFFFFFFFC000
0FFFFFF7FFC000
07FFFFF7FFC000
03FFFFE7FFC000
01FFFFC3FFC000
00FFFF81FFC000
003FFE007FC000
000FF800000000
ENDCHAR
STARTCHAR 0112
ENCODING 274
SWIDTH 504 0
DWIDTH 42 0
BBX 37 76 4 0
BITMAP
003FFFFFF0
00FFFFFFF8
01FFFFFFF0
01FFFFFFF0
01FFFFFFF0
01FFFFFFF0
01FFFFFFF0
01FFFFFFE0
01FFFFFF80
0000000000
0000000000
0000000000
0000000000
0000000000
0000000000
0000000000
0000000000
0FFFFFFFF0
0FFFFFFFF0
0FFFFFFFF0
0FFFFFFFE0
0FFFFFFFE0
1FFFFFFFE0
1FFFFFFFE0
1FFFFFFFE0
1FFFFFFFE0
1FFFFFFFC0
1FFFFFFF00
1FFF800000
1FFF800000
1FFF800000
1FFF800000
1FFF800000
1FFF800000
1FFF800000
1FFF800000
3FFF800000
3FFF800000
3FFF800000
3FFF800000
3FFFFFFC00
3FFFFFFC00
3FFFFFFC00
3FFFFFFC00
3FFFFFFC00
3FFFFFF800
3FFFFFF800
3FFFFFF800
3FFFFFF800
7FFFFFF000
7FFFFFE000
7FFF000000
7FFF000000
7FFF000000
7FFF000000
7FFF000000
7FFF000000
7FFF000000
7FFE000000
7FFE000000
7FFE000000
7FFE000000
7FFE000000
FFFE000000
FFFE000000
FFFFFFFFC0
FFFFFFFFE0
FFFFFFFFE0
FFFFFFFFC0
FFFFFFFFC0
FFFFFFFFC0
7FFFFFFFC0
7FFFFFFFC0
3FFFFFFFC0
1FFFFFFF80
07FFFFFE00
ENDCHAR
STARTCHAR 0113
ENCODING 275
SWIDTH 528 0
DWIDTH 44 0
BBX 41 61 2 -1
BITMAP
0007FFFFFF00
001FFFFFFF00
001FFFFFFF00
003FFFFFFF00
003FFFFFFF00
003FFFFFFE00
003FFFFFFE00
003FFFFFFC00
003FFFFFF800
000000000000
000000000000
000000000000
000000000000
00001FFC0000
0000FFFFC000
0007FFFFE000
000FFFFFF800
003FFFFFFC00
007FFFFFFE00
00FFFFFFFE00
01FFFFFFFF00
03FFFFFFFF00
07FFFFFFFF00
07FFFFFFFF00
0FFFF0FFFF80
0FFFE07FFF80
1FFFC03FFF80
1FFF803FFF00
3FFF803FFF00
3FFF003FFF00
3FFF003FFF00
3FFF007FFF00
7FFE00FFFE00
7FFE01FFFC00
7FFE0FFFFC00
7FFFFFFFF800
7FFFFFFFF000
7FFFFFFFC000
FFFFFFFF8000
FFFFFFFE0000
FFFFFFF00000
FFFFFF000000
FFFE00000000
FFFE00000000
FFFE00000000
7FFE00000000
7FFE00030000
7FFF0007C000
7FFF800FF000
3FFFC01FF000
3FFFF07FF800
3FFFFFFFF800
1FFFFFFFF800
0FFFFFFFF800
0FFFFFFFF000
07FFFFFFF000
03FFFFFFE000
00FFFFFFC000
007FFFFF0000
001FFFFC0000
0001FFC00000
ENDCHAR
STARTCHAR 0114
ENCODING 276
SWIDTH 504 0
DWIDTH 42 0
BBX 36 78 4 0
BITMAP
0004000100
003F000FE0
007F803FE0
00FFC07FE0
00FFE0FFE0
00FFFFFFE0
00FFFFFFC0
007FFFFF80
003FFFFF00
001FFFFE00
0007FFF000
0001FF8000
0000000000
0000000000
0000000000
0000000000
0000000000
0000000000
0000000000
0FFFFFFFF0
0FFFFFFFF0
0FFFFFFFF0
0FFFFFFFE0
0FFFFFFFE0
1FFFFFFFE0
1FFFFFFFE0
1FFFFFFFE0
1FFFFFFFE0
1FFFFFFFC0
1FFFFFFF00
1FFF800000
1FFF800000
1FFF800000
1FFF800000
1FFF800000
1FFF800000
1FFF800000
1FFF800000
3FFF800000
3FFF800000
3FFF800000
3FFF800000
3FFFFFFC00
3FFFFFFC00
3FFFFFFC00
3FFFFFFC00
3FFFFFFC00
3FFFFFF800
3FFFFFF800
3FFFFFF800
3FFFFFF800
7FFFFFF000
7FFFFFE000
7FFF000000
7FFF000000
7FFF000000
7FFF000000
7FFF000000
7FFF000000
7FFF000000
7FFE000000
7FFE000000
7FFE000000
7FFE000000
7FFE000000
FFFE000000
FFFE000000
FFFFFFFFC0
FFFFFFFFE0
FFFFFFFFE0
FFFFFFFFC0
FFFFFFFFC0
FFFFFFFFC0
7FFFFFFFC0
7FFFFFFFC0
3FFFFFFFC0
1FFFFFFF80
07FFFFFE00
ENDCHAR
STARTCHAR 0115
ENCODING 277
SWIDTH 528 0
DWIDTH 44 0
BBX 41 64 2 -1
BITMAP
0000F8003F00
0001FC007F80
0003FE00FF80
0007FE03FF80
0007FF07FF00
0003FFFFFF00
0003FFFFFE00
0001FFFFFC00
0001FFFFF800
00007FFFF000
00003FFFC000
000007FE0000
000000000000
000000000000
000000000000
000000000000
00001FFC0000
0000FFFFC000
0007FFFFE000
000FFFFFF800
003FFFFFFC00
007FFFFFFE00
00FFFFFFFE00
01FFFFFFFF00
03FFFFFFFF00
07FFFFFFFF00
07FFFFFFFF00
0FFFF0FFFF80
0FFFE07FFF80
1FFFC03FFF80
1FFF803FFF00
3FFF803FFF00
3FFF003FFF00
3FFF003FFF00
3FFF007FFF00
7FFE00FFFE00
7FFE01FFFC00
7FFE0FFFFC00
7FFFFFFFF800
7FFFFFFFF000
7FFFFFFFC000
FFFFFFFF8000
FFFFFFFE0000
FFFFFFF00000
FFFFFF000000
FFFE00000000
FFFE00000000
FFFE00000000
7FFE00000000
7FFE00030000
7FFF0007C000
7FFF800FF000
3FFFC01FF000
3FFFF07FF800
3FFFFFFFF800
1FFFFFFFF800
0FFFFFFFF800
0FFFFFFFF000
07FFFFFFF000
03FFFFFFE000
00FFFFFFC000
007FFFFF0000
001FFFFC0000
0001FFC00000
ENDCHAR
STARTCHAR 0116
ENCODING 278
SWIDTH 504 0
DWIDTH 42 0
BBX 36 78 4 0
BITMAP
00001FC000
00007FF000
0000FFF800
0001FFF800
0003FFF800
0003FFF800
0003FFF800
0003FFF800
0003FFF800
0003FFF000
0003FFE000
0001FFC000
00007F0000
0000000000
0000000000
0000000000
0000000000
0000000000
0000000000
0FFFFFFFF0
0FFFFFFFF0
0FFFFFFFF0
0FFFFFFFE0
0FFFFFFFE0
1FFFFFFFE0
1FFFFFFFE0
1FFFFFFFE0
1FFFFFFFE0
1FFFFFFFC0
1FFFFFFF00
1FFF800000
1FFF800000
1FFF800000
1FFF800000
1FFF800000
1FFF800000
1FFF800000
1FFF800000
3FFF800000
3FFF800000
3FFF800000
3FFF800000
3FFFFFFC00
3FFFFFFC00
3FFFFFFC00
3FFFFFFC00
3FFFFFFC00
3FFFFFF800
3FFFFFF800
3FFFFFF800
3FFFFFF800
7FFFFFF000
7FFFFFE000
7FFF000000
7FFF000000
7FFF000000
7FFF000000
7FFF000000
7FFF000000
7FFF000000
7FFE000000
7FFE000000
7FFE000000
7FFE000000
7FFE000000
FFFE000000
FFFE000000
FFFFFFFFC0
FFFFFFFFE0
FFFFFFFFE0
FFFFFFFFC0
FFFFFFFFC0
FFFFFFFFC0
7FFFFFFFC0
7FFFFFFFC0
3FFFFFFFC0
1FFFFFFF80
07FFFFFE00
ENDCHAR
STARTCHAR 0117
ENCODING 279
SWIDTH 528 0
DWIDTH 44 0
BBX 41 64 2 -1
BITMAP
000000FE0000
000003FF8000
000007FFC000
00000FFFC000
00001FFFE000
00001FFFE000
00001FFFE000
00001FFFC000
00001FFFC000
00001FFF8000
00000FFF8000
00000FFF0000
000003F80000
000000000000
000000000000
000000000000
00001FFC0000
0000FFFFC000
0007FFFFE000
000FFFFFF800
003FFFFFFC00
007FFFFFFE00
00FFFFFFFE00
01FFFFFFFF00
03FFFFFFFF00
07FFFFFFFF00
07FFFFFFFF00
0FFFF0FFFF80
0FFFE07FFF80
1FFFC03FFF80
1FFF803FFF00
3FFF803FFF00
3FFF003FFF00
3FFF003FFF00
3FFF007FFF00
7FFE00FFFE00
7FFE01FFFC00
7FFE0FFFFC00
7FFFFFFFF800
7FFFFFFFF000
7FFFFFFFC000
FFFFFFFF8000
FFFFFFFE0000
FFFFFFF00000
FFFFFF000000
FFFE00000000
FFFE00000000
FFFE00000000
7FFE00000000
7FFE00030000
7FFF0007C000
7FFF800FF000
3FFFC01FF000
3FFFF07FF800
3FFFFFFFF800
1FFFFFFFF800
0FFFFFFFF800
0FFFFFFFF000
07FFFFFFF000
03FFFFFFE000
00FFFFFFC000
007FFFFF0000
001FFFFC0000
0001FFC00000
ENDCHAR
STARTCHAR 0118
ENCODING 280
SWIDTH 504 0
DWIDTH 42 0
BBX 36 76 4 -16
BITMAP
0FFFFFFFE0
0FFFFFFFF0
0FFFFFFFF0
0FFFFFFFE0
0FFFFFFFE0
0FFFFFFFE0
1FFFFFFFE0
1FFFFFFFE0
1FFFFFFFE0
1FFFFFFFC0
1FFFFFFF80
1FFF800000
1FFF800000
1FFF800000
1FFF800000
1FFF800000
1FFF800000
1FFF800000
1FFF800000
3FFF800000
3FFF800000
3FFF800000
3FFF800000
3FFF800000
3FFFFFFC00
3FFFFFFC00
3FFFFFFC00
3FFFFFFC00
3FFFFFFC00
3FFFFFF800
3FFFFFF800
3FFFFFF800
3FFFFFF800
7FFFFFF000
7FFFFFE000
7FFF000000
7FFF000000
7FFF000000
7FFF000000
7FFF000000
7FFF000000
7FFF000000
7FFE000000
7FFE000000
7FFE000000
7FFE000000
7FFE000000
FFFE000000
FFFE000000
FFFFFFFFC0
FFFFFFFFE0
FFFFFFFFE0
FFFFFFFFC0
FFFFFFFFC0
FFFFFFFFC0
7FFFFFFFC0
7FFFFFFFC0
3FFFFFFFC0
1FFFFFFF80
07FFFFFE00
0007F00000
000FE00000
001FC00000
003FC00000
007F800000
00FF800000
00FF800000
01FF800000
01FFC00000
01FFE00000
01FFF00000
01FFF80000
01FFF80000
00FFF00000
00FFE00000
003F800000
ENDCHAR
STARTCHAR 0119
ENCODING 281
SWIDTH 528 0
DWIDTH 44 0
BBX 41 63 2 -16
BITMAP
00001FFC0000
0000FFFFC000
0007FFFFF000
000FFFFFF800
003FFFFFFC00
007FFFFFFE00
00FFFFFFFE00
01FFFFFFFF00
03FFFFFFFF00
07FFFFFFFF00
07FFFFFFFF00
0FFFF0FFFF80
0FFFE07FFF80
1FFFC03FFF80
1FFF803FFF00
3FFF003FFF00
3FFF003FFF00
3FFF003FFF00
7FFE007FFE00
7FFE01FFFE00
7FFE0FFFFC00
7FFFFFFFF800
7FFFFFFFF000
7FFFFFFFE000
FFFFFFFF8000
FFFFFFFE0000
FFFFFFF00000
FFFFFF000000
FFFE00000000
FFFE00000000
FFFE00000000
7FFE00000000
7FFF00078000
7FFF0007C000
7FFF800FF000
7FFFC01FF000
3FFFF07FF800
3FFFFFFFF800
1FFFFFFFF800
1FFFFFFFF800
0FFFFFFFF000
07FFFFFFF000
03FFFFFFE000
01FFFFFFC000
00FFFFFF8000
003FFFFE0000
0007FFF00000
0000FE000000
0001FC000000
0003FC000000
0007F8000000
000FF8000000
000FF8000000
001FF8000000
001FF8000000
003FFC000000
003FFE000000
003FFF000000
003FFF800000
001FFF800000
001FFF000000
000FFC000000
0003F0000000
ENDCHAR
STARTCHAR 011A
ENCODING 282
SWIDTH 504 0
DWIDTH 42 0
BBX 38 81 4 0
BITMAP
001C0000E0
003F0003F0
007F800FF8
00FFC03FFC
00FFE07FF8
007FF1FFF0
003FFBFFE0
003FFFFFC0
001FFFFF80
000FFFFF00
0007FFFE00
0003FFFC00
0001FFF800
0001FFF000
0000FFC000
0000080000
0000000000
0000000000
0000000000
0000000000
0000000000
0000000000
0FFFFFFFF0
0FFFFFFFF0
0FFFFFFFF0
0FFFFFFFE0
0FFFFFFFE0
1FFFFFFFE0
1FFFFFFFE0
1FFFFFFFE0
1FFFFFFFE0
1FFFFFFFC0
1FFFFFFF00
1FFF800000
1FFF800000
1FFF800000
1FFF800000
1FFF800000
1FFF800000
1FFF800000
1FFF800000
3FFF800000
3FFF800000
3FFF800000
3FFF800000
3FFFFFFC00
3FFFFFFC00
3FFFFFFC00
3FFFFFFC00
3FFFFFFC00
3FFFFFF800
3FFFFFF800
3FFFFFF800
3FFFFFF800
7FFFFFF000
7FFFFFE000
7FFF000000
7FFF000000
7FFF000000
7FFF000000
7FFF000000
7FFF000000
7FFF000000
7FFE000000
7FFE000000
7FFE000000
7FFE000000
7FFE000000
FFFE000000
FFFE000000
FFFFFFFFC0
FFFFFFFFE0
FFFFFFFFE0
FFFFFFFFC0
FFFFFFFFC0
FFFFFFFFC0
7FFFFFFFC0
7FFFFFFFC0
3FFFFFFFC0
1FFFFFFF80
07FFFFFE00
ENDCHAR
STARTCHAR 011B
ENCODING 283
SWIDTH 528 0
DWIDTH 44 0
BBX 41 70 2 -1
BITMAP
000040000400
0001F0001E00
0003F8007F00
0007FC00FF80
0007FE03FF80
0003FF07FF00
0003FF8FFF00
0001FF9FFE00
0000FFFFFC00
0000FFFFF800
00007FFFF000
00007FFFE000
00003FFFC000
00001FFF8000
00001FFF0000
00000FFE0000
000007FC0000
000000800000
000000000000
000000000000
000000000000
000000000000
00001FFC0000
0000FFFFC000
0007FFFFE000
000FFFFFF800
003FFFFFFC00
007FFFFFFE00
00FFFFFFFE00
01FFFFFFFF00
03FFFFFFFF00
07FFFFFFFF00
07FFFFFFFF00
0FFFF0FFFF80
0FFFE07FFF80
1FFFC03FFF80
1FFF803FFF00
3FFF803FFF00
3FFF003FFF00
3FFF003FFF00
3FFF007FFF00
7FFE00FFFE00
7FFE01FFFC00
7FFE0FFFFC00
7FFFFFFFF800
7FFFFFFFF000
7FFFFFFFC000
FFFFFFFF8000
FFFFFFFE0000
FFFFFFF00000
FFFFFF000000
FFFE00000000
FFFE00000000
FFFE00000000
7FFE00000000
7FFE00030000
7FFF0007C000
7FFF800FF000
3FFFC01FF000
3FFFF07FF800
3FFFFFFFF800
1FFFFFFFF800
0FFFFFFFF800
0FFFFFFFF000
07FFFFFFF000
03FFFFFFE000
00FFFFFFC000
007FFFFF0000
001FFFFC0000
0001FFC00000
ENDCHAR
STARTCHAR 011C
ENCODING 284
SWIDTH 636 0
DWIDTH 53 0
BBX 47 82 3 -1
BITMAP
0000000FF000
0000003FF800
0000007FFC00
000000FFFE00
000003FFFE00
000007FFFF00
00000FFFFF80
00001FFFFFC0
00003FFFFFE0
00007FFCFFE0
0000FFF87FF0
0001FFE03FF8
0001FF801FF8
0000FF000FF0
00007C0003E0
000010000080
000000000000
000000000000
000000000000
000000000000
000000000000
000001FFE000
00001FFFFE00
0000FFFFFF80
0003FFFFFFE0
0007FFFFFFF0
001FFFFFFFF8
003FFFFFFFFC
007FFFFFFFFC
00FFFFFFFFFE
01FFFFFFFFFE
01FFFFFFFFFE
03FFFFFFFFFE
07FFFFFFFFFE
07FFFF83FFFE
0FFFFC00FFFE
0FFFF800FFFE
0FFFF000FFFE
1FFFF0007FFE
1FFFE0007FFC
3FFFC0007FF8
3FFFC0007FF0
3FFFC0007FC0
3FFF80001800
7FFF80000000
7FFF80000000
7FFF80000000
7FFF00000000
7FFF00000000
7FFF00000000
7FFF00000000
7FFF00000000
FFFF00007FC0
FFFF0000FFF0
FFFF0000FFF0
FFFF0000FFF8
FFFF0000FFF8
FFFF0000FFF8
FFFF0000FFF8
FFFF0001FFF8
7FFF0001FFF8
7FFF0001FFF8
7FFF8001FFF8
7FFF8001FFF8
7FFF8001FFF8
7FFFC003FFF8
7FFFC003FFF8
3FFFE007FFF8
3FFFF81FFFF8
3FFFFFFFFFF8
1FFFFFFFFFF8
1FFFFFFFFFF8
1FFFFFFFFFF8
0FFFFFFFFFF8
0FFFFFFFFFF8
07FFFFFFFFF8
03FFFFFBFFF0
01FFFFF9FFF0
00FFFFF1FFF0
007FFFE0FFF0
001FFF803FF0
0003FC000000
ENDCHAR
STARTCHAR 011D
ENCODING 285
SWIDTH 600 0
DWIDTH 50 0
BBX 43 86 3 -16
BITMAP
000000FE0000
000003FF8000
000003FF8000
000007FFC000
00000FFFC000
00001FFFE000
00003FFFF000
00007FFFF000
0000FFFFF800
0001FFFFF800
0003FFCFFC00
0003FF8FFE00
0007FF07FE00
000FFE03FF00
000FF801FF00
000FF000FE00
0007E0007C00
000380003800
000000000000
000000000000
000000000000
000000000000
000000000000
0001FF000000
001FFFC3FF00
003FFFE3FF80
00FFFFF3FFC0
01FFFFFBFFE0
03FFFFFFFFE0
07FFFFFFFFE0
0FFFFFFFFFE0
0FFFFFFFFFE0
1FFFFFFFFFE0
1FFFFFFFFFE0
3FFFF87FFFE0
3FFFE01FFFE0
7FFFC00FFFE0
7FFF800FFFE0
7FFF0007FFE0
7FFF0007FFE0
FFFE0007FFE0
FFFE0007FFE0
FFFE0007FFE0
FFFE0007FFE0
FFFE0007FFE0
FFFC0007FFE0
FFFC0007FFE0
FFFC0007FFE0
FFFC0007FFE0
FFFC0007FFC0
FFFE000FFFC0
FFFE000FFFC0
FFFE001FFFC0
FFFE003FFFC0
FFFF007FFFC0
FFFFC0FFFFC0
7FFFFFFFFFC0
7FFFFFFFFFC0
7FFFFFFFFFC0
3FFFFFFFFFC0
3FFFFFEFFF80
1FFFFFFFFF80
0FFFFFDFFF80
07FFFF9FFF80
03FFFF1FFF80
01FFFC1FFF80
003FF01FFF80
0000001FFF00
0000001FFF00
0000003FFF00
0700003FFF00
1F80007FFF00
7FC0007FFE00
7FE000FFFE00
FFF001FFFE00
FFFC07FFFC00
FFFFFFFFFC00
FFFFFFFFF800
FFFFFFFFF800
7FFFFFFFF000
7FFFFFFFE000
3FFFFFFFC000
0FFFFFFF0000
07FFFFFC0000
01FFFFF00000
001FFF000000
ENDCHAR
STARTCHAR 011E
ENCODING 286
SWIDTH 636 0
DWIDTH 53 0
BBX 47 78 3 -1
BITMAP
000007C001F0
00001FE007F8
00003FE00FF8
00003FF01FF8
00003FF87FF8
00003FFFFFF0
00003FFFFFF0
00001FFFFFE0
00000FFFFFC0
000007FFFF00
000001FFFC00
0000007FE000
000000000000
000000000000
000000000000
000000000000
000000000000
000001FFE000
00001FFFFE00
0000FFFFFF80
0003FFFFFFC0
0007FFFFFFF0
001FFFFFFFF8
003FFFFFFFF8
007FFFFFFFFC
00FFFFFFFFFE
01FFFFFFFFFE
01FFFFFFFFFE
03FFFFFFFFFE
07FFFFFFFFFE
07FFFF83FFFE
0FFFFC00FFFE
0FFFF800FFFE
0FFFF000FFFE
1FFFF000FFFE
1FFFE0007FFC
3FFFC0007FF8
3FFFC0007FF0
3FFFC0007FE0
3FFF80007F00
7FFF80000000
7FFF80000000
7FFF80000000
7FFF00000000
7FFF00000000
7FFF00000000
7FFF00000000
7FFF00000000
FFFF00007FC0
FFFF0000FFF0
FFFF0000FFF0
FFFF0000FFF8
FFFF0000FFF8
FFFF0000FFF8
FFFF0000FFF8
FFFF0001FFF8
7FFF0001FFF8
7FFF0001FFF8
7FFF8001FFF8
7FFF8001FFF8
7FFF8001FFF8
7FFFC003FFF8
7FFFC003FFF8
3FFFE007FFF8
3FFFF81FFFF8
3FFFFFFFFFF8
1FFFFFFFFFF8
1FFFFFFFFFF8
1FFFFFFFFFF8
0FFFFFFFFFF8
0FFFFFFFFFF8
07FFFFFFFFF8
03FFFFFBFFF0
01FFFFF9FFF0
00FFFFF1FFF0
007FFFE0FFF0
001FFF803FF0
0003FC000000
ENDCHAR
STARTCHAR 011F
ENCODING 287
SWIDTH 600 0
DWIDTH 50 0
BBX 43 80 3 -16
BITMAP
000040001000
0003F000FE00
0007F801FE00
000FF803FE00
000FFC07FE00
000FFE1FFE00
000FFFFFFC00
0007FFFFFC00
0007FFFFF800
0003FFFFF000
0001FFFFC000
00007FFF0000
00000FF80000
000000000000
000000000000
000000000000
000000000000
0001FF000000
001FFFC3FF00
003FFFE3FF80
00FFFFF3FFC0
01FFFFFBFFE0
03FFFFFFFFE0
07FFFFFFFFE0
0FFFFFFFFFE0
0FFFFFFFFFE0
1FFFFFFFFFE0
1FFFFFFFFFE0
3FFFF87FFFE0
3FFFE01FFFE0
7FFFC00FFFE0
7FFF800FFFE0
7FFF0007FFE0
7FFF0007FFE0
FFFE0007FFE0
FFFE0007FFE0
FFFE0007FFE0
FFFE0007FFE0
FFFE0007FFE0
FFFC0007FFE0
FFFC0007FFE0
FFFC0007FFE0
FFFC0007FFE0
FFFC0007FFC0
FFFE000FFFC0
FFFE000FFFC0
FFFE001FFFC0
FFFE003FFFC0
FFFF007FFFC0
FFFFC0FFFFC0
7FFFFFFFFFC0
7FFFFFFFFFC0
7FFFFFFFFFC0
3FFFFFFFFFC0
3FFFFFEFFF80
1FFFFFFFFF80
0FFFFFDFFF80
07FFFF9FFF80
03FFFF1FFF80
01FFFC1FFF80
003FF01FFF80
0000001FFF00
0000001FFF00
0000003FFF00
0700003FFF00
1F80007FFF00
7FC0007FFE00
7FE000FFFE00
FFF001FFFE00
FFFC07FFFC00
FFFFFFFFFC00
FFFFFFFFF800
FFFFFFFFF800
7FFFFFFFF000
7FFFFFFFE000
3FFFFFFFC000
0FFFFFFF0000
07FFFFFC0000
01FFFFF00000
001FFF000000
ENDCHAR
STARTCHAR 0120
ENCODING 288
SWIDTH 636 0
DWIDTH 53 0
BBX 47 79 3 -1
BITMAP
00000007F000
0000001FFC00
0000007FFC00
0000007FFE00
000000FFFE00
000000FFFE00
000000FFFE00
000001FFFE00
000000FFFE00
000000FFFC00
000000FFF800
0000007FF000
0000001FC000
000000000000
000000000000
000000000000
000000000000
000000000000
000001FFE000
00001FFFFE00
0000FFFFFF80
0003FFFFFFE0
0007FFFFFFF0
001FFFFFFFF8
003FFFFFFFFC
007FFFFFFFFC
00FFFFFFFFFE
01FFFFFFFFFE
01FFFFFFFFFE
03FFFFFFFFFE
07FFFFFFFFFE
07FFFF83FFFE
0FFFFC00FFFE
0FFFF800FFFE
0FFFF000FFFE
1FFFF0007FFE
1FFFE0007FFC
3FFFC0007FF8
3FFFC0007FF0
3FFFC0007FC0
3FFF80001800
7FFF80000000
7FFF80000000
7FFF80000000
7FFF00000000
7FFF00000000
7FFF00000000
7FFF00000000
7FFF00000000
FFFF00007FC0
FFFF0000FFF0
FFFF0000FFF0
FFFF0000FFF8
FFFF0000FFF8
FFFF0000FFF8
FFFF0000FFF8
FFFF0001FFF8
7FFF0001FFF8
7FFF0001FFF8
7FFF8001FFF8
7FFF8001FFF8
7FFF8001FFF8
7FFFC003FFF8
7FFFC003FFF8
3FFFE007FFF8
3FFFF81FFFF8
3FFFFFFFFFF8
1FFFFFFFFFF8
1FFFFFFFFFF8
1FFFFFFFFFF8
0FFFFFFFFFF8
0FFFFFFFFFF8
07FFFFFFFFF8
03FFFFFBFFF0
01FFFFF9FFF0
00FFFFF1FFF0
007FFFE0FFF0
001FFF803FF0
0003FC000000
ENDCHAR
STARTCHAR 0121
ENCODING 289
SWIDTH 600 0
DWIDTH 50 0
BBX 43 80 3 -16
BITMAP
000000FE0000
000003FF8000
000007FFC000
00000FFFC000
00001FFFE000
00001FFFE000
00001FFFE000
00001FFFC000
00001FFFC000
00001FFF8000
00000FFF8000
00000FFF0000
000003F80000
000000000000
000000000000
000000000000
000000000000
0001FF000000
001FFFC3FF00
003FFFE3FF80
00FFFFF3FFC0
01FFFFFBFFE0
03FFFFFFFFE0
07FFFFFFFFE0
0FFFFFFFFFE0
0FFFFFFFFFE0
1FFFFFFFFFE0
1FFFFFFFFFE0
3FFFF87FFFE0
3FFFE01FFFE0
7FFFC00FFFE0
7FFF800FFFE0
7FFF0007FFE0
7FFF0007FFE0
FFFE0007FFE0
FFFE0007FFE0
FFFE0007FFE0
FFFE0007FFE0
FFFE0007FFE0
FFFC0007FFE0
FFFC0007FFE0
FFFC0007FFE0
FFFC0007FFE0
FFFC0007FFC0
FFFE000FFFC0
FFFE000FFFC0
FFFE001FFFC0
FFFE003FFFC0
FFFF007FFFC0
FFFFC0FFFFC0
7FFFFFFFFFC0
7FFFFFFFFFC0
7FFFFFFFFFC0
3FFFFFFFFFC0
3FFFFFEFFF80
1FFFFFFFFF80
0FFFFFDFFF80
07FFFF9FFF80
03FFFF1FFF80
01FFFC1FFF80
003FF01FFF80
0000001FFF00
0000001FFF00
0000003FFF00
0700003FFF00
1F80007FFF00
7FC0007FFE00
7FE000FFFE00
FFF001FFFE00
FFFC07FFFC00
FFFFFFFFFC00
FFFFFFFFF800
FFFFFFFFF800
7FFFFFFFF000
7FFFFFFFE000
3FFFFFFFC000
0FFFFFFF0000
07FFFFFC0000
01FFFFF00000
001FFF000000
ENDCHAR
STARTCHAR 0122
ENCODING 290
SWIDTH 636 0
DWIDTH 53 0
BBX 47 76 3 -16
BITMAP
000001FFE000
00001FFFFE00
0000FFFFFF80
0003FFFFFFE0
0007FFFFFFF0
001FFFFFFFF8
003FFFFFFFFC
007FFFFFFFFC
00FFFFFFFFFE
01FFFFFFFFFE
01FFFFFFFFFE
03FFFFFFFFFE
07FFFFFFFFFE
07FFFF83FFFE
0FFFFC00FFFE
0FFFF800FFFE
0FFFF000FFFE
1FFFF0007FFE
1FFFE0007FFC
3FFFC0007FF8
3FFFC0007FF0
3FFFC0007FC0
3FFF80001800
7FFF80000000
7FFF80000000
7FFF80000000
7FFF00000000
7FFF00000000
7FFF00000000
7FFF00000000
7FFF00000000
FFFF00007FC0
FFFF0000FFF0
FFFF0000FFF0
FFFF0000FFF8
FFFF0000FFF8
FFFF0000FFF8
FFFF0000FFF8
FFFF0001FFF8
7FFF0001FFF8
7FFF0001FFF8
7FFF8001FFF8
7FFF8001FFF8
7FFF8001FFF8
7FFFC003FFF8
7FFFC003FFF8
3FFFE007FFF8
3FFFF81FFFF8
3FFFFFFFFFF8
1FFFFFFFFFF8
1FFFFFFFFFF8
1FFFFFFFFFF8
0FFFFFFFFFF8
0FFFFFFFFFF8
07FFFFFFFFF8
03FFFFFBFFF0
01FFFFF9FFF0
00FFFFF1FFF0
007FFFE0FFF0
001FFF803FF0
0003FC000000
000000000000
000000000000
00007E000000
0000FF000000
0001FF000000
0001FF000000
0001FF000000
0001FF000000
0000FF000000
00003F000000
00003F000000
00007E000000
0000FE000000
0000FC000000
0000F0000000
ENDCHAR
STARTCHAR 0123
ENCODING 291
SWIDTH 600 0
DWIDTH 50 0
BBX 43 80 3 -16
BITMAP
000001E00000
000003F00000
000007F00000
00000FE00000
00000FC00000
00000F800000
00001FF00000
00001FF00000
00001FF80000
00001FF80000
00000FF00000
00000FF00000
000007C00000
000000000000
000000000000
000000000000
000000000000
0001FF000000
001FFFC3FF00
003FFFE3FF80
00FFFFF3FFC0
01FFFFFBFFE0
03FFFFFFFFE0
07FFFFFFFFE0
0FFFFFFFFFE0
0FFFFFFFFFE0
1FFFFFFFFFE0
1FFFFFFFFFE0
3FFFF87FFFE0
3FFFE01FFFE0
7FFFC00FFFE0
7FFF800FFFE0
7FFF0007FFE0
7FFF0007FFE0
FFFE0007FFE0
FFFE0007FFE0
FFFE0007FFE0
FFFE0007FFE0
FFFE0007FFE0
FFFC0007FFE0
FFFC0007FFE0
FFFC0007FFE0
FFFC0007FFE0
FFFC0007FFC0
FFFE000FFFC0
FFFE000FFFC0
FFFE001FFFC0
FFFE003FFFC0
FFFF007FFFC0
FFFFC0FFFFC0
7FFFFFFFFFC0
7FFFFFFFFFC0
7FFFFFFFFFC0
3FFFFFFFFFC0
3FFFFFEFFF80
1FFFFFFFFF80
0FFFFFDFFF80
07FFFF9FFF80
03FFFF1FFF80
01FFFC1FFF80
003FF01FFF80
0000001FFF00
0000001FFF00
0000003FFF00
0700003FFF00
1F80007FFF00
7FC0007FFE00
7FE000FFFE00
FFF001FFFE00
FFFC07FFFC00
FFFFFFFFFC00
FFFFFFFFF800
FFFFFFFFF800
7FFFFFFFF000
7FFFFFFFE000
3FFFFFFFC000
0FFFFFFF0000
07FFFFFC0000
01FFFFF00000
001FFF000000
ENDCHAR
STARTCHAR 0124
ENCODING 292
SWIDTH 672 0
DWIDTH 56 0
BBX 48 81 4 0
BITMAP
000000FF0000
000003FF8000
000007FFC000
00000FFFE000
00001FFFF000
00003FFFF000
0000FFFFF800
0001FFFFFC00
0003FFFFFE00
0007FFCFFF00
000FFF87FF00
001FFE03FF80
001FFC01FF80
000FF0007F00
0007C0003E00
000100000800
000000000000
000000000000
000000000000
000000000000
000000000000
0FFC00003FF0
0FFF00003FFC
0FFF80003FFE
0FFF80003FFE
0FFFC0007FFE
0FFFC0007FFF
1FFFC0007FFF
1FFFC0007FFF
1FFFC0007FFF
1FFFC0007FFF
1FFFC0007FFF
1FFFC0007FFF
1FFFC0007FFF
1FFFC0007FFF
1FFFC0007FFF
1FFFC0007FFF
1FFFC0007FFF
1FFFC0007FFF
1FFFC000FFFE
3FFFC000FFFE
3FFF8000FFFE
3FFF8000FFFE
3FFF8000FFFE
3FFF8000FFFE
3FFFFFFFFFFE
3FFFFFFFFFFE
3FFFFFFFFFFE
3FFFFFFFFFFE
3FFFFFFFFFFE
3FFFFFFFFFFE
3FFFFFFFFFFE
3FFFFFFFFFFE
3FFFFFFFFFFE
7FFFFFFFFFFC
7FFFFFFFFFFC
7FFFFFFFFFFC
7FFF0001FFFC
7FFF0001FFFC
7FFF0001FFFC
7FFF0001FFFC
7FFF0001FFFC
7FFF0001FFFC
7FFF0001FFFC
7FFF0001FFFC
7FFF0001FFFC
7FFF0003FFFC
7FFF0003FFFC
FFFF0003FFF8
FFFF0003FFF8
FFFE0003FFF8
FFFE0003FFF8
FFFE0003FFF8
FFFE0003FFF8
FFFE0003FFF8
FFFE0003FFF8
7FFE0003FFF8
7FFE0001FFF8
3FFE0001FFF8
1FFE0000FFF8
07FE00001FF0
ENDCHAR
STARTCHAR 0125
ENCODING 293
SWIDTH 600 0
DWIDTH 50 0
BBX 43 81 3 0
BITMAP
0003FC000000
000FFE000000
003FFF000000
007FFF000000
00FFFF800000
01FFFFC00000
03FFFFE00000
07FFFFF00000
0FFFFFF00000
1FFF3FF80000
3FFC1FFC0000
7FF80FFE0000
7FE007FC0000
3FC003F80000
1F0000F00000
080000200000
000000000000
000000000000
000000000000
0FF800000000
0FFE00000000
0FFF00000000
0FFF80000000
0FFF80000000
0FFF80000000
0FFFC0000000
0FFFC0000000
0FFFC0000000
0FFF80000000
1FFF80000000
1FFF80000000
1FFF80000000
1FFF80000000
1FFF80000000
1FFF807FE000
1FFF83FFFC00
1FFF87FFFE00
1FFF8FFFFF00
1FFF9FFFFF80
1FFFBFFFFFC0
1FFFFFFFFFC0
1FFFFFFFFFC0
1FFFFFFFFFE0
1FFFFFFFFFE0
3FFFFFFFFFE0
3FFFFC3FFFE0
3FFFF00FFFE0
3FFFE007FFE0
3FFFC007FFE0
3FFFC007FFE0
3FFF8003FFE0
3FFF8007FFE0
3FFF0007FFE0
3FFF0007FFE0
3FFF0007FFE0
3FFF0007FFE0
3FFE0007FFE0
7FFE0007FFE0
7FFE0007FFE0
7FFE0007FFE0
7FFE0007FFE0
7FFE0007FFE0
7FFE0007FFE0
7FFE0007FFC0
7FFE000FFFC0
7FFE000FFFC0
7FFE000FFFC0
7FFE000FFFC0
7FFC000FFFC0
FFFC000FFFC0
FFFC000FFFC0
FFFC000FFFC0
FFFC000FFFC0
FFFC000FFFC0
FFFC000FFFC0
FFFC000FFF80
7FFC000FFF80
7FFC000FFF80
3FFC0007FF80
1FFC0003FF80
07F80000FF80
ENDCHAR
STARTCHAR 0126
ENCODING 294
SWIDTH 684 0
DWIDTH 57 0
BBX 54 60 3 0
BITMAP
07FE00001FF800
07FF80001FFE00
07FFC0001FFF00
07FFC0001FFF00
07FFE0001FFF80
07FFE0001FFF80
07FFE0001FFF80
07FFE0001FFF80
3FFFFFFFFFFFFC
7FFFFFFFFFFFFC
FFFFFFFFFFFFFC
FFFFFFFFFFFFFC
FFFFFFFFFFFFFC
FFFFFFFFFFFFFC
FFFFFFFFFFFFFC
FFFFFFFFFFFFF8
FFFFFFFFFFFFE0
0FFFE0003FFF80
0FFFE0003FFF80
0FFFE0003FFF80
0FFFE0003FFF80
0FFFE0003FFF80
0FFFE0003FFF80
0FFFE0003FFF80
0FFFFFFFFFFF80
1FFFFFFFFFFF00
1FFFFFFFFFFF00
1FFFFFFFFFFF00
1FFFFFFFFFFF00
1FFFFFFFFFFF00
1FFFFFFFFFFF00
1FFFFFFFFFFF00
1FFFFFFFFFFF00
1FFFFFFFFFFF00
1FFFFFFFFFFF00
1FFFFFFFFFFF00
1FFFC0007FFF00
1FFFC000FFFF00
3FFFC000FFFF00
3FFFC000FFFE00
3FFFC000FFFE00
3FFF8000FFFE00
3FFF8000FFFE00
3FFF8000FFFE00
3FFF8000FFFE00
3FFF8000FFFE00
3FFF8000FFFE00
3FFF8000FFFE00
3FFF8000FFFE00
3FFF8000FFFE00
3FFF8000FFFE00
3FFF8000FFFE00
3FFF8000FFFE00
3FFF8000FFFC00
3FFF8000FFFC00
3FFF0000FFFC00
3FFF0000FFFC00
1FFF00007FFC00
0FFF00003FFC00
03FF00000FFC00
ENDCHAR
STARTCHAR 0127
ENCODING 295
SWIDTH 600 0
DWIDTH 50 0
BBX 45 62 1 0
BITMAP
03FE00000000
03FF80000000
03FFC0000000
03FFE0000000
03FFE0000000
03FFE0000000
1FFFFF800000
7FFFFFC00000
7FFFFFC00000
FFFFFFC00000
FFFFFF800000
FFFFFF800000
FFFFFF800000
FFFFFF000000
FFFFFC000000
07FFE01FF800
07FFE0FFFF00
07FFE1FFFF80
07FFE3FFFFC0
07FFE7FFFFE0
07FFEFFFFFF0
07FFFFFFFFF0
07FFFFFFFFF0
07FFFFFFFFF8
07FFFFFFFFF8
0FFFFFFFFFF8
0FFFFF0FFFF8
0FFFFC03FFF8
0FFFF801FFF8
0FFFF001FFF8
0FFFF001FFF8
0FFFE000FFF8
0FFFE001FFF8
0FFFC001FFF8
0FFFC001FFF8
0FFFC001FFF8
0FFFC001FFF8
0FFF8001FFF8
1FFF8001FFF8
1FFF8001FFF8
1FFF8001FFF8
1FFF8001FFF8
1FFF8001FFF8
1FFF8001FFF8
1FFF8001FFF0
1FFF8003FFF0
1FFF8003FFF0
1FFF8003FFF0
1FFF8003FFF0
1FFF0003FFF0
3FFF0003FFF0
3FFF0003FFF0
3FFF0003FFF0
3FFF0003FFF0
3FFF0003FFF0
3FFF0003FFF0
3FFF0003FFE0
1FFF0003FFE0
1FFF0003FFE0
0FFF0001FFE0
07FF0000FFE0
01FE00003FE0
ENDCHAR
STARTCHAR 0128
ENCODING 296
SWIDTH 312 0
DWIDTH 26 0
BBX 36 80 -3 0
BITMAP
00FE000060
07FF8000F0
0FFFE001F0
1FFFF807F0
3FFFFE0FF0
3FFFFFFFF0
7FFFFFFFE0
7FFFFFFFE0
FFFFFFFFE0
FF0FFFFFC0
FC03FFFF80
F801FFFF80
F800FFFF00
F0003FFC00
60000FF000
0000000000
0000000000
0000000000
0000000000
0000000000
001FF80000
001FFE0000
001FFF0000
001FFF0000
001FFF8000
001FFF8000
003FFF8000
003FFF8000
003FFF8000
003FFF8000
003FFF8000
003FFF8000
003FFF8000
003FFF8000
003FFF8000
003FFF8000
003FFF8000
003FFF8000
003FFF8000
007FFF0000
007FFF0000
007FFF0000
007FFF0000
007FFF0000
007FFF0000
007FFF0000
007FFF0000
007FFF0000
007FFF0000
007FFF0000
007FFF0000
007FFF0000
007FFF0000
00FFFF0000
00FFFE0000
00FFFE0000
00FFFE0000
00FFFE0000
00FFFE0000
00FFFE0000
00FFFE0000
00FFFE0000
00FFFE0000
00FFFE0000
00FFFE0000
00FFFE0000
00FFFE0000
01FFFE0000
01FFFE0000
01FFFC0000
01FFFC0000
01FFFC0000
01FFFC0000
01FFFC0000
01FFFC0000
00FFFC0000
00FFFC0000
007FFC0000
003FFC0000
000FFC0000
ENDCHAR
STARTCHAR 0129
ENCODING 297
SWIDTH 276 0
DWIDTH 23 0
BBX 35 65 -3 0
BITMAP
01FE0000E0
07FF8001E0
1FFFE003E0
3FFFF007E0
3FFFFC1FE0
7FFFFFFFE0
7FFFFFFFE0
FFFFFFFFE0
FFFFFFFFC0
FE0FFFFFC0
FC07FFFF80
F801FFFF00
F000FFFE00
E0007FFC00
C0000FE000
0000000000
0000000000
0000000000
0000000000
007FC00000
007FF00000
007FF80000
007FFC0000
007FFC0000
007FFC0000
007FFC0000
007FFC0000
007FFC0000
00FFFC0000
00FFFC0000
00FFFC0000
00FFFC0000
00FFFC0000
00FFFC0000
00FFFC0000
00FFFC0000
00FFFC0000
00FFFC0000
00FFFC0000
00FFFC0000
00FFFC0000
01FFFC0000
01FFF80000
01FFF80000
01FFF80000
01FFF80000
01FFF80000
01FFF80000
01FFF80000
01FFF80000
01FFF80000
01FFF80000
01FFF80000
01FFF80000
01FFF00000
01FFF00000
03FFF00000
03FFF00000
01FFF00000
01FFF00000
01FFF00000
01FFF00000
00FFF00000
007FF00000
001FE00000
ENDCHAR
STARTCHAR 012A
ENCODING 298
SWIDTH 312 0
DWIDTH 26 0
BBX 30 76 1 0
BITMAP
1FFFFFFC
3FFFFFFC
7FFFFFFC
7FFFFFFC
FFFFFFFC
FFFFFFFC
FFFFFFF8
FFFFFFF0
FFFFFFE0
00000000
00000000
00000000
00000000
00000000
00000000
00000000
01FF8000
01FFE000
01FFF000
01FFF000
01FFF800
01FFF800
03FFF800
03FFF800
03FFF800
03FFF800
03FFF800
03FFF800
03FFF800
03FFF800
03FFF800
03FFF800
03FFF800
03FFF800
03FFF800
07FFF000
07FFF000
07FFF000
07FFF000
07FFF000
07FFF000
07FFF000
07FFF000
07FFF000
07FFF000
07FFF000
07FFF000
07FFF000
07FFF000
0FFFF000
0FFFE000
0FFFE000
0FFFE000
0FFFE000
0FFFE000
0FFFE000
0FFFE000
0FFFE000
0FFFE000
0FFFE000
0FFFE000
0FFFE000
0FFFE000
1FFFE000
1FFFE000
1FFFC000
1FFFC000
1FFFC000
1FFFC000
1FFFC000
1FFFC000
0FFFC000
0FFFC000
07FFC000
03FFC000
00FFC000
ENDCHAR
STARTCHAR 012B
ENCODING 299
SWIDTH 276 0
DWIDTH 23 0
BBX 30 60 -1 0
BITMAP
1FFFFFFC
3FFFFFFC
7FFFFFFC
7FFFFFFC
FFFFFFFC
FFFFFFFC
FFFFFFF8
FFFFFFF0
FFFFFFE0
00000000
00000000
00000000
00000000
00000000
01FF0000
01FFC000
01FFE000
01FFF000
01FFF000
01FFF000
01FFF000
01FFF000
01FFF000
03FFF000
03FFF000
03FFF000
03FFF000
03FFF000
03FFF000
03FFF000
03FFF000
03FFF000
03FFF000
03FFF000
03FFF000
03FFF000
07FFF000
07FFE000
07FFE000
07FFE000
07FFE000
07FFE000
07FFE000
07FFE000
07FFE000
07FFE000
07FFE000
07FFE000
07FFE000
07FFC000
07FFC000
0FFFC000
0FFFC000
07FFC000
07FFC000
07FFC000
07FFC000
03FFC000
01FFC000
007F8000
ENDCHAR
STARTCHAR 012C
ENCODING 300
SWIDTH 312 0
DWIDTH 26 0
BBX 27 78 3 0
BITMAP
04000100
7F001FC0
FF803FE0
FF807FE0
FFC1FFE0
FFFFFFC0
FFFFFFC0
7FFFFF80
7FFFFF00
1FFFFC00
0FFFF000
01FF8000
00000000
00000000
00000000
00000000
00000000
00000000
07FE0000
07FF8000
07FFC000
07FFC000
07FFE000
07FFE000
0FFFE000
0FFFE000
0FFFE000
0FFFE000
0FFFE000
0FFFE000
0FFFE000
0FFFE000
0FFFE000
0FFFE000
0FFFE000
0FFFE000
0FFFE000
1FFFC000
1FFFC000
1FFFC000
1FFFC000
1FFFC000
1FFFC000
1FFFC000
1FFFC000
1FFFC000
1FFFC000
1FFFC000
1FFFC000
1FFFC000
1FFFC000
3FFFC000
3FFF8000
3FFF8000
3FFF8000
3FFF8000
3FFF8000
3FFF8000
3FFF8000
3FFF8000
3FFF8000
3FFF8000
3FFF8000
3FFF8000
3FFF8000
7FFF8000
7FFF8000
7FFF0000
7FFF0000
7FFF0000
7FFF0000
7FFF0000
7FFF0000
3FFF0000
3FFF0000
1FFF0000
0FFF0000
03FF0000
ENDCHAR
STARTCHAR 012D
ENCODING 301
SWIDTH 276 0
DWIDTH 23 0
BBX 27 63 0 0
BITMAP
1F0007C0
7F801FE0
FF803FE0
FFC07FE0
FFE1FFE0
FFFFFFC0
FFFFFFC0
7FFFFF80
3FFFFF00
1FFFFC00
07FFF000
01FF8000
00000000
00000000
00000000
00000000
00000000
03FE0000
03FF8000
03FFC000
03FFE000
03FFE000
03FFE000
03FFE000
03FFE000
03FFE000
07FFE000
07FFE000
07FFE000
07FFE000
07FFE000
07FFE000
07FFE000
07FFE000
07FFE000
07FFE000
07FFE000
07FFE000
07FFE000
0FFFE000
0FFFC000
0FFFC000
0FFFC000
0FFFC000
0FFFC000
0FFFC000
0FFFC000
0FFFC000
0FFFC000
0FFFC000
0FFFC000
0FFFC000
0FFF8000
0FFF8000
1FFF8000
1FFF8000
0FFF8000
0FFF8000
0FFF8000
0FFF8000
07FF8000
03FF8000
00FF0000
ENDCHAR
ENDFONT
